<mxfile host="65bd71144e">
    <diagram id="GJeOPylYFAzQV2g7zEcA" name="Page-1">
        <mxGraphModel dx="2288" dy="299" grid="1" gridSize="10" guides="1" tooltips="1" connect="1" arrows="1" fold="1" page="1" pageScale="1" pageWidth="850" pageHeight="1100" math="0" shadow="0">
            <root>
                <mxCell id="0"/>
                <mxCell id="1" parent="0"/>
                <mxCell id="2" value="" style="shape=image;verticalLabelPosition=bottom;labelBackgroundColor=default;verticalAlign=top;aspect=fixed;imageAspect=0;image=data:image/png,iVBORw0KGgoAAAANSUhEUgAABNMAAAIOCAYAAACS4UuDAAAAAXNSR0IArs4c6QAAAARnQU1BAACxjwv8YQUAAAAJcEhZcwAADsMAAA7DAcdvqGQAAP+lSURBVHhe7J0FfF1F2oefuLt70qSSWuruRoUWitsWd13Yb2EXFtjFdhdY3K1AhVJvU0st2jTu7u7uN3K/OTc3tE0thcLCMk9/99fcc4+fmff9v+/MmdFRC5BIJBKJRCKRSCQSiUQikUgkF0VX+79EIpFIJBKJRCKRSCQSiUQiuQgymSaRSCQSiUQikUgkEolEIpEMEZlMk0gkEolEIpFIJBKJRCKRSIaITKZJJBKJRCKRSCQSiUQikUgkQ0Qm0yQSiUQikUgkEolEIpFIJJIhIpNpEolEIpFIJBKJRCKRSCQSyRCRyTSJRCKRSCQSiUQikUgkEolkiMhkmkQikUgkEolEIpFIJBKJRDJEZDJNIpFIJBKJRCKRSCQSiUQiGSIymSaRSCQSiUQikUgkEolEIpEMEZlMk0gkEolEIpFIJBKJRCKRSIaITKZJJBKJRCKRSCQSiUQikUgkQ0RHLdD+Lfkvola1UFuYQUp+GzbDAxjja4uh9rdfBHUvXa11lOYWUd9tgfeEUTj8oicg+a/S1051fjoZRS2YevozytsZCwPtbxLJb4HuNmrLC8nLacR69Di8nS0xks1FEsnPg5CO3W3VFORkk9flzcIZHhhrf5JIJOdG3dVEpaK1SrqxHzEOf28bLklq9XXSWJ5HelY5fY4jGDvSC+vfqlYXcYeqrZ7SvGwaei1xGzkOZzPtbxKJRPIb4deRTFN309ZQRUER+E50x0S7+PdEV2U8Bz75E8993cbEW5/jH8+txsdI++PPiVpFa10ZOUkpJCfFEHE8iRabBTzy9pPMttWuc5np62qhoaaM0vIaqsqrqG1XiaVmOHn5EzB1BPaXIAx6WyrJTk8kIa9eu0TBHGef0QRM9sPuHPvqU7XTVFdBWVkZFZV1NDZ30K1viKmlHY5Ozri4ueBia4Kqpp6WLh2svZ3RrcsiIyWOzHLtTs6HoQlm5hbYWlpgZeeCk6MDtlYmGPzag/rmDLa89xr/2pTEsOv/zDMP3MgUZ33tjxLJr5ieJkpycynKiCUs5BiHD3Wx4vXXuGOpPw4/gw3tqC6kvLaeypJCKho7UfWKhZYjmDFnLJ5Wxujr9K93cfpoyD1BeHIZLZ3KTgYYyaxVbnSFR5PW1EqndulZuE5k6XQ/7E0MON8hu8piORSdT2tHj3bJeTC2wEHYKSMLOxzsnXB2dsLKRA/dIV+L5HeDug9VXS4JSWmkJscRfvwo4fZPEfHldThqV5FIJOemozScHe//lde26zDrrmd57qlleF5KMqy9mOAt7/LcG3sxnHcff33mMZZ4/dZaPntory0jNz2ZpJRYIoIO0+q2iDuefllci3aVy4iqpY7aqjLKKyqprK6luUssNHFi2OhxjB/hiOmQ/Zya9uocUlLSyKvq0C5TcMbP3wOLvgryskpp1i49G0PMLKywc3bGyc0NV3srzAz1+n/qbqAgMZm0nLILbK9gINy1OeaWVlhZ2WhiFic7K0wNZcuhRPLf4leRTOtrryLl8De89b0xj3/8KBMttD/8jmgtDmPbW3fyzDeGTLz6//jn23cS8Evch742qvPjObzpe7buDORIYg/jVv+RN9b/fMm0nuZKinPiiYlPJGzXDnYcjqOi254Jqx7g+beeYe3woTZNdVEVs5W3Xvwb/9pfKAJCO9yGj2PiqABmLVzDjesWMez0XfW201CWS2JMHClZRdS2tdHc0EhzYztdRqZYOTjj5mSLmakplsY6NGQ3YugSwOrHrsA67yB7t39NYEQ1BWlppOVV0W5mh+fw0Yz3dcVcOEQl8OwzNsNcBLfGPR106tri5DGCgMkTmRAwCm9HCwx+rcFpTRzv//tl/vltFCOuf1oIvAdY5P1LZHMlkp9IZykxx44RGbSZz78LJ6NqEn/d8TGPrPx5kmkNmREk5RSQEryFL785TlptG90uS3npq/d5aMFwbI2GWMlVpQQ+s46HvoygpEmFkdsEZk/2w9FsNY/8exLN737OnpJy8vOiiUgupa2rF7ES46dPxM/FAqOJt/LCfYsYbmNy3vEaWhLW87fPQikvziTxeDwF7V0ijPEkYOE4fOwtMdHXQUecbq+xFW7mvbS2d6AydGW4/wQmTZnE5HHDsDPVl0k1ySn6emjLO87GLTvZ+v1mjmT1YH3rV2TJZJpEclGa8w7w7esP89J2S2bf8jT/eOVmxphrfxwKTTns+erfPP7P3djMu51nXvw7N4w21f74W6GLutwEju7exObv9xEWnc+om5/ixdfe+FmSae2VueSkJZAYF0bg1p0cii2lxWo0Vz/6HC8+eQMBNtqE1sXoaSDp+7d48eX32JXRiL6NJ6PGjGWU+xyWr5mCU3cKwfvCSSlKJiUjj4pmsHUfwSh/f5ys9Onr6EWnp5Mecysch01iztz5zJ8xFi8HM/Taiwj/bis7D0WQUphESmYBlWJ7O09//MX2rtaG6OsJT99ngKm1Kfr6fXS2gYWTF6MDJjJpUgCjvJywlN3xJZJfHiWZ9l+lr1vdXBSh/vj2cWp7v+Xql4Lr1L3an/7X6O1oVTdXFqsrO7ULTqO3tVKdcegz9ct/fU294VieulW7/BejKUd99M271KNwV89Y/aY6vE67/Oekp1adtPUF9TXuKAldtfnwReqHP4tRN3Rrf78Iva356qMf3KeebafdfsQi9f2fRqnLO7QrnEZve526MGan+v2nb1WvWLxUfd3D/1RvCEpUFzW0q3v6NGuou9tr1YWJQer1rzykXjPJR21vFKBe+9A2dWaXZheCXnVnVYz6u6fWqscqTVQ+c9W3vntIXdjcpd2HWEPVpq4vTlUHf/+e+s93LlWP83BTe/gvUd/36gZ1aGaluvXXWri7a9XpR9arX3/5n+ovg1LUle3a5b9Beuor1NV19ermIZYjyf8IhTvUD0/2VVsyT/38jnR19Tns7GWl9oj6+fHD1HaKLRCfKQ9vUMdWtKl7tD9fjKbUT9W3+zmpzbTbT3z4W3VsWZu6W2tLNPS2q3N2/Z96mquVWl9Zb/LD6vUnitVNql716atdjPbSI+p/zHRRCz0vjnW7+r0T+eqaDrEP7U5U7U3qiqxo9f5P/6r+w8opandjO/WoBXeoX/j8qDqzpvMH+yaRDNDT2ayO+vdMNYbmaus7t6qrtMv/W/SqVOq6nBz1LyFdFPq6u9RtZXnq0nPoDYnkfPQ2l6iT9n6kfvn5N9Xfhxeq27TLz6CnTd3YUK0uq1FpF5xGT5O6KHaX+oOXX1S/vS1SXfSLBwuXka589fFX71XPFb5t9s1PqQ8Xapf/XLSmq3c/fZN6gtbnei28R/1hSJl6qHK3vTRE/eE9C9Xe2u09F92rfv94ibrtdKffWa/O2PlX9XXTLDXrzLrp/9Q7E2vUDW3N6trSLPXJ3e+r/+/W2WovB2u105gV6ic/OiB8bPspfy62T9v2Z/XaKRaa7ees+5t6X2qjulP4fA09Xer2+hJ15okd6g+evVu9IsBd7e49Wr349ufVXwUlqyuaz1FmJBLJz8p/PYWtVjVTnn6UbUEpNNSks3/HMYrbtT/+T9FNa1kWCfuOkNGiXXQaumZOjFp2D8++8gy3LhzGLz5sgIEhRiZmWGq//iLomWJub43XCAucHRxQF2URe+woseVKH+yL0U1jfiJJ0fHk91hrlji4uzAxwA+XQQO3COdEwcm9fPzqa3wYWIzriid48e9/5NalAXham6Cn6XWhi76JHV4BS7n9j8/x6t/u4coAa3Q7m2j9oTzqYuToho+bJ57KVwNzzK3ssbUw1O5DrGFgio3HGOZffz9/e/Fl/nrvElw74tj05ku88uF2ThQ0oLzU+qtD3w7/xbfzp2ef5s6lY3H6zb5r3U7ZyVBi4rOoHEoxkvzvYGqOtZ7+LzfWpJ0DXgYG+Lq5Y2RkROyebQRnV9HSrWjgi9BXR/y2faSL81UZ9L9OPX3GBDyUFufTe4HpmuA3eRYTTM1QOtk5L1nE7JEOWBronvfVznNh4jaeCVOMMNbYRjucHa0xNxb70O7EwMQS5xFTWXHvK7z/xos8dtUYuk5u4qW/PMvr30VT1NJNX/+qEokGHR1drGzstd/+y6h76azJ5/i7RyjULvp56aWrsZikbbtIaNQukkiGgK6FO+OvfIBn//4k18/24lx9ylQNuSTHHSU89xzBkJ4lnpOv4qFnX+Dxa2fg+VseY8zQGBMjEy6lY95PwswCW3NLhtvYYGtjS1FSLMFh0RS2DsFnq1spijlJfE4RdRb9N93X14Oxvu6Ynt6xzcgG92FjcHVx0Xw1s7bG0cEea1ML7NxGMH3NvTz11IPcOMONrrQDfPPh52w7lk3DQGAgtvfwHYOLs7Pmq7mVJba2VhgNjBWjZ4iJjTsjZ64VZeDvvPrCfazwaSPp+//wysvvsy0sl7qOIVyPRCK5bPyXk2l9dDaWkHbsIKk6Lpg11VIYtJ3AjAu/Mf7bQ42qtYLkiEPsDCrTLpMM4ODjx5z5sxltqozdFsyRsHyaLxK5qTtryE5Op6LRjDFTRvUv1BEeTWfQOF/qLupyQtn+ybt8ebgSp3k3cNfNVzDmXIOpDWDiwpjFN7PutiWMdVSh6tYuvyQMMPecxpq7HuGR2xbgqZNH8I4v+HLbMbIbLjJ+keRH0kdrRTz7AyNJypARjuSXYe6qK5noYotx2VF27UumtLHroomnrtJj7IwyZPr0sVhZ9meuFa18zgSZgQHGOjoaZz3O1hpjvSG+kvIjsfRfxRP/fJY/zPMRPjmaL978NxsiC2lRyXSa5NeImp6uajKPf8OG3T/KWV8yvV1N5McG8vX2XyZ1J/n9oO5qpDA2lGNBoVRpl0kuL37jApg9dSKOzZkkhIdxMq3uoo3cPQ2ZxCSX0Ws2nDEj+xNdSiO68ublpWGI0+gZLJo8Hn8LqE2J5ERELHkNp4+bOkRM3Jiw+gEeffA2low0oSx0J198sZPjmbXIfJpE8svxX02mqbvbqM5LIDRNn+vuuJbp9u3U18ayf3889T/Crvw66dPMeJUVvIv1n2/jeLV2seQUNu6MmDePRdNcacnNIDzoMAm1FxLFfbSWppCW3YDeyOuYHeCkXX423U2FRB7ZyZZj8XSPmMSsK5Yz0XUIwaiFFxOXTGDmTGPNuAQ/FlO3AJZdtZbVM7zQLY0nZM8uDsaUc/rQpZLLQS/tVZkEb1zPN4cSyDlH70+J5OfAZvIi7pg3HCfzTsJ37SIyv5b2ngsp2Way9u4lY/TVLJ7vifXQRz9Wur4qXYK0X34+DLyXce+TqxlrZYp+YSCfvbefjNoOLnhZEskvjprerjqyI3bw7rvfEqld+vMhjqdqoiT2AF+98wV7Zduo5DLS19VEWdIhtn69gf2RtdqlksuNmddIFs+bxmxvA3ISThIcHkdZ+4WcWweVidGktlvjumg+Yz1/4oQPRnY4+dpgr+m8Vk5DUylNrT+ykV3fgXFLbuSqZTMYZlVDYvBW9hyNoqhFNn5JJL8Uei8KtH//wqhRNRYSu3cDe7pv4c+PTcc0/zB745vo7jBi+JIFjLb5EQZL3Ud3ZxMVuWlkZuahsvbCSq+D+qJUYiOjOJmYRokICtQmVliZG56VTezr7qSxIpf0pFhi42KIT8wgK7eUuo4e9I0tsTQ5PRGjCCux77Js0rKyKeq2xs20h7qCJE6ciCKjso2+vhYyj23m8w8/ZnNwGbqmFlhY9VCVnUtZTR+Wro6Y6avFcTtorMwX55xPYZMBTsqAlANH6euho6mSwvQM8ouaMLC3Qae5lIzYKKKSSmjUNcfeTgQ92vUvRm9XKzVF6STGxREXnURGYRXNnS3U5CQTFpSNzsiZLLt6Jk6qYrLi9nM0IpXUVPEpqKRJxwoXcSw9emmrySM5IoiQaO3vZXW0GdvhbjnUUb97aCiMIy2nGtupNxBgXkdseCil3QbY+c5i+qjzTBkuxHN68EFO5LYyftV8DAojCYzIwmZYAHOWrGSK28Dxu6hOOsjGz75gZ4oOE+es4c47rmak1VByyDoYm5libOWCqakddj90pW+l7GQEIYeiyLEbzpR5i1gW4KJ5Bevc6GFmbkBrcS4JUank1+lj7TGKydNHYj+U4t3XRXN1CRlJ0UTHxpCaXUxVUyddbTU0dXTRY2CFTmOq2PdRQk9qn0NJEz1GljhYGYvy3UNjcRKxEcFExGp/r+lAx9wGR7NTJ6AW5a+pppjs5GyqWtQYW1thrNdOdXIcJ4+FEaVs98OnhJY+EyztLMU6YuPuBgoTYggPOUGc5vc6VPrm2DiYap5fd1sDlQUZJIt1YuPjSUzOoaCsmtZefUxMTTE5fapT5XWd1nrK85JJENfRa2iBrXGvZir4pHhR3mNSKaxu19Qjc1Oj/tdre9uoyoslaPOHvP/FHqJy2zF3sEBXVUNhRhntemZY2VhwwXFZxXE7mqoozEwku7YHA1MrTHobKM5KJPZkNHHpeVQKcWJsZo6pkcEZA7L39Sh1t4DMhGzqe40wNdOluThd2Js4kkvaMbC0xMJUbKNdv7u1ljJhnxLjlfuRQEZuCTXNKjA0w8TYEP1B59mnEnWzJJuE2Ao6lVciLHRpK88lJT6SKPFMs0sa6DYwxcLMGIOB940HoWqpoSQnVXvMRDLySqlt7kbHWBxTXM/Zrat9tNcWk5MUR2R0HPHZhVTWtdHd3UJxrQpjIyNMBmahGkDVSFlOunjOJzWTiyTllFBVJ8qaeFZmxuIYP5xaM0XHQwhX7usZ5eocn1odrO2ssDDSv/hrje35HNt0gLgyc6beeCXThjsI26r9bQC1ivqSLNKS4jkZI8piUg6lNQ106ZphaWaE/nnu37mpIuHTrbTOvIfl8wxJPhFPUXYB7V6zmTfeE1vhK861t+7qMD599ySjrruNOQZJbD2YKJ5FF9OvfYj5o4Q/GGwX2nI4+FUgifUtuC+7k6sme/yIQYbbyT7wGXsTG2lTzeSGx+Yxwtbkgj7D0sWWlkPbOVEu/EVWEz5XrmGKuwWGl3KPOmvITxV1WZTV6PhkUgrKqW/qwdDKRlznqddMz6CzXpRVpX7EEhWXQEpOEdWNXSIAMcdK1COdQRv1ivpRXZBOwsk8+pxchb9vozTlJCEhieS2meDkYinqvg59bXWU5qYQeaIJSz97TLvryYk5zpETWdTq2OBmL/zaD/vupln49eS4WGKi4khMyaGouhmVgQVWlueYsVX4pByhGaKiI4lLyKWopok2tdA4Jbk0WbhiPfBMRflrFn4+Nf4E+TpeeFrro2oqIjn6BFEnYkksqqK9zww7O/PzzgqrVrUKfZMs7k8cJ6ITSEtTBqoWWkNf2BllyAHtegOo+8Qxq4rJTRH2s8WGkQ4mYh9NlKTHEX7iBAnJRTT0GWMj6tn5ipW6p43K7CTxHMUxY4T9KK6mo0uH9qIgvjhYiPH4q3n0qtGnDU8hNE2P8B+FWaQKHaW5h2npmu2a2xT/Ip7/GYVP0UDt1JXmkZ6aQKmuG27CzvW0VZEVH01keDTJhRV06NrgIMqt5hqFzVbV5xFx+Hs+ff0dvjpRg76+Lc4eHZSmZpNXoI/TSLshzg6vaLkWyoW9jxe6KDJG6KIsYZdbOxEni7WpOFnleC2lJB3fzlfvvckn+/LpE/7JzlmP2pwsoc06sPR0xeJclaqvm/bqbML3HuGk1rblFpVi6Dhc+Dfxe4/QncJP7zwQorV92RSUdGHp4fLD/tS9PbTXl5KfkSl0gAprb2sMVO3U5CvaVtSv5Ewq2nQxsbbFwvBchUdo444GSoWPixfP8WRsMlk5wg+0q9BV9PAZ2vZCKAlMRUNmkp6TS72BM47G3TRVCB8VFSlsfwpZlcJ365ljbTUwjEY/ipbtbK6mKDOdnLwGDBxt0W8tF1r2JCcTRDnUMcfB3uwHu6To4gbh69KEH4oV+icpPYfiqiah7AyFLzbDaNApq3tVmnuUnZpDbkkvVu7m0FJLQWo0J6NjSM4UWr5TBxMLS8zOM/thr7inDaU54phKDBBLcnouJaLudwmVZ6K8bn/WbVKL+ypiDqGfY6PEcZKFTi+vp71daKq2Nhra9bD7QRMr5axNo2fSM4soazfEUaOn++hqriQrYg9ff/IxX+0+SbWwNeZmJnSUZ1Egjq8jtKidqZ6oiyra6pWZMDMprujAyN7uzNcMNfTR095ARX6G0PmxxAlfl5bbP/t0n74JZqbChp2lM8T5VhWSkVJIWb0Ols7i3gktVpKRSPTJKBKE9mzsMcLM0kIzcc2l0qeUGeF7NTowTtSvvEoaulupTRb7Px6LatwsFixZxrD+UVtOIexIQ1keaYmKdoklPj1flIFmunWE1jI35dImsWymODSUoiYnxq6Zh1FTOvGRGTQbuzAsYCKjnc49mU9vSw7H94RQrTucRVPtKI4JJTKjlmGTF7Jg/nw8B42Po6pK4ZjQOFFZdfhOWSzWmYvHGRPKCRsVd4SjwbHkNpgzYsZyli6cjqdV/4NUVSZx5HgoMdn1+E1fxoK5sxCu9/yYCHvak09yWqLmOXdY+zJm/GT8nYyHNBxEV0MhyVExpBS2YiDqhqJXL/0JSyS/X/57ybTeDmozwti25SjOtz3JLaPt0O+p5Mi+cKq7muhzmc8V0y6UpBiEWjjplkqNoI0OPcjmrz4RwiQM44mrsCzaz6aP3uaN/7zHxxt2EBKXTXmHPub2Lrg6mGkTNmp6hNDIjznEji1bORKbQXaGEKyJKcSFBRMcmUBZlxnOnl44iGC5p7OZypwETkYEs/+7L/lsz1FiTcaxUDeVjW+9zEtvfMi2xGpUIijvLogmNquSmtJaIQbFcVQNlOWV0dhpg+94d3Qq04g9Ecyh77/h863BxHYOY/kcbxHMd9EqAtq0uBOEHNrKt59t5XhcKy4TnSg/9An/euVN3vs2mCIcmDhjPI4XHSyoh476IpKCD7InKFSIr3TShfBJzy+muChbCJoUUrLqMdMm0+zb0ok++hUbtxxk6/qP+exwNo2Ok1k53QNjsa+m0iTC9qxn4/c72fjZx6yPr0Q1Yj5rRw11GtCBZFoZxpOuY65rO5Vp0QSnN6Nn6UzAzIm4mQx2bWo6ymI4HhRPidEyrl1iS15MyLmTad3KLLHb+e7rwxT0jWbywpu4bu1o7IaqGQ0ssbQ6PZGmcKnJNIGRIT11qWTEh5NW1o6lqx8B02bhZ3MxFdBJXa4ICg8e5NjJeJKE6MjKL6eyvJiUk/tIqOzGymsSdk3hHD/0PVu+28mmrz7nq5MNmPtNYs4YJyE5VVRnhHB47xY2b/qOb774gm8LdXAeM435XkIB9AgxIwK+pJPHObh7I199vJ88lQMjpo7G0UhJegSxe/3nfPTter78ehNbQ+LJKu3DycsPvxFuWCqVp6ua1KMH+e7zt/hyzyEhIEzx9B/FiJE2UJNHTNAOdu4/SnRSKunpaSQLURwRfFwEFSV0mTjh6mKPhbiBnQ2KQIwR93Yf27/+iA+TWrB188KpIVGc22a+Wv8pn32yiYMRmdQZOuDp7Y6jCB51ehopTIogNCqJtKwKGhrbhZDvobWhnMLcRoxdhjHM1wnzcwU5QiI3lReSnRLDsYM72PD5+wRVWeLubElz3C6+eP8t3nnnI77ccYjI9FLaek2xc3HCxkKI0Z5mKgqySIo6yv4dG/j8gyBqrD2w1y/kyPq3ePXVj9h0LB8TvzH4+7iI43fRWJDK8ZAwTsYlkipsVXxCAklKEB4hAtTydnQsHXCwMcNYiNU+EUgW5mQQF3GIPd99xXvvZWMw0gObviyCxP15+503+eDzLQSGJlJQ24mRrTMudpZnJidFGWrISxaiLYyYhKT+YyYmkpzYf8zMyk50rRxxtDbF6DSB3FoWx74DRwiPFPY0QZxrYTk15aXkRB9nS6aaUb5eeGiiwH4663JIjokTQVoyKYkisIsVgXp4MMeOxZFb34eZoyuOIrDqT8Tksf/+v/HJkThx/BIK83LIzs7WfjKJObSZT79Yz4btoWQa+TN7ygjcrYwu3o36Ysm0jloy404SJ64nOSmBiChxL8LDOH7sGPEFLehYOOHmaKkZm2RoQlKbTJt2LbPmjsMs8ziR2Tkk1JgxY+40/BzNNa9unkkH+Tve5NvaBVx3/XRc64P5JjDhV5lMw9AGvYZdbIuspLWrmJ6A61g7weW8QeiZ9NJSnETwoWMiSM4gPSWC6Pg0EdQJO3MokdJuY+zcPHAUD+j0xHRbRRIndh4mPF3ZJl4E/EmkpIrAXzyn1MI2YZKFvXBS7qvYqLOGnBSloSCQrd8KG/V2DA5XL8Eqaxvv/etlXv7n1+zP7CZgzjBas4QfDxb2UfixN97qZNaDI2k/8gWv//1vvPj2LuJq3Vl8RQB24r4q9iTrxCFikrNJT4wj+oQI4k5GcuTIQeIKm+mzcsfb3QqjgcRbVwXxW79hR7go+8nRJKSUUl1fR0HuCY5uCEG9QOnh105FWoqo6yfYs3k9n37wJvGe4lnaZ3Hgyw94883Xee/99Ww6HkVuaRv6Vs64ezpgesatFtqhPpOw3fs4lpBGrtAn4ScTxDkmExN1jJi8JrotHPBwsulPiglN1FiUSExMBEHfb+LrL97ho96F/DEAYZO38N13G/n4k/f58stDwpe0YugdwHgP8zOTceo+epsLOXlwGzsOhgt9kCkC2iSyS0qozM0lPlXYkfS6Qck0JdlSTcbx7Xz7TSAxmflkifqWlJ5EeNhhjoVkU2/ghJ+fKxYGStKtjYp0pdHiGNs2fM034pPjeT1LbQsI3rGVTRvW88kHn/BFYBgF9fo4+4/GT7E9SiOj0E6HDh4VZaOSrOLa/kSrTh0l2UWUVroyeYUfwgtdGLGfrvpiYkUZi09OFrYxnrDIaOJDhf0KO0legwE2Tq642uiL9XKJDDpAaFY11QWVtInjqdUtVOQXUF5tysi5E84as1WD0ihWFMfOTzay9/BWPnnnUw5GJ+Oz/EEmKx3ru9upygjmvS+2iKD9K976aAeRSfpMufEK/ExUmobLhCihA/dtFj58B7uOGDHtBjeaTgTx3aaNfPPpJ3y6cQuhmc2oLXzwH+F0ZoKlT+yjOl/UlXASklNITIgjIjKKmNDjBJ+Ip7jFCFsnF5xtLhR896Jqr6MoJYGok0fY/u1nbN4fQr37fPw7otj+2Xv85623+fjL79kbmUqFsPumdk44OVkLvaiivU7RsicJPbxN6MXvOBTRgOs0T6qPfMq/X3mDd786Sm6PHRNnTcTZqJeu5grSToZyIDSazHTlnMUzEb4rITaWuMQSGvQssXOwx0ZoRLW4f5pkXkwkx/dt4ouP9xGaas64+Ybk7NnAh2+/ydsffsqmXeL686tQCW3n6OKsman4FCKGaCwlJTKUg+HRZKQJ/Z+gNKiLY8YIX5FSRpO+FXb2dlgbn6qYKhF3pJ48JOKNcBKTkohLz6a4spqKzASOxmSQr+PNglF29IqYobowVZSzYyJm+JrPdpwkE18Wa/R0Lx11hSRFhBIem01lXQX1neK6VB2aBHNlhx4OPqNw6BbnFxPG0X3fsf6znaLO6+I7fxrup2eMRVlrqsgQcdBRQqJTSEtJJikmhsRkYctiEkjOa0RtYivunZXwj6L8qlqEBswWOuMYQbu+5fNPQkmvt8N/ki75xwPZ/O03fPnpp3y96yAJpWrhy70Z5mHDabfgIgjNXl9CSuhhYftDiUpOICUlnazcAgpE3JEemyxigCKMz5FM626tpEDYmOgo4bOTxbOIixLl9gTHj0eSmNeA2lJoF3sbzIc8Tb42mdZgju+VV+LbozQYniSyohdbj1FMG+d9jmS4ipr4feyPa8Z8ykoWeFRxMjjkJyXTVI3ZRATuYX9IFnWmE1l01Q2smDcCG20Md8nJNKXRXq+T1JhUEoROrez1YsykSUzxtx9CDN1OQdBX/OvZl/h4fxmWvqMZ5efIWaGXRCI5L/+lZJqa7uYykg5+w8a06Tz0yBV4WOpjYNBLc8RBjhep6BJOdcryOXgP9RUYdTdt9YUkhB3j+ME9bNkSTLWRJaPGjqYsOoi4EjW2nl542ulQkxFBhBDIOa1W+E+biJe5UB3K2FpZoXz73HN8chLmPf4qf3/8bq5fs5gAhwaitn/MprBiVL7zWTLGRgS6tRQkhXLkaBCHdm8jpNYUm5EjGVGZTkRaOW1d7TS26OIw73b+9tBVTDBrJHpnJqbT7uS1b97hqT9cyZJ5o0Rg3Eh5ZhTBQUfYt3MHQaW6uE1fzvWaZJrSKpdJdMgRDh/Yze5DRXRbDcNvmIp8IfqKRHDV1lhNr6kb0xctZtgFja1aiJMSYgO/FAF4EOXuK7j7kYe5785ruGKWLwbFMRwQIj2m0Rh3bTLNz8kD/+lrWDTOlrbcSMKqLPGftYyrNM5fGG97XwLmLWeym4ry+KMk6/gRsGDlj0qmGY2+hoXDLWgXz/Bk+AlqegxwGDGXaX6WZwZ83U3khB8mJKcR32tvZLFdE3Enz5NMayrixMF9bDiUTqvjCCatWMVVc7x+4mCnPyKZpkglpQUsMYTovFZ6Xf0YM30O09wuPJ15b0suQSJI3Bnfw/Q7nuaP993BNcvnMtquldTw/RS22TJx5kL8ff2ZPHcVszx6Kc6IJ6nDk1kLFrBAk0zTx8p9PNMWLGKkcakm2ZxrPZmFC+b3J9NUjZRmJxEVHMjuXQc4GtuJ+7SFzJ+nJNNMcRgzkUkzR2DUlEt2TgH1/mt56Pm/8OSaMfzQcdTAGs+JE/Axq6PbejSrH32Umxd6YynKdsaez3nj5c9JMJnJuqee5Y/3/oG1SydgWRdJ4JZNHK4wx2fsBEa7mtBRlUNSbBiHd39P4NEosoy9xHJr+goyyGnsw36YvwiioCIjmpDkVuyHj2O8CBpMDMxw9J3Egtl+iAichCRD5j/2Ai+/9jT33byEKaPOl0hT6KAmN12I5WPs2baNg6Gp6HqMx8OgibyYJIrbTHD09sBBt4GC5BOERufQau2N/0gvsayR/FQRWITsZce2Q6Le6+M+2g3DzgKy88uob6qhtrYFl/FzmTLWB4OaaHZ9+hFfx6vwWXgj99zxB26+/mrmj3dBlXaULZt2c6KgBzsvXzydLDFsLSY1MZawg9vZsDuYlEJHxk82pbUkjoTsRvRsvPBxNqG9MJ2Y42GkVBnj5e+Pt7OlNonTR0txJNs+fJ+vU3UZvfQm7r5dHPO6q5k31oG2xENs2ryH6GJw9PHFw8EcIyXZ1VNP7Bcv8U6UngjmHuSpB2/nlisXMdlDiOsjwg51e7Bw+niGa5NpfS1FhO/YwcEkFZ6iHF5/0y3csHY1c32NqIjawebtQaR3uuM/ZhiuVkpvwhpSjjYzet1jPPnMQ9x+8/Vce+21ms/quSMwqEomMrUCi/G38Jc/rmPhKIdztLyfgwsl0/paKAj+nq0HM9AZtZirrr+RW25Yy5VzPNHND2PLhu0czenDN2Ac3pok2FD8zqlk2qQJYjurQsKOpVCankfPqEXMGeOGlTLIv3Zthb76eL54Zyf2V9/BynEe6BcF8dWvNZmGAXq1qXwRmExzezdFnou4b/FIbI0v3kuwsyya7995jy+UceFuvpO71t3GTdetZal3Dftf/5iNQZHCB81jyXilZ3b/PeqtzyLwg7/x5vdtjL3hD9x9pyirN1zHldO90SvcxzfvbyAovwunUaLsOZmj31FCXHgEUaFbWf91MJkNvsL+O1CVGEF6RQeqtlLKKruZuHgybUqvrKPf8cGOOOrbprJoZTtZRyPJbVbsbDFFVT4sXSd8qFk35RFf8fmWaPTHXcdNf7iZ65RzmDcMo7IDfPPOV+zL7tMMS+AvIh8ld9OQ9BGP3LYP16f+wd8evlvU6StZPNGZvsztfPJ1O3Puv4FxVk3kR4QTkRDEhve/JqKwDf+l1+CQE8ihkBJ6nXwYPsINk5pkIsKOE5JQi8PMBUx2Nf0hiaxuKST0q7/z3JcZeF/1IA/fu45bb7iGNeKZGJaHsvmjd9iR2oWt8INjhW3XU4sgMC2Yw+IeBX37EXvS2umZMI+V+tWEhkfTaD+SCeNG4tiZT8jRo0SJe7D66imn9ZhW09dZQeLWN/jr64GoZtzO448/wv23XMuaGcOg9DCffBpItcrwzGRaXzdNmbv4yyN/4eu80Tz65r95+v6bWLt6MWON0tj99mfsiCrB+4prmOKkT293I3lRwQRHBPH9+i3EV/WKAHQ2Li1phIeLIHvEaMb4e9JXFkdIaDh5erO5eukwEezpYWjrw/Q5C5ntUMlb3yVj5/JHvgz/N49cu4Yrh5JIEzZSJXRR/M6v2ZXQzaiVt3KrsEc3Xn0Fs/10KQ7ZzuebjpDV5cq0mRNwdXRn3Mz5zPPpJnJ9BC0e1/Hajs/5y+1XsWr5eRJpCroGmDqOZM6aZUxzbSdxs9Cntk4sEvZVk0zTN8LaawJXXzEHP/08Ag/kYug4iStvvwI/406aSpMJOXyUowe3selYKXqm/kyY3ElpTDI5PU6MHOuHu1E9mSHhxBWoGL54CWNstbVb3UNHbS5Ru7/jcLY+Y1fdwm3iGq9fs1BopW5yjuxg/fZwinFnyhR/7IzPV7t76WguJyMylGMh+9i2eT95neb4jRlDnyhn0WnNGLkJje1kSmex0usxmvQqPaENJjHSGporsjRa9ljQLnbsy6fDzI9Ro/qEX02ksK6F9uYqugydmLZkGV66FaQc/pYPhVbNd7+Ce+66i9tvup5Vi6fi2lNI+NaNbD6aSZeFNyOHu2FJCzX5CYQcO8L+vdvZFdGEpZ0ffl5FxISkCEttj6eHsMc9VaSFhxOVWESP7WgmjnPX+gi1KAdlxB/4ho++CaHcazn33H0X68QxVy6YhFNnLiHfK42JwrZbeTPczwUrpfdfXwcV8QfY8MVWMn1u5a9PP8Tdov4vmeSFblkCh6KzaB23iGv97ehtq6MkI0rEJ4fYu3sPx6tNGDZrqVZP62Jk4cyIabOZ6K2mMvYAZc5X8NCrn/Pvx29lxfzp+Fl2UVucTnTwQQ7u28O+4BrM/Gaz5MrTk2k9tFamcmTzF6wPKsRq9o3ce7fw3zeuZfGUYegIPbBji/DVqS1Yuvng626HUXeD0IDxhAXtZ8/+/QTFdWHn7oWHYzW5qSU0mHgyaqQL5m1FJAbHUtJrx+gZk/G2GFqrdHdLOXH7vubTLw9TbjOHWx58kHtvv4lVQq+ZlsYRFCRsT007boOSaerOOjIjjhB4JJse7zlcdcst3HSt8CGThM8uOUHg9m0E56mx9x3DSA8LztkZ8yxOJdM8l6xmjFM7pbnJJJzIptPcDb+JkxlpL+y6dm0Ftbju0D0HyFO7sHD1Ffh0ZBB8Cck0n4kLmTdntlhH8XM9Ik4tITFwM19t2k9MjRn+K2/mtltXMs3L4gd/fOnJNBHM67ZRHhpJUnwOtXV2jJkyjcnTvLj4izhNZB/cwe6gUFIaLBkxfSaTx3tidWFxIJFITuO/k3vuU9FYlk5IeDrWa5czwU4s0zHBymUi866Zhr2qnpr0/ew6VjL0saV0jbByncjqux/m0XuvYbZYpOpoo7KmGet5T/Dehk1s2riez956jgdWjceuo4yUg1/xzb5c4YYFfZ20VueSHteCketsZk/y1rS86CkzPE5YyJK5TjQ1VpKYki/MsQ5GVu5MWvUATzx+D2uVg3U001RSjcrvOv7+5Ue8+cL/8cRt13LLLK8LzsxpYO7IyPm38sBjD3DDMi/tUi0GFiJwWMCtDz7Gg9evYJi4Gy0NxVR1OLLkj+/z+Tsv88wf7+eG69YwxkG7zXlQXusoijrIV18fJc95FY8+cC3T3ZXXWvQxcxjJ7Ktu5vqrJqI8ijPQEffV1g13r/4BNweja2CJvasrnt7aBT8BfTsfJs+ax/Ix1lTkZhMmnEn+oJkIumqzSUopoUl/BnNHnnW2Z9Db1kRVUw0VyhdTQ4wsTYb4ysflx9DEHmPT/ntY0SYceEur5u8LoSrPIz5Z1AWTsQz3ce5/pdLQAteJy1l3ixAVAac9dB0zHFw8cXA+9z3RM7LH1dsep/4Jhk5h7MiIWVdx/6MPcf2sCZxVjHQMsBGC7eprV7A4wBHjunqaqxpoGTRaq1ppQWwUYmT8chaNd+vvUdFbT1l6DkXltgwbPZVRXnYoDYiG9v7MmDcVfz9jCvILySmrpRM9rLynsmrdn3j0jtmMV8pTaw1lNT24zrudJ599jX889wqvvfwnbpotgrasGDJSsqi4+G28CBZ4TFzMjQ8/wYOrJjBKRF9dQuyUtTky/a7nhd3YyKZvv+C9lx/m6hme4vpjCNy0j7CEctqM3QhYfAOP/vER1owfhS31lOYXoB6xlidffY93Xvo/HhXB56rZ/jjqlBH1/Xo+PFAtBPQq1s7zx0FR8cJuOYxcxE2P3cfaGSYUBX7Iu98cIK60BbXDaOZdfQ/PPHwL4/1cxbk2UlFcjVHAjTz95pdsVHokfPQ6f75xPsPtesjc9x1bjsRR2Kh9OG0lRGz8jPeDmhi7YA1rZo3QvCaiHNPRfxm3PXkfV03UI3enONcNh0mubBNST9CeQ+zhdIzMPRnn6YCFkpkT29iNWMBtj9/MQn83cdcG6KT85Ld8GtTK8CVXsGSqN1bKezD6ZnjNuol7bp2Dj1UtId99waH4POq7+sclMVm4jNnTfLA3O02Qd1aRuPMDPtgUSqN5ALc/fBcrJ4oAaHBy6UfQURrO5+8fom/yGlYtmICbpSG6wvaZ+yxg3QO3Md3VhIoj3/JxUCqlzd0itLp0XKddx1UB7tgaV3Jk136SSxo5c8z+bsrDNhPat4ppYz2w/A00/VpZO6Krq31G5XU09/Ry0ZFYemtI+voVXt7ZzvInHmTtZOVVNeVaDbCffjU3TvTAur2Ek/G5NHX3au91I9m7X+e1/yTifO+93Dp/JDZKLzHxi6nHNG558hUeWGxH4aH/8LdXdpJaq6LXchTLbnuE5//yINOMjYQFKSNdlDG7a/7Nl5+9yyv/dx93PvoES6bN45ZHnuG1x67FyFCJEPJISGhl8hNf8sXHb/C3x+7i7j9fy3h7PdQ1cXz2j69oWvxX7rpC1Gmj/rDK1HMm6/70Z5aJOlsX+i7/3phKc1//mecHf8bhxknMnOat6emhYGA7nKX3vsxTy6w1CTeEZZ2w9g7++NxfuWecjua62ooTydFZxJPrN7Bpk9An6z/mtSevYrydmoa073nr9SOUDthZdSdlIe/zt5e/Q/+6F3hizWhtvRBaxGEc1zz+En+9aiSNxz/l+b9/Smx1Lzq6xnjO+QNPPPMP7luu2Ql9NfmkNbly3XMf8vpzz/Hcc//i9ZfXMba3h/pj33HytDHA1L2ibsdt4rV/f0HNrL/w4sNXCvsoDqqjK3z1COave4Qnlrpp1z6F5nXEvESO5ndgNe8K5oxUGo100DO2wf+K61jl3U13fRThmQ2a5fpGTkxaezdP/PVxbh3Vv31LWS7lZgv44ztv8fe//k1c07/490MLsOnoImvvCdIu06Cjfd1tlCXu5eOv0vG/42FWjXfCRFcHXUNrPKddywP3X41bSzHR2z7jk6jqi5f9i6BrZISNty/+2u9nooOBqQWevqMZqV2ioKM0Fo2+gnsee5JHb5grlvTQ2VFJRbUxAbc9xzuvPssLz7/AS889xhrfZuoqwziQUtO/saCvq5Hck4Fs3F3GuNvuYdloB6FtxfMwEb5/zrXcffsy7IWuCt/xDd/E117gGg0wtxvJgtvu0wx4fqWPqOpdbTRU18KoW3jhG1GON37LVx+8wpO3zMZTv5qM0B18uymOGqGC7YfP5eYHHueRW1bjJ/xGa3MR5U0WzHv0fb5471X+IrTsjTeKemjbRlXSMb7+eAexOtO4/9bljHYyFjdCDxNbX2aKsnL/ffNwKA3i2/fe49uT5aiETvecejUPPPQQt6+cJs5V7L+lkoZeN5Y99T4bNm5kw1cf88af72SZvxXN+XEEbtzMkQKtgOhuoTQuiPWfB5JuPJN7bl7KKAcjzTFNHUYw57q7uefOGVgV7GP9Bx/xXUylOIKyXT0VGYnkpXczZqw/nkrDvPArJvZ+zF57I3+4eTbu/SYBAytXxi5ex0OP3M1VC937F14Koky6j1/K7Q89wp0r53N2zRPPur2SlKNb+HRXCqox14l7MRlXxcfqGmIzbDpr7rqfO5c60xT6LZ98upnggmYwc2bUnOt5VMQgV88fL/bSTlNtNa0GI1n5wHO8/tKz/OOlf/DsA2uZ6VhCVkEs0flDnOCpp5liUfa+XR9EoeNs8fzXMnuYLYbChhiJsjR7rYg7rphxjmvppiE3mD0HYqm2m8XVqyfjIXy2okPsR87n6huuYuEYHTJDd7F3/zHymn6MxwZrn8nMnT6TAIdWMhIjCT+ZQd0Z2raXxuxI4kv0MfKZzyjnSxcjrTXFpEaHcGjPbrZvEvXjw3f54KvDFHZ7MP+G+/njgzdzxUUb5IeAiQmWwr70x5t1tLQ306EppBfDhhGLVrL6jtu57f4bWDLbD/vzNQpIJJJz8l9R873t9RTEH+NkeQDrFvszUG8NLewZM/sqFrkJA1ZTQNCOQDIvdSBxPX0hSMz7WySNrHAds4AbFg/HWthhHX1znMcs4+YHH2fVaAtaquuIPRBOnmJw9Iyx9p3Isodu5sqrpuJ2WvclQ0MTrG2E8+vopaeinVPj0QvRpSuOp3TN7TXG1mY4UxaPxsnWh2nXPcT/Pfc4K0cNHgDg3BiInZhZWGm/DUJXV1yWMOZ0oWttgvu4uUxxtcFp3ErufupvPHXTdFwuaOP76KhK4+T+bzlaYsCYZQuY5HxaECsws3NmpF8AvtrvQ0ecm54e+pch4EXXErfRM5m9cBouLTmkhx0kKL5aXLWWXiF8U9PIqlfjsXI2Iwa1Bg1Gpeqiq+MnzB5wGdHXM0D/Em+SWi0C175qCrJiiYzOpKJFBJCaX0xxG7uCSTMW4njhzm2noSfKkB6iuJ4bIxPMDI3Pk/g1wG38YuZOm45PaTRxwSdJqTzdS/fSkBlHjtjacvQ4PAZ2YmiL74LFrH7gGuaIQNP6NLVgbuGAqZmopXWddDapTptJyRATcwPldMBiGBPnzmbGeBcUHaVg4uHDWAdnIb6KaGmrGqJYGAqmmFoZYijup8rYk+mLZjMzwB1zJZFkbM+opbdz740rCfC0oDY2nLjEXCoHZq0XNsdIqaM0YuAzjkkjfXF38CDgyod59ukHWDPJA528IPYEBpNhOZLR4z1xGnSjLZXXo5dPZaR7MycPBhKSUPDDVOlGppboGyo3TwfbsctYPG0i3rZG6CpC33s2Nz52O2tm+WBrkEtIbCLZFU2apFhL5n52BIaT6zCWsWNdsR9UVqxGLeb6lZMY5tJAeOAewlKKaVLm/RDBbLe6j5KESE7EpVPW2EmvNsKy8l/E7RP98bPQluWuYsJ2HCCuKY+02KPs3bKZzZsHPlsJSWumuUvYmqoQEtMKqW9RSrAVIyb74KAZK0ZLXwuFEZv49Kv9pHa7s+i+P3LL4hHiPmkjkZ+EisLg7whM6qQoPYKDu7877Rw3szUil462bnEuFRyJS6Osuf3HBc1W41h5+xxGOJrRGbqT78KyqW7rOZWYa85l//40/NdMY4KzJeftAPIrQl9xbgOvMw6R7vJgPlkfTvlEUVaFn1VeWT6FFwuevo91f7iTh5ePwdFQ2CRlcX0sn328jbSOWSyf7at51fYM7KZxywNX4WNsQMHOj/k2pgpVr/bOinPsT9dUYTTxapb7mKJv488VD73Oe89exxhLfc0xDIz711J6o3rOvYUpTgaYu8/gpmfe460HZuKqr0tt2Gd8EmZIX/5xvv/+zHKy+VgGbYZqzfOM3XqS4r4+zd99vcrs4+Hs2RNLXk3HqedtPJxVDyzHWxz21B2wxlrbLtVmPpE771mI90BdsvBm4f2v8dfVw5S8F4XbviZU0xIkjtGWw/a3vySyyYM1SwI013sKoUPMRrLm4fuZbNhLfdgnvBdUJsJR7a86pljbK3/oou86h+tunIGXVt/oCN9tO2Ea84QNV6vjqFHyWxr66GktJOjNDwks8eL6m6/A94xoT+zLYBhTF03Sfj+FjvB1tqMW8ci66/nDQh9R2wfQRVfPHvvhwsQI+1LcdLq4E78J/2/lKLbXN8Jy3GpuXjqyfxgBgZ6wf8MmzmFMn/CJjSXUXZbJmtWayaGS9nxLYI4RFfHbznje323fzeG0OnGvu2npyGdfVBYDJv9nQ9Q1XaETztXopyv8jLGFomxFubUZwexVqwgY6AqnZ4qZqz/jJoty1d1Det3AgxTar76IuAPbOZStpih665nXuGs/IZkN4nhd1Aobfjg+tz9JdEH0hT8yx9xW7F0ZF23YVNZeNQln5ZVJRUf7zeKqOx/jtpmudFZXkHn4EEl12k2VJJ64PiNhk3XFw3UZv5DpblbY+y/jjidf4JnbZuHYXkzysU3sTO/Bds5sBs8vZSi0eMCCNVw104SKwigCtx8mT5sT09M3xMhcKXE6mNj7MG7u1cwbZoW+8M8GVp5MuPIW7r1vCSPMGyitjONobJHmelV1eSQe3cLeXB0cZs4QGkOzux8wsvNm8sJVrJpmRGluJPt3H6dAkZZqtdBoPdRXlpIUFkJScQOd2nHkjey9mTl1CdcIzXA6hkrCw/wi4vVCiGs0Frbs7I5KvTQXJhK2fx/xKlv8po3B44ykiC5WXuNZuHQpC1zrSY8OZv+RdBq1k73pizjHUMROihZy8Z3C7Pmz8LXVCi9DB5z8PPEZAdXtHRQPoTFYoasmjdD9O9mfZ4L3rAVM8T7zvRADRzf83HwQJuFMeurIigojJD6ajIoEjm09VWY3b97CwRNZlLaIc2vKpDg7jvzKMzJgQ8fEjfELZzN7lhcG2QmEHw0huqT1lA3vrCY5NpU2Kxtmzh6Ow5lh05BQtdVTlJ3IiWNBHNh3mBMZzdhMW8N9f3+dN15+ipvmDcfmfLr8UlDiMI0OvVT0sBu/mkdf+IDP/34fq8Y6/9c6HUgkv1V++WSauoeW6hyiQmNh5R+YO+w0K2Jgju2IGay4chhG7fXUxu1nf3z9jwtsBMbGRrg625/5Kou+BY5+01i2fKwwlI10FMVToplh0xgbr3ms+/s/+eejS/ATTkgZ6LO1uois1CRSC2qgtYeegtbTkmmnYWmBqb8fblrf8/MghLjFWEZ4nifpdj7UHdQUJBN17AQ6tlZMFE7xrFYQRe3/8qXhLIydRjBt1mIWinJRlJnEkcMRFGsVbLcQe4lJudR1j2XpWNeLOg0DI1NMTa2E9BT0CdHT2/ejy9JPQ017Wx2tLf2txVZGBliLsnkxDKzd8B1mR2fmXj5541+8+80uDkdnUN7Qjtp+NKNHjcX/wp3zLht6dsOZNncqk0d1kZ5wguikIloHZtztqiE1rRIrY1sm+NqfVoxsGLHkTp599c/ct8wfR/EgejtbqC3OJDElk7JaEUxVdNBZ23UqYXo6xoYiTjY4s/4KwWCoJ4Sx9uvPgYWdPZbmp7rcaxBBYMDcRYz3G4YZaRRWFlLXNHjK4WEMcxuGvfXgZr02cuPDSS0tpsXeUjNRwOA1hAFh+MTpeLm6Ylh0kuSUXCrO2r8DjjaWmA3q0WQ6fB5LZ3riLQLmmpRyiqpb6aCVrJhQUivKaHWwwtLU6Bwtn1aMnDwTTycnDArCiU8ppKZZHNPUhZHjfNHN2scnb7/JO58o4jWFwroOVLqezJ05EpeBbGBtPlHpzVRnpnHy2AH27t17xudYDgTMWsHNN9/M1OFOmGoenBtjRP21Vlo4NPTRlB/Klx98SmBWN+6rHuf+mxYwzMH0tCTET6GGnPA02hqySQpXXgM68xz3Hs/FaMYCrhTnePNEL2w0XUB/DPr4zl3HqtGOWBtmEfj9YdLKm+nWKPM+6uK/J6h+EfPHC/H8w/unv26a68o0waKCkZU5xkKsX+yZ1EYLv13bSecwF+z0dQe5FQM8lj7BG1++z/PXjcFaO5p3Y9wh9mSp6Or1xN5OT2k/Ogv7yUtYZidsgk4Ku0JSaf6hV9sAk4R9ckbvoq/oTiFguNE5jtFJemwQjX1lJATvI3DPoHKyNxmdpddzo1JOxnlgqE0yOo6+hnFOaXz0j+f414dfsetoFNnlrZoGAof51zPL7tzn4+jtMygpJtywgTer1t2Iu7gytfowsdki1BcBe1fuUTYebUJHZypu5+qFrvT0GD2X68cIG9vbwO6dJzh74nBxHhbCJ2q//YDSkKf98wf6euksOs7GXWXC5C4U9/WsrTScc/g8XQNMRq3mb+9+wavXj9McT+nl1lCRT1psFOllIlYW/jirWUlCno2OuBZlYPEz0RH3xvAyB3k9ItAtJv1YEh1tmYSe8azFZ18QoZmdjFSe99o1rPKxGFTe/lso9cMSkzOciLg/SsPuWUa+W9i9QrLDU2hpSCV48DXuP05MqQ5jlWtcvZwlHhaXpJEMjI2xc3Y505/piGXu41lwxULhseppaY8mq2RwssMSK7NxjPIa3NjcTWN1LnGRYZSZGGLoZH1aMnYAQ2wc/Rg/dSrmzRXUJAUTVzR4/yaYGjvjNPCqqxYDG3f8ha1fPAraa1opSiqjVhyzviKbuOhIKhQ/6SjOTbv+KYzEdY5k7KRJmDWWUJUURlKxOKa+ubhWPzzN6wlb/y9e+s/nbA0MJbmohpZeKzy9/Jkx+dxvdVx2+looz04iMSpNM8GAj/XZ6TZ0bXAZPoYRk91QFRWQHxmvedX9TIzQNzDB8IxYRkmE66F3ScKrm+q8ZOKSY6h3s8fT15VzDQCjmJCzvGFLNfk5ZaSnl5IXdeTMMis+QbFlGHvO0ugKZcgJe5MfWzP1cBg+m/nTZzPappKkmDBCInNo1Lg8NW1F0cTm62DsPJ+AH1qJLw1730msueNJ/vHOB3yu9EDe9Bnv/etp7rl6NqNczC+flm1vo6Gro/9NKwNTTISB0HTEHiJ6SsPW4FkpJBLJkPjFa05fVwOlyQc4cLwIs5YMDp7WSqa0OOw5FE1pt6cwMF3U16Sxf+cxSi5zc6CxuTVefgE4CrOj6smk8YxGFjU9nU2UZcYScvAA+4+FEhETT2rhQNPab5CeFuqLSslNFtduZISt1U9oFfu50bPGM2A6cxaNx6E+n8yTwRxPa6BX3aEJ2DPqerDRjBumXf8C6Jtb4mxjj/KCHM2ddNW00f5fyaYJB1dXTlO10lpsxgh7N8YKkXgxDJz9WXHtLTx6bQBmpYf46Pk/8tQzL/P2F1s4EJlBeWPXLyjuzfCavJBZ0yZikhtNWHg0mXVK3wc1rUUxZDUZY+o2/qyxIzQoM2U2lmuSO4cPHeZISBgRCZmU1/06eg0OFUPXYUywcdC8ktDQ2k5b11BbQ6spT62mqfzC65s6eDLMTAkeaqhqqKG1Y6BvycVwwGeMJ9YOItQUyri9oUvI2CpKk6ppqbrwPsycvfE1tRShTTWV9bXimoSKNBrG3Hvv4tY/LMatPoxP//4UT/7lRd74aCN7Q5IpaeigR1vweuqryRQCrmnWLfzffz5jo0Ysnvvzwk0z8bI+W92pqlPZ/9WnbI5oxCzgZp66fQVTXK1EyHSZ6BH3M7WLrpb53PX8e3yx8dznp/k8ew0TnC1+ROuuFrsJXHnDZLzsTWgPDmRvbCENHb1C6BZzZEcsNktmECAqyW9jcF9RikpS6e3pL7ejx/phb3hqVtrzUV12kj5lm0uwtUXZx6nvVV3Yntn4MGaM0hMaiguraNT2DLt8VFGS0Uifejz3vvENG85VPn74XMMo7VhvXkue4oWHbmKRdT6B/3qEux57htfe+YJv9oaRUT1UG6FF7NBs9DSu0H4t13TBUtMinHdM/6LzoCRTvBk+R/zZp0YdUSSu5sej7uulOTOOY0oQreOCvdKz7VJReu2011KYHM7+wL3C7p/gZKTwG5Xa3//bCL/U01pFWaIZto638ZIyFMg5n7X4fPkhb6+bdI7eQL9y1CpUjTVUptrg5ns3r13oGj/9Dy/fMO4njinbj56ZJS7e/kwVf3d191DXPLSeTIpWaqsroTj+wtpA30RoO2cfvMT67V1lVNQPVUuYYmXvxbCxokA3qujObaJN/GupLqE08cL7MDC3wsXJC0/aae0sp7JBBCb61nhMW87Nf17HXHcVcRtf4YnHnuSF1z9hw64QEvNrlBdafhlUzdQXV1KSr/1+HiyUWUGdRoi/Kmhpz6G2qX/55UeJO4QdyqjH2cxIaMOzmxDPR29rM6XNDZT4zWLlM29f0Ba/+ac7mOM19H2fhbkn4+dNY8YUF3SykokOiSK5qkPprkh6VDI1+haMmz0K55+1o8RPp7epjiJx3zSNKG6eOHk59s8ULJFIfnZ+YUnfS3t9AfFHjpHnMgG93CD27NlzxmdvUBgpDWZMHudIrxABBYd2EHjJ73peBANDLKwdGIUBero2iPhAg7pXBIXFCQTv3szm7Xs5HBZPQZ87k5es5eq5o/pX+i3S001XRzuKz+zp6aGj87K9G/ezYO7mz8zZS5nt2kVuxkkOBEVSLMROitIrrcObVVO8hhZomzvg4zOMAKVLVF0l9Tm5lA8ag+0XoVMEaTnl5BeIv82H4TlsPL7KGCAXxRSXiWu47y+v8epfHuL2ZaMwKzvOpy89zVPPvMKnu8PJPv21op8ZQ9cxzJ4zhYnOFcRHhxOVVkFHdwOZ8dl0m5gxfKzbWb0e+jqFg088RuCO79m++wDBSaV0Ok9l5cplTBj+C7XYXi4sLLA3NtYEVEb6+hjoDdV89gmhIwJLpdqJwKK39zzjTol7aGlgoGnl19dTeh8M3Txb2fphZGwL1gYYGIttlWM2imMqXf40xzxPr0wTcyz1DTT1SXNMbW8bq5FX8OBzf+elvz3OHTfOxL7hJN+++hRP/flF/rMpmIyqVk2Pq97ubhF4iz2X1NPU1nXa67pDRNSNpF0f8sHGEBrMZ3DXY/eyatLlGSftB4TNUymBPQXUigBInPLPiDFjlt/NouFOWBjEsmvbcbIqRFCRtps9mWNYMnEUdua/clU+gKqExPB0VEpS12i4eC5emBpePM3Yp1aS/KJwlIsyMcTewL0qEQKolTU7UYmCdW6bZoWVozK0gvjTQE947/6xxy4fnXS1iSOrC4W/EXZ1qIbV2I+rnvkP77zyNI+su5qpFpUceO8J7r33KV75cCsnii9lgC9xRQ4ODAxBambUX1ZUIlBWUKvb6DhnN16Bjilm/W+4iXNSpgj6CYiLb2+tVf4QfzbTfokNmmpheOqyI9n77bds2X2QoLAEGsyGs/CWu7lysnal/zrCJghtpAwy0NOXQ/VvuL30vCh2T7F/dKDqUeyfdvnPjdKL0MoaxcMrPUWNDYbaRUacr6qPHuU8hV/p6+rpH8dzMML/Ggp/qRR3xWcZ6A29C46RiQ1WdsPFH7roWhsKO6L4SXFMRSAr9kp1vmMqw08IHy3+1FVemdYe08huGHNveop/vvE8f7xnDVO9VCR+92/+8vgTPP/OJg4mltI2FCP4U+nrFa6+R/PaarfQGF3ncXTKkBGGJkofTz3xbBQd07/88iP0QG0HHRXQquqlUWmoGyJ9ikYS10J9K+3VLed+G+iyYaAZDmjuzDkMsygkMe4YoVEF1JQkEpXShpH1VCafPsXor5Je6ooyyK4spk5cj/MEP3yHu/z2kv8SyW+UXzSZpu5uplIIrONZTjzw+len9Ug787Pp64957fGV+Fm0U18Xy4EDidRfTmekTPferaJT1xoj80k4Kb2cejtpLoxl9yev8/rHB6jyXMq9f/s7T9+ykAAPa4wvobvsrw4Rfehrg/T65hayiivOLRZO51yBhNLi3fMLvCppYI/XlOnMWToC64ocMkL2sX1/BEllrejNXMBoxyF6f31bzSyTk+d5Y0YpucUxxKTVMeRYuq+TxoZ6amp/StfIHloK04mLSSG9QR/bUeMJmDnxjGmyL4wBFq5jWXrnM7z29nv8868PcdN8D7ozd/Le6x+z5WiBCFi1qw6gCEJFiGq/Xj5s8J02l6lT/VGlnSQsMpasvCQyKq0wd5zCCKdBGRBVA4VRe/jsjTf5+ngZDsvu5v+efow7lk7Ax95UO+PkbwhlLDFxX3vEfXC2scOy/53FIWCGqbuhMn4w5FdTXyME4gUDdWc87B2xvoRXAVXdyrhmPRiOdRCxuCkmmGPmaYChovxzq6irF0H4BY/pgpejAxbKuDdajOxHMOfGP/Pv/7zDmy88we1rJmCYf5gPX32N70IzqOvsw8jKBjtFnMdHEJtWSO35muG7qimpaqVNbPMDfa0UndisGSctp9eNxQ/czTVzh+FgcnlTJBhbYucg7oVBDMHRWZQ2dgnpeS5UVBZW0tZxkR5SF8NlCtesDsDNxpjKo9sJjIrh4IYT9K1cwEQ/m6HNTPpTUVVSVNEhgqsfeyV9NKUfYPfRdvHMwHHafSwaZyeC4os/GwsLX+FyRDkKCyKytH3QJAyn6K4soLxdBE3iFK2t/fu3IYGicvF8LtKbY9hIL6z0Lv7K6aXhgNMwHXR00tl/IIZqEWCf++6JwCUrl4bTs216VoxZdi/PfvAlH/zrOR69ZRXTTVPZ9PdH+POXQr9cymMQQbCSftPBnZFu/Y7CxMqpfxxYssgounBoqaOrg+0S7/4e2T8WcWMNlQEkxbX29sWSnnsRrymub+CRqfu6acgOZv3rf+P5rxIxnHIbL/37Ve5bPZ1hdqaXr8fpT0VHD31zGxzsO2hrD+FAWNl5xkRT061qoyy/cujaYQioRfnpFnrqZ0VJllhYYWfXRENjOEejKjVl62z66OpooaKo+uLacCgIjd2fqDTC1EjxZ+d+TfhsDDAwM8dCmYurqYOu7ApqL3iLzLAw8RS+a+gvAPcKP65SdaIn/KTVeAfslGNammPuIX5sFH5S8ZcXPKY5VmbueDqcahDVN7Vl2MzreeSFd/jozRf5450rGGtdS/BX/+E/n24jre6y3NULo4ylZmEqdIm4dY0tlFbUnHv4jAGM3LC098f+EkeNGTr66JkZKCPrUFndSHZJ7XnKXj+KiRwwqQamZlibW2JemENBTBxZAwPIDqa7SWibOmrOEsGXiLU3k2ZPY7rQT60Z8Zw4dpC9+2IpNbJm2MKA02ZL/XXS115O0slwcrKLwHIYCydPYqqX7S/dW0Yi+d3yC9a1PjrrS0g5Fkq+3+2smdQvDc+Fnrk9I+Zcw+0zHemqryXtwB6Ol15K624/imEeGKP4dPqU15JqSim3EEFxwGT8bKGntZKkoM95/ds4mibfxaM3z2HQWJm/XQzMsHR0xNMZ6oWDTYhKofy8ndPa6empo/M0L6wMGKuMP0arim7NeEyn0yfW7xXiRPv1sqCLjecEZs9dwRTHdgqyDvLlhl2UtNmxYs6IS2ht0cfeZyoLF61iips+BRmx7A8KJqf+ghKjH3U3LVUFZCZnUFz743vydTeXEH18P4cik+l08GXR0qWsnOozpFcpeprqqK+roUmjwwwwdRrNonV/4sVXn+fOFeMwyssg8WSquC+a1dE3MMJAGTSloVPUGyFE+xdr6aWnW/lov/5IzLynsGTWdCabZBMbuoct34ZSbmyMqzKVtnadATrKo9n59WesTzFl9JW3cu0cP+wuPlTcfx9ND5lzqOmmBkqVcSkcpuLn54uT5VDNpw2+U4bj4mmFXmoMGakFVJ2rqbqrnXrxgLrdFjDefziOFoP3r2xzDoMmQpbaylLaW9UMHzccH0crEcLYMnz6CJxcLdFLiiQ1rZjajnMcs7Odut5uej2WMMHfB3tzccyuakqrW2jVJr6MbIYx4/r/47VXX+axKyfi2nqS8LhMKhSBa+vOVBczHHtC2ffdTkLjSmnpGnQcdSfVSUeJSCml7ocsYh/NBf3jpO3N7MPvqid4+Ma5+IoA5VSCpJOqyno6O39qCOuAxywXjG1VHN35LbsiksX9V531hDsq4jgYlkZVU+d5kihDxZbJa29jxjAHTDsi2bP+DT45asuqKeNwsTz9+n4uxL3NCOFkfhMd/QO2XTJ9DZkc+GwTR1vaULtP4uZHVzLJ1lgzG+/FcBy9AB9hh/RKA9m0LZGylu6za1N7KSf3HierWaUJ3p0nrMLfXGyjE0xgeD5twladTRstZWrUhiO5TfgBs8s+vosFvuP8NbM5xm58j/XhOTRqZ589ne7aNHbuPCkC7v4edHXZWacSa3rWDJ9/K8+++wn/fGwJvrpNRKwPIkN1juegPtc1ivUqSklVSsmw65jpZwA6OliPmsNiF6WXWCFBQQmcs4ORuo22RqXnnhuLl59jZuZLQEdHD0vP0fgqfqMnhv0hOefvHaLch5L2/rF6xPn3dFZw8osX+OeWBIbf+xyPrBjFkE3lL4qeCNrd8FlkT6vw01vXf8KRzGoGP/K+7naqs8PZF150GRJNuuiKumHiJPx7bx/1gwZyV4t72atSXtO/XBhgYuOG52wb6qqz2bphPSG5tQwujr1dzZRknOBwdOklXqPYkcZfDqKri9b6GvJNHLEatpAxQn8NDSOsnLzwn+OFYV0V9SfCSK4+xxn19giN2k6DuTsu/ssJ8Bi8f+UCz3Feojx3tDVQU1mNjb0r48Z5C91igq2rN6NmemBYXU5t5AnSas9xTM1bHe00Wnrj5r+Esco19Ypy31hNeX3/+vrGNvhMu4YHn32d1x6/iVm2dRSnBnMy59zjA15WDK1w9vNh+BhrWsvKyIpP/2G84dPp7u5CJa7D1M0L38nnGZrjsmCOlacjdsp4iyX5lCamkNtyrmfST4eqh7Yubck3E/fRxQF/o0ySwnawd18ylc2DnonQ6E3FSSTEJpBT+xOTaZjhOXEhc+ZMx103j8TjX/L599kYmgQwZ4TDT+vl+3PT10ZFwn72H4gjvcoG7zlrWbJ4Oj62l2Z0lTGlFfsjkUgunV9M4qi7W6nMOklwXAerbluE74WaJ3WMsXadwKK1y/DobaA6L5Bt25Opv0R7qYzVUNkw6BVRYYBb64pITsmkZ9QEll83CWWS6s6WOrJSRdDZoYeu8WmDdat7UHW00tispCb6HbS6p4vO5rofZtvTIIxQn6r73EJE6GJlUF1dEfT29jb3J6rUKuHU66ke3GIlRLn6vK/G9NLXp7wGo/06VHQtcBwxminLvLGoKSbv8F52RuZTd1q2pVelnE+bMlIdHV251J/2OqSBiQW2ti5YNdbRmJVNsVY4aHrzVRaTm12CZvirHnF+Xf3B0dBQhJj4KK+JDRZkQm0Onz6bBfOHoV8sHLFQBbpjlxLgdiG3puxv0H4sPJmw/DrW/WExI3SKidu1ni+3R5Bd3f5DS/pZ9HXRUJpDYpQIIHQs8FSyrZeMkjwuIn7/Jr7auJ/ERgemXXU7t92yigmDZlI9H11lKcRERxBf0a4peRpE3XAeO4uVC6cy2bWLHh0VA3GnsaUddhb2mFWXUpVbTJUymLxCTxu1xQXk5VfTpOQFRQHqU1796/91EEpPEaWcab8ORs+JEbNmM2HiMKrjDvLdoTxx4OFCLJ/d8lxfkkFSQR5lakMMDfRPDTIryk1LcxvtHUpJ6a9TfR3NNLeKZQOLhkC3KG9KQHIKpVeJ8upXK12qTuXtRrHrFuqFDWi5hPcsGprEubR3DqqDXdRlJRFX2YHZooVMnzIM+7MSg0rd7FGqwSCM8Jx0FXMmTMDZLIWIyEiS8xsGBW19NBVlkNamxuWquUwNcOPs4cVqxHWIOjoocd3XUkBqXDbtRuNYO3sKwx2VVK0RXlOvZU7AGBxMEwkJjyStqGlQENVHY0GqxuZ5XjOfqaOdsVSKZmsGxw4JYVbUfMb6ZsPmsvq6GXh62NEhCl2vUkhsRrLwivEMdzWnIHAj77/3ERsPhJIsyl95ZRVlxRnEHd/Gln256JvqY2beX/ZVyniYmnHSGjAdfxsPrVvFRLdB46T1VRAZnUtd/aU3pJxZhmwYveRKxnvbY5q1jS/eepdPNh/iRFoepRWVVJUVamYi3bJ5L8UWthiamgzZMSqPWmmwOeNwAv1hs7j1Cn8cLA3JOnySqsXzGTfChgt1NlR07OD9aOgV5Vz8p/zWLoLUvosI3vaqZA4cqsTR3QgDo0t38e2VKQR//TZvb0qky3w4y+57kQeX+2I+xIkZLMcu5w/jXTEzaOXI1+/wyc7jJBfU0Cwcn6qzhZqiFMK2bWBHqQveojwok32ajl3GIwuGYWugx5GtO4XN62Bwp53e6mRORBvgPPMxVky0xeCMWUIV2oRv7U9wXZjz+VADRi5+nAVeBuiV7OHff3+dz74/ysn0QsqrqqiqKCIrNphtX20mznE8bhpbAzl73+JQUcuZxzV1Y8HdD7JCWUdjb7XLT6O0okoogkGoWykMPUyojgczH7qRaRrXo4OuzwLuvXUctuLZp27dQFDx4NSW0CXNacRF6uIYcBt3zVW69pzGxW+KZpXOgWBWVw8z/0XcNd6Onm4Vxzd/wv6kMpS3YPsR97mvg8ZGcR7iQakTyrX6TGmwySfuYBTN4rxNzE7r0iF8s6q5hh+qs9hXn7gxjZVKDxplx+KBX/Q8xbHU7XQOunFCXgmLp/zWhDDdYjVhh1vKKLvgeFB6GJl7MXXNVfgZNlF/7D1efvUTNh+KIqWwjKqqSsoLM4kKDmRrYDgdw4drJ0AQT11XmTVP8ZUN/ccTOrG7s5by6ouJM30Mze1xmYZmuI3UrFz63bSSRGuhtjCN9IJ6Ud+V3uUdQsNqNtIibs65EleDEWVE/YMWNcDM1o8pK5bjo1NF6cH3eO3fX7D1aIyw7+IaKysozUsj4she9hyPp2uYz5mTCVyELuGMquqU8z2dXjqbyslKSqXQbSwzrlvIqLMSNufTsnpYOIxiysIbmeDURHnFEQ4ez9feowHUohzVUViYR93Iscy9YRreZ/niDrHvaqEptF+1qFVNVOenkFWgz/jJS1kt7JRyTEvnsUydfy3jHOspLj3G4dBCNBNP/4CarqZqCkqKaB4znjlrJ+OpHFNVS2HaSYKCi85Y38Dak/GLlrNkoZfQA3p0nuuVS+U5nUPrC5OhFC9N/NLSHyzQKbRRY22jxt+cQmwryt0prWaOy6gZzFo2E3dVPrlRxwhNqxvUqNpDQ3URZRV1jJg6laVzR3Jq+GGlfF20Amr8Ua/i/7Vfz48JDr7jGTtRaJCOHNJCAzlwPJvq9lNb9nV1ivrTrukR2tTeQX2rNvtn5oL/tInMmOBEY0IEm99/i4++309kai4lwm5WlOWRFnOQwMBIimrVODoOvb+rcoWKzx583/UcfJk5eyozRtpQmZ5HgbE5DvPH43mBlm/FFV/EHQ9pnR+NqpHSlENs+upr9idXYhawirvvuIHlE9y1tmoo9Amfn0HEwZ1sOxRNdlXrEJ6tRCI5nV8gmaYWQrKDmrw4jmzYxbGiMYzyNL2ocdE1MsPBYzQTxd/tNZWEb/qa7TH51J/+mtBFaKqtJvTAftLLWzTCXC0EVntdLjHHdxOUYcHyG+/n5un94zbpGxpja+OEVWMNZUf2sOHQSRKSU4iPOUlsein1XYrnbKGpPoaIY2FEpxTRIISEqrWRBmWsDeG129LyKW49U1Zo0DPC2MoKe9sW6mriCT1+krjEGKKikymsU8yWEB8djdTX1Yp4oIOO0qrTepEIkdXVTnNjvRCnrTS15JFbVH/eV2fOjR7WbpNYcOW9LPM3oSZjLx++/iZfbjvKifgk0hKjiIoIJzG/WtP63FBdTnT4ceIyi6lThKKpDe4ePkxxqCU/c5cw3Ds4ePQIQYcPcfBILFnFwskrCqy2kpLIUI4lZFMyhN5ffZ3N1AvHmF/cSmVtXX8i5Qf0sfOewKz5CxnrYMOIgKksWzjmNMcvUPfS3tJAU0N/O31boxBf5dW0nLEfXSx8pnP13X/iT3ctw60jlZ3vvsIrn3zPvohEskpqaGoVwkvVRUdbIzUlWSTHniQsPI16fXuGTRqPww8BsJqeVnHOzY1oZubvVdElhEBbl5JY0Kwgylg3HY3imlIiCNz4Nv9651vCq+1ZdNujPHH/7Sweay+exlCpJyU6iO3bD5FUJO6PktkQ19xZXyvul1CJHkKoTBiN+4BQtXBipKc7/taFJJ7czpaNuzl09DAHDwVx+HiyEB0t9CmaozSfzBNhhKUWUt3cH5WoWpqoFdfWTAONzdU0tnZrRMe5sPGbzoJpUxmjVmE5YgSjpo/C5RxaxtTcBjtTS0zyRBB84BD7wuJJTIwlKiaejJIW2nqUG1tGYXYEYSHRpBcr1yjqWJ24p0oOvFGUeBGsnaa96G1vEwKzUzMuSHlVHVUNzad6nxpZYGNnirlpGVlp0URFiTp2MpK4NFF/LyGZVpAcR3BkAvm17f0BfW8XjcWx7Nx1lHK9Mdx57Urm+A7MEtxHlyiDDaIcdFFJcVkR1SJaHNwjVk/Uv2tuuoorZ/lQEXuQrXsPk6BMo69Rdd00laZw4FgiuMzh3qsXE+BudQ7jnEZkhLieDFHGhQEQlpWetkoygrayL1EX39V3cdX8kThp85r6HlO58ZY1rJjmScmJfWzZd5xkEV12aY6porEkicAjSRh6L+KBqxcy2tnih2OWHdnJ1l1BROVV0SrKt3I5Su/d8rJm+izHMW/CKJw1s5ZaMXb5HVy3dA7DrBuI+v5f/OUvT/PCa2/yznvv8/abL/HiPz8j2SaA0X5uaGbaV8ZJ29k/Tlqz9Rzue+J2lo11weL0iiHOry5H2JbaNtp6h+amOuprqFSJOkkN1TUNtKlOzfZoM341912/mGmeFtSc2MA/nn6GZ/7xT/7z7nu8//Yb/OPFl/gy241Z47xxsBjK67t9dJQXk9/VRUFVLa2d3YN8miszr72BST52mDjN4K7VyuQLpmc+U1UzVRXldGsDrYLCCho7BvXiUourEUFjoTiOslZhtmJbm+lQfI+41lOfduHvyslPDGfHJ/9iW5MPHubGyrBAGrqbxbMr7VE6VwjaaWnVjk02cM49XbTWlpIl7M3GD/7Bn189SKPvTK568G+89MASfJVeY9pVL4r5eNb8+RYWjnfDsCSQ1//8DC+//gGff/Mt3379OR+88W/e3lbJtGtm4Gpi2H9PDEax4qlHWDPdG8vo7/nom6MklrYIP6ecoLB5NVmEf72LjLFLue+Zq5lgaag9n17ahD6oVRqhyCUlo5z2c/XGU3dTXVUhrle5u3GkZYkg8xyvwBr4r+Dph5YwwcWUlhNf8PSjj/PMS6/z9vvv8/67b/LKX/7Ox9GOrLtyDMYDs4Z2buej/2wiJK2MJlFXNPR2UlEgglZjR8bdMp8R55gILjpwO4dTKoQd1C7oaaU8eQ//+fwEXosf5t+3Tf1hDEodHWfm3/cCf5gzDJuCbXz4n73EC7/bf6ki0K8rJHbvVk6oFnH38/cw10mzmUDcl65qKkqUP8XfZRVUn+6axTKVEDCKhFGGBkjLKaRT2afyCqTNZNa+cAuzvc3pjPmEfzz/Ll/vO0ZMUiYZSXGEHQoT56AZiZVuVZzQWuHEp1XSqWuDg6etWNZB8M5P2S3sfnJ6ErHhEcRn19ChVC/lFcCEExw9GkZMZg1d4rn0tpSLMipunQjWy8qrzpgsSBmXsb2hXngnpQznklfYdKr3lq4uhtY2jDXqEjoqnCMiIExKiiYiIp7Ciwy3q2dsgd+C23ly7USchVeP2fQqjzzyZ1584y3ef+9d3n7jn7z05leEqudx3VRto5quuDcWdjg5dNLemkjw4RPEp8YTGa4EoufQf2egh6GJMz5jh2PUVE/Itq9Yv+sgx44d4ciBXRyPSaKwTVcEwqI+tqQRciRc6M9iGkVZ7elup76mQuxDJWyGKPOnN8QKXdDT0YKQQEqWjq6cUsq0z9nAwpGxi27l4VXjsOsqJ3T9yzz62F/4+xtvi2t8h/+8/hqvfrSDJP3ZXBlw/jdGzkWL0CInjhzmZF5d/0D74jxUTaUkhu1n94kGZq1cx0NLR2kTdErCsJNmUd6aFRvUlkd2Qd1ZWlbH3JGR867iwZtnY9NZzv4tXxOYUESj0uNZk5CtJCX2BFEFBqxc+wduneF1qqHuB+qErwol6EgWFUKTa7xldyvVGZEc2x9BieMqbrhjLZMc+9fWtXRhzMKrhI+YgXlLIYHfb2B/UrGoz8oxe+lqKichOpL4MjNWr72FG6Z6/HDMloJswjZ/w87oHKpauvqTJ6pWGqsrqeuww89/GtOEXuhHxCBtQi/U10NrK+1lNZrhEk6hh7GpFZY21jSIShsXFkxUXALR0fFCHzVqkpY9QmvUi7JTL+KR1vYKahvFMfs3xthpFPNX3sQfFrrSXhzMjq07iBb3WKOthY5prUwnOiqWUt1xXC3807zhA+95CH8m9G9Lo2IJxHm119F0egazT9QtEZu0KcnJuiaahW7WzD91ESw9JrJsxfWsDrCnLiWI9e+9yadbgwiLTSZJxB0nTkQQV1ClGc+5qbSIxPBQYjOKqW0zwmPcUq5cex3TvXQoitrEGy88yf+9+Br/eed93nnrX7z6z3fYU6jGYcIUfIb0uoqwdU11VIhrzG1uobZBxIVnuABrfJVJtuZMEnXblzkz57JorBtnqAFlXO36apq1MxHXintRUTuokVLY8Xrhaxrr+41PbV0jlWK9IXcS7+mgsa6KFm2vVVWniE3aO4UW1e5A1IFuETvVFKdx8sBm3nvl33wTVo3F5Bt56P8e4dYrAoRf7V91aLRScGA9//rjPdz+2Ot8F5Knnc1UIpEMFb0XBdq/fwaE42utJj34OzZs3si3Gw5TIqyXvrGOEPe1wvD7YnNWM1iPCIoKSdgRyP6QYwTHZFOj7qStqYCsgga6hQfrMndm2NkbalEJQ59C6JeBpBoY4GRlK2xPJ7XFKSSnpJIqRGB0XCF6E2/n8ftXMlwrcpXBt42FsKzJTCEzJ4bwqEzqGls0Y4xh4c1wJ5UQS5HUCgfWY+iIk7s3Tk1B7BVCaP/BFIqqulHXttCpb4hOpxkO3tanercJ8aWr0yVEfzInUotJEuKotVcHQyMfpk62oj4jmG27drI/MIjc8l50RECltjJDT98I47Z8wnfsYs+hA4TkVNDao4xh04ehXh/61q44mA0xxDEwx9rVA29nXboqKihKj+L40VCSRABXV11MdZ2SQOmhtrABXQ8vzETQa25lj5PYxlYEZcbK9HNthcIBxhNx9CAR6SLAq1Zh4j2D+VNMqEkNI6fZE28bE3TMrHFwdMXd5qzmQg29bdXkJkdwcP8hDu3cz/aIMmq6elC3tAlxoIulk13/uEKGppjoNmt6FZlOuJVblvvQ/+ZbJw15acQdPMzBYLGPw8HkVSnjnvSIdbtEXCjEZKcelo62mGhujxCnth6MGjOWkY6GdNcXkRoXTWRCGgVF+eTn5lIkAtbcwhIKcrLJLalH330i8xZOZqDDVUddNqkxQRw5eIyDh44SXiiCAlFmjER57FEmysjKICM9lZRU8UmI5sTRwxwR5azNcQqr1z3EI3dfz9wRNpc0Xkx3TQ7RIfsIisyiqrqJ2ooCsjMySRbnHp3Zis3kldxw1SyGW2v3Ku6XmZGK9qZiEqMiCAkJJjYrj4I6A9wmzWOKex15Gdk0qtxwtjRGz9IBV1tjOvKTOLpzK1uOhZFYUYlKXJe6xwQLc0us7Cw5q0OKgSUWhtXk1+jhOXkNVy8Zjc05LszE2Ii++gYq8xOJToghJbOc+oZaatoN8fR2Fc+hkNTcdBr7VOja+jPcvpPGrAPs2HKE0PgyITh7hWDtE8GZMWaW+iJAEPVn7y52igAsvrSOyh59dNVdQnjaYm1jh4kIzPW7yyguFYF3XAFFNTWiTJszbNQIRvrZYTS4I8sZdFEWt48jESk09VljbWKCWgjK4rxMEaCnCZEXQkS+KZOuu52bVwbgprwOqaojJ+oEh3d+z/aQGHJqa2hQEk+qNjAV+7C2FvVIm80QkszGczjuyvRKDflkZuVTUVlLbXkhxUWFZCZGk1DpyKxrb+WqOcNxEDbyB+oz2bYvmLT8XsyEXTA1UdFUkktmarr4xBIckkL7qCu5fd2VTBF259SreIbY+YzA3doAdX0u6Zn5VFbVUVMmjllcREZCJAk17iy86TZWz/DBduAGdRQRfeAgB6KSNcKztryI3ExxrGRhF08WCtF2HTdePYsRDiaahIaupRcjfO3QVbULEd5OY1kOSdEniEnMobzFELeF9/DgH5YxztVCPM92ysK+4a03v+Z4ZjU2Uxcy2VWX+uIMUkXd+eGTFEvQd+tJt5jIzAnDcTQ/O1w6RROFx0I4uP1bvj6RSmWr0oPGFJ2uOoxsXLG1NMPAwIpho4W/UQv72S7EaWMpmXFRRMQlkVfRjonnFTz02B9YMMLhomOaNeYHcSz0pAiEhU8LTyWzoReD3mbKC/qwcLfFwkSUS7Gevp09ZvlhlIy4hTuvmYqPqKf95quChKBgEUgcYfu2zURlN6K8yVrZ1IuxbouoL2qsPHWpPh5MWEwEe7/bwM7EQlpUvSLYUdHb1yrsdDbpqcKnJSdrP9GEHwsi8NtP+WhDLlPueZgV45zRr4nn4NETnDyiJNdjyBXBnlKrTGx7hZ8sJDcrjbQ0cb8TlHseTujBXexL7cBhygrWPf4X/njbXHyUxNUF685g9LDyG8dYa31R/9robsgjTtjpfYeOE5VcTKOeNyv/+CduneKE8Wm9y4xcxzPBQ5/W5grS4xIpVnpjVOSTVVRKaWokR+M6mPfgX7hnoQemyiueHSWc3HuAg7s2sSW6gJbeBmra9DDrraPLygd3KyPhd8WORf3Zvvcggdu+JSSlWty/fBEIWqIvAlEjF38cTHU1vUH6McMjYDrOfcLeNrcLnVJKingGEdGJ5JS0YeC2iEdeeZKlXuJZarcpjfiALYHZZIhy0FUh7mmOKMvCH0QfOEyS90r+74lbmWKvr+nFpgQuKdveZEcauDu7YqQkBxpLSE5MJDUnk9h9+wjrXMDT/xHH8DwtjBMnqG87ionjzemrqiYrJo3sNqFGqsrIziumOCdBnGMJPute5E9XD9ckL9TqXuGXt7BH7HPLt+FkNYrd1HdjZKlDncpCaIFOMr/fy/7Du4X9EvVGrUONSh97/RZMXUdrtIWt33jGmvdoZhUtTzrK7oPhZJc30VRZRkF2OxZWZQSn9DJyvCWGfUYYmTjg6z8SO9N6UT4LKYo+xPHEWpo6GmisakTPby4TDIPZH1wl7GAXajMr/ObOxCRN0T972LgpmTIRM1a3qbEz7qRCadDSLSdc6ISD+3exI75AeP9W8bHCpE8fOy83LA110BG2SzcjhhhhR2KzK+hQqWgzmcLKOc6ndNi50NHD0MyRkWO8MBB+vLGjk5aKLOJPnCAyJUf4KnP8Zt7G04+vZeRAQlRHlBdRbnvr4onMLCFanFO7Tg+qLk/mLx95kVdadTS6ztzEgoa0NLISQ9kn/Fl2QSni9uA951rmO1VweF8m6uHumBgaYib8qJleLUH7dnNgz27ihQ5W67TSoyM0YnsvJvaG1KdsZ0/gUQ4ciCa3Uo1Oczc6tib0mDvia2uOqaUTfsPd0G0Uz0Jjo8V9iowkOr2Ahh57xs6/jSfuX4Hf2R3Mz0EvbbVCm+zbQlS5Ic629ugLXdpYWUBKimKLEog+kUGj55U8/OQNTHEStlsZf7YknRChZfce2MfRrHLalFckO/ow0utBz9oNxx+0rC7Glva4+fpg3VWh6R2YIbRvU30NZQU5on5lkZRWQu+wq7nn7hWMtj7thnfWk50QyuagbAyMHLCw6aOntYZCcV6paSkkxMSQVGPJzNsfYt3CYZj+UO/1MLF2xM3HE8vOckrzs8jKE8cUuri0UBxT1Oek9Er0R63lznVLGWWlPWZPE+XpJwjce4zE8kpaG6ooEueXmZpIfFwKJd0eLLppHVdMsEO/rYb8ZKH1d2zn4MFgCsp70FEJ3WtpjqGJNS52puIs9EQsgrDzVaSeSKYwPZcyocv1LSwZFuCPUXkqx7fvYHvQIUKFdu/R7aFXbYm5oTHWim4W8Ye1gzseHvaohd0tEno2v6SJaqUHYn4u2enJpFXo4r3wFtatmoyTpnGrgby0KLbv3E7QkRByKhvo0+umt8cQQx3lrYJ68mJ2s3vPEY6GZ1Fe1Ytet7iv1haYWNrhanEBVatnhr2rKy6OxnTVV4q4I4bQ4xHE5VZQVVUkfHUjbaUttBQ30evkIjSILka2Dji6uGBv54SLhxv2Zorfa6W1vowcpeE/Npm8ShXmo6/g2j/cxsqJzhftTdlRk05i9BGO7N3PLqHfg4ta6OoWcWVNh4gYzbFxEhpBrKdnZo6J0A8tBs6MW3EtS8dqNXt3I8XJsUQcETHHwZ1CJyZTKULDpnZhv1Wdotgpk5iI+KM8neij+9mza4dYJ43aDmUdZczFDtrrhO/WF8dyMD0zQTdAdwOFQidHiNhh/4EdHI1Mo7pVnJORGerudmqKs8lMTxP6SDxDUb6iTx7jwMEo8prtmbD8dh5+9F6um+eP06lCPUSEfhJaI+S48AG9zkyaM5tJY9yxuJDkkkgkZ6CjVkZB/dlQWo3TOfzZq2xJ0S7SYuPqw/VPvIrQxYNQEiUn2fHcJxzRLjkDW3f8rn+MlxactaGWFiFuN/HSnAc4NHYq//fGF/hWHOBoTAIVbaY4+05ixpxFLJjpj/0gC9wrgufC6EC+2xFGVqsBwyZdwfIrlzDDS5+6vCh2frOLRJMJXLVmFdMdKjmx/RW+DtVu/ANO+I67ngf/Ohs37RINKhFspYWyZVsQqY2OTF++kquWTcK2vYCoA+v5YG+2dkUt1t6MW3wlqx0K2PrxPnK0iwew9hnPinWPsWbUOZq8L0BflxDFGZEcPnic2JxqVGZ+TF68mCXTPOnNCudAcDnuS5Yze8IIXLSvZGno7aAmP57DO/cSklqNoe8EllyxinmTfdGvjCYs5CA5Jku5Yk4Aw50UUXB+VNVpHN27kW+OKNNbno49/jNXc8vdy/DTXlZfQz7J+WXUmE9g6ciB5idh/IXD2v75HmK1S87EkbFz13DT7YvxHXx7+ro0AVpSdBSJwinllVRQI5yiiZUtruKaxgZMY+aUEXgJIXo6jbkH2LP9Gw4kahecDyNz7Bzd8PPxY9jYiYwfOwwPm/6kw6XSWZpMQloCKYWt1BVkUyiCqOZOU2w9xzBj2RIWTvEXAeMgt9zTQklKBAd2HSKquA270TO5Yvkypvm7ocoJ5FBUJh3OS1g8bRQetsbodRRz4vttbD8YQ7l2F/24M2PN9Vx79bRzD77akMnhmEr0HEcyd4LLucWBQFWdwYmDgewNT6PZyJ0JC1ezYv4Ehlm3kX54F9tC8tAZuYhrlk3HvnanqB/7iRxc2L3mcsNNs3FPOs5eIR4G/zxp1R1cu/oKhimDtrWWCjGzlx2HM+iwHceKtaIsj/MYgjBoJvqTh3jm3xtpWvQST105Eb2CKEJTi6jXs8Fn+GQWLF3EVHEff0gctuVw6PPNBJ7MQJn37nSGLb2DW1cvZLTDYKHZRUN+ClHhxwmPyqC4vgMTJ19GTlnAsvlTGelmdfbEDDk7uemhF9hyZDTPfnQr013LSDoSR25NH2buI5gwbzGL54zB67zlrIv63EQiw46LgFsZgL8TU5fhjJqykCsWTMHP2eLMY7ZkcOR4DhXledRUFpNZJIL2zh6sXMYxZdEKls4R5c767NkCO2uyiQk9RkiUOLeKVowdA5i6aLlmfTergZ5NtcR9/R6bQrMpH8K8HqPW/pG7rpiEh9WFHmApYX9/n+8zi856DovueZFrZovgfsDWd9aQfiKYY+Enic+rosPclUlTl7By2SyGO4ug5oKBcD/Fx5/lna35lJ81cNVSHnj1Gmb4nGpIqY/dwEmDRcwa6YL1QIK0KZFv//E5x8vrzjMg8xU88vpkmt/5jF2lNaJkXirTueOlO5kvKkR34lc8+2kINU0X6ylsh/dIBzx8JjF6/DgC/D3E+eppE0A/nubsEPYdPERkrHg2Jo6MmbSIJasWMdnVjPMNedZelkD4seMcj46nuK6XPodhTBwzi6VrFjJe8S0DJ9UQxYd/+ogT7WdPKDHpvv/w+DxnDJWV8wK58x9b6BSB62Cu/dt61o4SZXPwufQ2kX5sN4fD44nKqRIBrysBU5ay6ppljLU9c+KDnD1vEN1lS3VuEYXJ2VQrC61cmTB1Wf/6NqevXcmmG1257Xs1a7/N4J/2kew4KnxRaZOQDsOZNn4Oy8Q2Y847eZxaBMlpHN8XzvHYEGVuEXRs3Bk7QWx3xVKmeJ3Khqh7u8nYsY6XdmgXDKCrj+GsB/nPPVYcu+NlBv+s9NK/8fmvuNK3/7syy3lFQhC794WQmFVFu+soFs1fxRXzR6MT/xGvHjblijVLmDvJVzsLr9IDqYH0vV/zZVAMNR2u+C8Sge81SxllpqIpYy/vfLSH1hGrue7GNUy0rCL4gz/zZbzmcKcwFoHntU/x79HFfPDsV5zpeg0xs57DA6/dyxRxr9Q9nTRmHuTL9UEk9dgzfcG13LQmALsh1GcN6h666gqIDDrIsZgUcmo6MfEYw+L5K1gyfzxOg31gbxfNBZFs2riDyGJzApas4sarheYbYo+Qvq4WyuMD2bjlOKlNarymrWDVihXM9OijJjuCzZtzcV26mHmTRuKoL/RO1A7+8lGQdusBTHHwWMStD8+k48izfDJYMNu64XvdY7y80LP/e5+K1socIo8EcTwunYKGHiy9x7N4wRUsnDWa08bTvwgqqjP28/5Da/mociq3v/g+16oj2X8ihdymPizEfZs1fT4LFk45Ne5wdxPFseL5vLuLLO2iASw9/Fl2+5NcO2bw+3T9PcIyTwpbEB5Nam4d3aZWeAhbMGvufOZP9Dr7tfmGHAK/fInVf4pmxtIneeGfLpQeCCZWaNYuC1eGT57F/EVzmDLc7jxJ1l46GkrJjDzOsYgY0vPr6TW3wXPsbObMncfs8R5nHlNVS0FGIqGRRXS25pNbWElpXbuQgY7iWEtZtHQWk3xtNcfqrs0ieO+3ok7k9W87gP1Ipl15C/dfMULbE7WT+oIEjn2/i9A8Fe6zV7Jy5TzGWgqbJLTNhm+PcKZyPls3K8PINFRkkRB8hFChM7KquzC19mDU9JksmD+DAC+7U76uqZCj+7fx+Z447YIB+nX0irl9ZBz8ksDB9dNvGsuuu5U7A7Td+y6EiH9KM6I5dvQwsZnC75p4M37uYpbN8UMvLozQsHLMli1lzpThuFmeqZm6WyrIjg/jeMgJUgqq6DHxZPT0ZSxePJXR7pZDaqCuz9rFjm1bOJqqXfADo1lwzXVcd73/D2+9tBWeJK2mBzPvmYxx0KocoZMjt21j2/7BOnmAsSy+cipOPSkEH4w9zzrjWHLTday9agTnHDimvZCwzVvZcSReeIkLY27vjIOX0HDD/ZkwfjzD3Oz4KZOEtxSGs3PzIbIMxnPVtcuY4nOuNyMkEsn5+JmTaf8NTkumBczhHxvDWDdG+5NEIpGck9OSaYvf5F9PP8gS30vqK//zcVoy7aXvnufBG0ef+bqzRCL5jXBaMm1TBdtv7h9mQiL57XBaMq1qJg++F8g/Fv+YcWV/Bk5Lps1Z/Q8+23MDo7Q/SSQSiUTycyCTzxKJRCKRSCQSiUQikUgkEskQkck0iUQikUgkEolEIpFIJBKJZIj8zyXT1N0q2urrNOOWdKm6qaprGDRji0QikZyJMpZgXXW7ZraqhoZGGlrbfx12Q91DU0MtnR3KAGP1NDS10HEJMxpLJJJfD72tFZQqM2sKSksraBs82JtE8itH3auio7GOmhqhsbtUVFbX8etwSX10dbbSVK+MnNlJZ1cN9XJaQolEIpH8zPzMs3n+gvR0UFuYxJ69QYTu383upCIa1bq09ehiptuJ2sodp9MH1JdIJBKVMlNVFOGHd7NjazDRWbWUdeqgj4p2Q1MsrayxMf7vTGvUUhpJ5IkQ9u1SZnZKpaa5jl4DA9RtakysrbGyMj17sgKJRPLrQ5noZechwsK28fXnsZSKRWUt4GLSRqG+C2MchjSNokTy36Ovi+ayTCIC93M4KJDdgVmU9UJzZx9mxn20GNvjYz3kWQwuK6rWCnLjA9l7IJhDB/aTWtJAn24HvX0m6PfqYunicPZkBRKJRCKRXAb+dyYgUKbEjtjO858d1S44hbmLL0vv+gs3jhs8W5BEIvld05bL4S83sycijRrtoh+YchX3X7eShd7KNKG/PBXR7/Ll1hOkaHuynMKP5Xev48r5I7D/CTM4SSSSX4j6CN56+H2iziW3bniJ764Zrv0ikfxK6WmmLP4Qn/9nOxnaRT/g4M3o6x/h+Xnu2gW/LG2VCRzf9i82hGsX/IA13uOWc/tjV+M/MBm8RCKRSCSXkf/B2TwlEolEIpFIJBKJRCKRSCSSnwf5kpBEIpFIJBKJRCKRSCQSiUQyRGQyTSKRSCQSiUQikUgkEolEIhkiMpkmkUgkEolEIpFIJBKJRCKRDBGZTJNIJBKJRCKRSCQSiUQikUiGiEymSSQSiUQikUgkEolEIpFIJENEJtMkEolEIpFIJBKJRCKRSCSSISKTaRKJRCKRSCQSiUQikUgkEskQkck0iUQikUgkEolEIpFIJBKJZIjIZJpEIpFIJBKJRCKRSCQSiUQyRGQyTSKRSCQSiUQikUgkEolEIhkiMpkmkUgkEolEIpFIJBKJRCKRDBGZTJNIJBKJRCKRSCQSiUQikUiGiEymSSQSiUQikUgkEolEIpFIJENEJtMkEolEIpFIJBKJRCKRSCSSISKTaRKJRCKRSCQSiUQikUgkEskQkck0iUQikUgkEolEIpFIJBKJZIjIZJpEIpFIJBKJRCKRSCQSiUQyRGQyTSKRSCQSiUQikUgkEolEIhkiMpkmkUgkEolEIpFIJBKJRCKRDBGZTJNIJBKJRCKRSCQSiUQikUiGiEymSSQSiUQikUgkEolEIpFIJENEJtMkEolEIpFIJBKJRCKRSCSSISKTaRKJRCKRSCQSiUQikUgkEskQkck0iUQikUgkEolEIpFIJBKJZIjIZJpEIpFIJBKJRCKRSCQSiUQyRGQyTSKRSCQSiUQikUgkEolEIhkiMpkmkUgkEolEIpFIJBKJRCKRDBGZTJNIJBKJRCKRSCQSiUQikUiGiEymSSQSiUQikUgkEolEIpFIJENEJtMkEolEIpFIJBKJRCKRSCSSISKTaRKJRCKRSCQSiUQikUgkEskQ0VELtH9LJBKJRCL5H6OtrY2amhra29vp7u7WLpVIJJeKnp4epqam2NnZYWVlpV0qkUh+D3R0dFBXV0dzczM9PT3IEFoi+XEovtTIyAhPT0/N/79lZDJNIpFIJJL/YdLS0vjuu+9oaGigr69PBgASyY9AR0cHXV1dTRJt5cqVzJ49W/uLRCL5PZCTk8OBAwfIzs6WvlQi+QkovlRfX58//elPeHh4aJf+NvlFkmnS4EgklwdFzA98JBKJZCgcOXKEP//5zwQEBDBu3DgMDAy0v0gkkqHS29tLUVERsbGx3Hvvvaxbt077i0Qi+T0QERHBJ598gkqlYuLEiZpeqhKJ5NIpKCggKCiIzZs3a3Tpb5mfPZmmdInNzMzU/C9fL5FIfjyGhobY2Njg6uqKpaWldqlEIpFcmMDAQO6//37++te/cscdd2BmZqb9RSKRDJWuri6OHTvGCy+8wJ133smDDz6o/UUikfweUOr/Rx99pAn+lfrv4OCg/UUikVwKSiLtgQceYOvWrUyePFm79LfJz55MU1rxnn/+eTo7OzXvl0skkh+H0ptkxIgRrF27VtMiJpFIJENBJtMkkp+OTKZJJL9vZDJNIrk8yGTaJZCamsr111/PggULGDVqlHapRCK5FJRenenp6ZoennfddRdLly7V/iKRSCQXRibTJJKfjkymSSS/b2QyTSK5PMhk2iWQkJDAmjVreP3117npppu0SyUSyaWgzMa3YcMGzdhHyjgtq1ev1v4ikUgkF0Ym0ySSn45Mpkkkv29kMk0iuTz8LyXTdLX/SyQSiUQikUgkEolEIpFIJJKLIJNpEolEIpFIJBKJRCKRSCQSyRCRyTSJRCKRSCQSiUQikUgkEolkiMhkmkQikUgkEolEIpFIJBKJRDJEZDJNIpFIJBKJRCKRSCQSiUQiGSIymSaRSCQSiUQikUgkEolEIpEMEZlMk0gkEolEIpFIJBKJRCKRSIaITKZJJBKJRCKRSCQSiUQikUgkQ0RHLdD+/bOQkJDAmjVreP3117npppu0SyUSyaXQ1tbGhg0bOHLkCOvWrWP16tXaXyQSieTCBAYGcv/99/PXv/6VO+64AzMzM+0v/3t0dnbS3NxMdXW15u8BiWNjY4OzszPGxsbo6+trlv0aUc5X+TQ0NNDV1YW5uTmGhob09vZSW1ur+W5hYYGBgQE6Ojrarc5PX1+f5j7U1dVprt3S0lJz/co9UvyKsi8TExPNMSQXRnkex44d44UXXuDOO+/kwQcf1P7y+0EpmyqVivb2dlpaWjRlSLkvSvlUyprkfwvFxujp6Wnsg2InFHuh+A/Flujq/v76Yyj1/6OPPmLcuHGa+u/g4KD9RXIuFHuh2IrGxkaNrTAyMsLW1hZTU1NNuRpAsSmKPVH8lGJHFH9tZWWlWf9ifk5ZX9le8WnK34qP+ynlU9mHcs7KuSh+VtmfUvZPP1/JTycoKIgHHniArVu3MnnyZO3S3yYymfY/gPIIlco/IGiUyq98ZMX/30Em0yQSyY/l95BMGwjyCwsLSUpKIiwsTJNQG/hNCX6WLl2Kr6+vRqj/WhNqii/v6enh+PHjlJWVERAQgJOTkyZQOHDgAGPHjmXChAnY29sPyccribTi4mKNcPX29taIViUgTk9PJy8vj1GjRuHp6YmdnZ12C8n5+L0n05Sy2draSkVFBbm5ueTn51NaWqpJ8irlTCm3kv8tFBujJDSUhIKrqys+Pj74+flpbIaS7FBijd8TMpk2dBS/q8Sk2dnZREREaP53cXFh7ty5jBw5UtMwpCS8lPWqqqpITEzUxDiKHZk9ezbTp0/XrH+xMqbYHsXXx8TE0N3dzZQpU/Dw8NAkgIfS4DQYxc7n5ORw+PBhTeJP8ZmKblASapLLh0ymXQIymfbzowgcJeuvVH4l6aK0vru5uWkcneR/A5lMk0gkP5bfQzJNSaQpSaP4+HjNRwkCFTGtCHHlN0XqKOJdEekjRozQJI9+jND+uRloGNu2bZsm2aUEHl5eXpqExddff83MmTNZuHChJsgYSkJQ8R1KEKP4D39/f5YsWaJJxCmJOiUpogQdSkCoBMuSC/N7T6YpZUnR9ErQW1BQoCl/Sg8QpY4pQfGvsT5JfjqKTVKSFIodVf5XGiOUJL+S1Fdijd8TMpk2dBSfq5QXxR/v27dP04CjlJdFixYxbdo0HB0dNX5aKV9Kcv7o0aOaBJZiSxYvXqz5KMnbi/WaVuxSSUmJJj5SbLTi4xQfrySBL7V3mnLOSnJOsXEbN27UNGQp+1Oet6IfJJcPmUy7BGQy7fwot15xTsrrHEprn4Ii8JVW49NFspLZV7q/1tfXa7qeKo5M+QxkyRXjobTGKy3xyn4mTpzI6NGjNYbqfAwIdmW/yv+KkFaO+2O7xZ7OgAFVWtKV/xUDNCC4JD8OmUz7aShlUinnyn1U6ohSj5S6p7SA/cwmUPJfQAnqFFumiCnldQLFBimfobwy8L/I/3oyTfFnir9RAp3k5GSNX7vhhhs0ySPFT3Z0dBAeHs7BgwcZP368puVa6eGllBHFJiivcyjbKzZBWab0wLC2ttaUF8WHKesoDVZK2VHWUdZVUHymsu7AKyCKLVH2payrrKN8V8qf4osH/Loi1JXzU/alJLWU4yl2SLFLA8dXttmxY4cmwFCSaUrDmJL82rRpk8a/z58/nzFjxmiOq2yjtMor56jYOGW/ij9XNILyf01NjSYw+P777xk2bJgmkFF6oynnppyLso6yH8U/K9eq6AzlGpT9KsuU81YCxgG9oWyjnKvyGbCryv1V7pVyTOWaBpIr/2so1/p7TKYp9UspX0pPNCUAUoJi5RkrAZCSVFF6PCrlSCkDkv8tBmyTknhPS0vTJEaUv93d3TV2SCkDv6ceajKZNnQU/zCQTDt06JDGhyk+QumVpjQKKf5IKTeKXVXKlpJMy8jI0Gi1SZMmaRq+FNui+DQlTlY+iq9RYmIlplTKnbI/5TjKvgcn0xQfNPC6puJzFTum+GDFpymxtqKDBvy24q8V3zfgt4uKiti/f7+msWkgmaYcU7GDSsPWgP9TbJ7Se03RCz+2J9zvFZlMuwRkMu3cKLddMQhK19aQkBCNIVEqvpKJV8S+YiCUSqmspxgBRQwr6yliRhHXc+bM0WTslW2ampo0y5WeaYpxUAIFxVBcSNgoBkfpnq+8DqM4RmUb5bjKNj9VBCsGSzF6KSkpmqBi+PDhGscre8r9eBQDLpNpPw5FDCr3T3G2SnCq9PZQ/lbK5oBjlvxvodgwRdgodlBJdiiibcAOKUJKEVC/J/7Xk2lKgmcg2aTUZyXhNHXq1DNavhUfqfg7JfGklId58+ZpbIMi3pWGKMV/Kn5LWX/FihWalnNlPcVOKP45NDRUc98Usa2sq9gORbBfe+21mteelHKlLFP8dOz/s3cf4HYV57nHh957EYgmikQvAgSi926DjU3sYMclccM3uXZCbuISGztuyTVxHF9fE+N6XWIwNr1XgRBCIIGEhKhCiA4SvRfbl99Yo5ycSHCEyjlnn/f/POvZe68ya62995rv+975Zmb8+LqP87ag0zWxgewuwY9Tf9hhh1XhzDnYyzYmmu4tfjP1laDDdbn28847r2ap8QHe+c531nM+8sgjNQiRKSQY4DO4Ls7pyJEj63Vo7ZcZQOgSoBx55JFVZHMt7D5fghiidf/666+vC79D+bYJJnwXgomW/ed6XbtA5aGHHqrH+86IdbLjm/jWSQxEMc3/if2cMmVK/W/7/6tT2/MliPQ/8H9eUN8x9D38/upJdazf3vOuziSoqiuJqeoZotJA+P0jpvUc/50mpvne/IfYELaBjfMdijmbjWU3xaNsIH9NHSMD2/Ybbrih6gnsPDvLt9Mgxp7JdmM72cEmpumWKTb2X73uuuuqLdVApK5ir9lkjUpsuvLE2M4hi1udRuRzjHMYHsK1Klt5GuYksHguxOruxbWqFyOo9ZxOEtOW+tLrzH6/SODo/epXvyqHHnpo/VOG/4SjzTB5gDkqDJWK2cLpZphURioSlYj+4JxdaafGK+gaKNiPM8txbw/0G6FS8duowIgLjqHAq0AWtCJwLQIaFScHiwPPKX+zawrzhkESgAkIOS9adkLPEGD67hhUhlBgwKAzmJ41z5NnKUvnLOocTo76Rwui54Z4oF7Siuj3H0gODweROEOE0TWn0+piwg/bOHbs2Pr7uk//A46635ktbc+8dZ57/w9CE5FKvcDmsqEgXrGrnHQt2+yk8cocax//L3aZc618dQhbzMG2LyeeTW2t1ex8m/xAAxp7r1wOuu2u//bbb6+ilPMKJFybuoutZ5c5/Mr3WeY5cYsY5nzKFBS4L+dQnv+9Vn3/eddDBHMNjiWQaXl3Dse4Jz4BwZA/IEiwr+/NfbomAZDvyDUSHwUuAp32PAlmnKtdh6Cl03B/RMtRo0bNEWw7Hf8FAey4cePKhAkTagCqMZcIK6D12/vvJ4DsTPyuft+udZ96gH/f6ih1hXX26XQ8/0Qfdb7nv9MaphY2bAeBjP1hE9gy9on9ZSf8tzRw2YdN9H9ja9hO3zEbS7jlw6mLrPc/VC7b5L11YiT2UR3N7rGrfitxs9ja+fgEjmPr+IbWgWgmxmZH/Y/9x/2/2WT7aJxi55q/0Bqa/Pau2TW6D/Wha0+jQs/ga/BL9SLgL/VnkpnWS/jaVQwqmLPPPrvccccd9SH00GrdFfB4OFUQggQKru/SZwouNV43jxYsMmgecJUE50Yl1Rx5qEA89PZTsagovNe6zCHXQi4AcawyVFLNOVaGCkZ5Kg+VnetXhv0sHH37qXAsaNfjGNu8d63u20LUaM63Sk5rhIo2/HeSmTb/+M/7DwpctYqpuP2HiZGE/ZYt6RkKnUWrX9SdxAaBoM+ECHUdMdp/QR07EOj0zDSOOFsmc8tv+573vKf+vl3tSXN11Atgv9heQqP/gTqVE01kkuHmO+KzsMsytX784x+Xo446quy///7VPsv20prNAX//+99fbW5rWecYHnPMMdXJ5qirf7SEW+8/qWWbTVSXc8oJvdYRqjjvzqOLiTqLXdbQxR4bM00WiKw6NpN4yHewnT8gqHV+34Nj3/e+99VtgpU2ZprMMU4/Qcj1EkYEH76Pn/zkJ3WbcxL6BDDtugSOWvwFKBpI+SR///d/X30R93LWWWfV8wiA3LtnrdPwew60zDQ2VEOUrDT/dfe95557JmAcwKhL1S+nn356jWHUbf4T6pFOJ5lpPcf/pGWmaagR40Eih1i39aJig9lF+4tLHcOOEOz5cgQsaGSSccaGS0Jhw4j7bJO4lK1SRxtTlB1VLhvNJ7APW+talGc/ttR+6jdxsJjAsURhDUY/+MEPauPTscceW8/rfMqUiaYxxXUQ6zTG8RdkfMt6Yw/TuPDmdFJmWqxhH0Awr0LRykuU0ortQSc0EcCIVSoZgT8HmuAFD7JtxAKOrAqeaPnd7363thqrHJSjMtIyLaj87W9/W/7P//k/5dRTT50z25ntcA7n40Brhf/Od75Ty1Mu51wlYrv9Od4qP+f54Q9/WP73//7f9bwCDMEIp4ujbkYyar6WzXadHhzByr/927+Vr3/96+X73/9+3bfdZwgLimeDeEKAFnB6L+j70z/909qVmlH2zAmUGb4snbWoI4kpHCDix0c/+tEqQHDSCNIcKkFiE1ZC/4fzyqFtrd/dg33bLU1AZRvZHP8VAjvnXZ0gICQEWd+6lChPCzgbbT/Otqw1n9ksi/P57ylfw5GgQL2jcYmT7b/4VjM3lN0W5bse59IowPmXpWY9O+++wK9oDr1tbWnr2zbX7nrZdtvdn4DA/bpHgYjtsvU0xPFLfE+t27T7s297376P0Bn4/xNO1J2CX/+P7s9WGFioO8QjhAZikowgYn8I80Kd0fwydkK9ohGJzfLqM2GL4NXqF/ZIAxShlnjlOPatJWXYr9mxrljvPBqYdNFkz9gt9osta+Urw3ldg/8zO8q2aVTz3jk1RoE9ZwPFvs6pHHViiyOUY1Fm7N/AIxaxD+DBVoF4+D2MjJJAT6XhlbjGeVaReOBba7t9tRJrmfaQ2+7B96ATzqTkK0sF0tJdiWccXxWUiooDLaBsDjURTAs/49gcZBUFgYwYZr2KzH4crFaeisc9tG4n1gtEtFqphNyHFnPbrGtOu8pVWYQ6r+1aQlgQGDzZFFqg/A8FssQ0QbNA2bMmGJ2bIQ79H3WqelJ9qU70u3PICAMaC9Rx/hfq2NQ3nYHfkSPLaX4zO2KfJqZ5LyBkiywceraJMNecdv8l9o3jzN6pN7Syd83ws53A5JW91WBl0aBE4FM2u7cw6hxlKIttVtdp4f3Zz35WW9JloGmNb7a9J/guCH/uleDnuVG+eyUYqittsx/ac8XncA0EOt+Fewydhd+cX+c5kY3jNw9BncavUify7cUgIcyLZrPYDhnU7LPY1v9GnCqe9Z9iT5pIZmkNVOJck/L86Ec/qhnUEjf4cOLW7nau63GEsjFjxpSf//zn1R5L6GAf2XZ1mvPyAxzD3rF/FjECP6DZe3bW9er6KWtcljibayxSw8iIX8W5ric+5cAjYlofwIPq4eWMqhSIXx5azm2raDju1HIVhIqm7Se9lGjAqB1//PHl05/+dO0iwgEifkmnVZYAUncTDrDsnA9/+MN1thTnbN3cnE+2mf1cj/L+6q/+qrzjHe+oBpMIpkJzPcojsLkmAyH/7d/+7ZwuJU3971qheE/FtzhGWvhf/MVf1GsR4LpP16lyS0UUFhT/wZY67j8uLVs6uP91GJgQOnSh5xypM9VlHKrUN/0fTjPBi4Dk2ffKlnSlOc5awVtXEg4yW9Vgi9lXdrY1WkH5hCKOvm1zw/9KpoYJApQtA9LsoboFyYTkbFs/N9hz19H9mueF/yxxiw0WKJx77rnVqSeqEe/YcPfaUzHNeZ3f9bVjfBfuu30XvpeGerQFHvYJnYv/BN/M/8J/u3XVCgMbzz5RROMB/138EMKb4f+igYbdYIsJsQQvNo2NZW/YHp/VOWy1xk/imeEq2FQ9othUx8/NpjrO/1Gjlh5YjrEoQ08ViSCtscnx4mX29M1gI8XUElPYdYshINSPrl0sHX9yYBIxrQ+g4lCBcE6JVh5GwR61XEViIQhoMefQ2q4CEDR4sAWEFH0VgwrBviosD7YKpWW5edhlmrXuGBwjXVo4R67BvoQy+zaBTXmurV2Xa2E4tQgoV4u+slx761KlOxXBrKuTrXxltorUQvnXjcTiHK4/FVFYGHh2iCX+c8Ra/9HW2hUGJn5/daixMwQCxNbmxIX+DfvHFrFlnGQietfMLL+x35rIxLnWCAV2i11k8whK7F1rqWYP1R+tzuj+2h3HE+d0KTHGyj/+4z+WL3zhC3WMMs63Big22zW1c3n12XHENtfcExzn+mR6E9SMUfa//tf/KuaT0rBlzDP31lOhi/3lN7TGhiaq+S7Y+ybMKS916MDC7+75gOerq8gcBi7qAo0L/g9NiA/hzWBvxX7sCCGNH+a/w0dvcSvYbP+r1ttJzCgJ5B/+4R/q2K/GM2Vr/Qe72yR1lthYAoiyxaXs4he/+MXysY99rNpH1+A/zHdwbraPTXYs++rc7HL7X9tXjy6JIH/5l39Zy/ryl79cXz/1qU/NmdWbHe3a8BQGBvnF+wgePg+htFIPtW6STUgTBKiAODLtIW0ODqefyq412qDAP/vZz6p6LyuNc+54DjxnWIXjHBYGkLMt5ba1BKg8nEsgYsBuY5spT2qtz7p4cqydU4sAMc11ud4mlOlCR6RTQXWvUOzjHgS0zus4+zmup05/CD3Bf16Q6X+uC7L/egjqH12V1Fv+H8lM6wz8nhp8NA5xiI3ByYY2UYhtY78MguyVk9ycetsJXeyZ/4PjOPCELWU2genNYBu1lmuQ4pxz4DneHGx2WHntv6Z+sp/zsc0+c/x97gnKcZ/KcN0mFtCN3dK6mrr3nv633SO/gB/ABxCI8C+0uPu+lMNWz82uh87Gby+49No9QzEMXNQVfHr/h9YoEMKboQ5pAhg7azgiNlACRnchyv+KfWPnxIx6U5kwxwRAbbZp+3THf5EtZVfVW2KAPfbYY84kGe38LSYl1DlGzKyRysIGGu9brKsM+7kGjXYmT9DbRZne8yXYd9ei3DDwiFXsQ3BoVRAqFJWHh5kT7gEleNne9UH1XgXgYRc8SDm95JJL6swkAoK2r+M51k11fyPs45xa7s1cotuIWZy0Htjm2lQsgpP5cdah4lPptK4yqXTCokKw7Lkg0hKo/edCUP8Q/Dl06lj/k/mpw0LfhFPM0eVkE8hkpRK2OOrGR2EfLRqZ7KeFmS2TFe1YLd8mKzFDmG4ghDHOs/8KAakntorzzk7KQtP1w3nbWCoccI1IyrQ0x92+9tEdRSMVuzo3nF9dxoa6Ni36xC7/Z/9lQpx7UJYAgP23nc2G45RBKJNVLlho26znW2hw8N2x/xrPfB8W5bl+Qzik4SuEEMJbhS0S/7GrBCiNNWBjujdc2dc6/jtRjS3S5VN8KumDWMZminG7+nFsGtvoWHaOzXOMxfnEBnw/dphN23TTTesxymfz2NE2TIxzsHkayCzO0/wL9lumu0Y69p5t7n4tYWAQMa0PwSnm0Hr1sHuwOdgUewGACqjRnGvOrxmWPvKRj5TPfOYzdcp2abAnnnhi+ZM/+ZM625cZQAUOraJqD7tKxtIENhWXikXmhmP/7u/+rqaw6qqivA9+8IO1VaB10VTBOdaiPOIaJ11Q8UZCm2tvSwiLAv/rlo3pfypgDqHVcepOzpS6MHQG7FubJl82mGxtM1f/y7/8S30lNhHbTMEue9r+pt43zpn6QUa3AfzPOeecul2Wl8Yt9Yd9/W+6NgL5D3HYrWezOdrG5OPca4D61re+VWfEJs45Z9fhFdhYwcRpp51WZ9jm5MsoY1uV6X/q1T7OqXzvZcoR3jSYcfIJXI4xhoxr/+Uvf1kFMw0IztPsrHsg5skEcG3EOHabX6B853KvZgZl26+99tpanjFm2HLfqe/JvhblObYJa87R1rvOtj6EEMLAhW1o9oud8Z6d0KDFprCFbSKLrvalLewbe67x6Te/+U21S0QsNqZNJgafm/1RhrjXOZzfuKIm5mHj2WfZaewXG+gY5bOlxLBf//rXdQxSja38BcPEsPEawcTTfAy9wfQE++lPf1qTTpzPJFdsqPfOGQYWS33JIBuLENlV/nSHHnpo/SOG/8SDzPE1jgs42x5aXSuo77ohcapN76vSIA5Q2D38Kgr7qmBUIh5wKbBeVRLKFSi2CspnrdUqHg69crVmm5mEU65yUaaWAmKYVgL9yp1bGRxqi7JUVq17iQqmpedaN3Xq1Fpuaw1wzS0LoF2DyrE5+srwH3EN1qvQ3E8qo/+K715rie5IKm0VfJg3jJ0g1jMlwPU/DUG9on7x3/AsaRzwH7Guk9HKypFUp3MQ1eOdBpvWnGn2Rp1JBGs2j23UNUMrtEYr+6sXmoPvP+CzbDXdM9k+x/rPtH116SBK2Zf9dhw73IIB+zsvCHT25ajrXsK+toDC9+9awT6yh87n3D4Tw6A8NlE57sX5ms1Vru3uhb31yoYKTpTDZ2jBhnO2+1OWbi+upYl7rt19aLRz3RrCfIeeDdfFt3BNyrDNtTimBSW+I+uVz3dwfufsNPhUxEwB1PDhw6vI2OnIVCTA+r8edNBBHVl3hLeGeofPL45QTwyEGM/zL8tZfej5V/+FudPiOPUme0Bs8r2xEz6zN+ybYQrYrla32G4/C7vkO2aD2R02S8MTm8u+sV9sq2NsZ3/YLXZOeeyZV3bQOcRO7B/7xU7ZvyWxsG/OYz/2ldjH5vvseNfiut2Pcpt95lOxu67N+sSvPUOcxi+VvMPv6c8s8boDtEjzEaVMHn300eWb3/xmHTAw/BFfO0NEeDLLCAT9nGSBj+l7taQzTh/+8IfrAys9VfcLDyzD5c+nG4v9VQIeeg+7/YhxHvTDDjusVjSEOQGk/ZSlDEbBOQQFhx9+eBVptFxrlSZ8abVX0ciOYyztpyJSwThWa7pKQ8XkuolnsulUXPYRrCpHq7xy3KtuNpxQkxSotBwjPVY6LYdd0KFSsy38JzL+tKyYIe4DH/hAefvb3z57S5gbvqdvf/vb9Zn6+Mc/Xo1yCI2TTz65dov/7Gc/W0aOHFnrnE6Gw+I5MHDvhz70oY4OANgpzi776rXBybWwLV3tS9d9Hcum+T+0fdnqtk+zTfaxbztX2xf2I6jZBjaXTWzHwTH28Wqdbe14r45p19Mc/OYztHLbf7aVZbv9XEtjXsfaxzpL26fdk/0stllne7u/to9z2t79vq2D9e1eOwldZ9UbegDwy0444YTZWzoXPp3JNPiMX/va12rQGgI0lssWOvvss2tA/J73vGf2ls7F83/KKadU8cTzL7YJb0yzZWBP2Aa2oquNs8Bni32abfG5u01t25pdsigP7Rz2Z5eavbJv1/O3z2jnsK/1Xcttn7vvB9vZu662MPQMw0h94hOfqOOz0wn6M/nlexEPoQdZi5+Fc0z1Jn5pRSeYUeB9tt7Daj/v7cupoegTs2SFmSjgu9/9bh03zX7EMco7hZ6CTwgjjJ133nm1ewkBi4OkfMGVlmpCGxGNws9Afu9736vl6naqRb91G3V9FpllpuTXncWr+yGWUfK1OiiztQ4os31277C/z6636/oQQghhfuHQso9sChvZlmZDuzu8bFCzTfZjC5v4heYsO96+zUbZ3uxaW29x7laWxXV0PQ4+K6/ZXe+d06LMdk6f27HO57N927VYrFOOczX72pZ5Hats19l1H7T9lNOurev9tX3asd43WpmWtm8IIYSBDfvRbAOb0WySz+xLs3mWtq919rF4z46ySZbu9tIxrbyu57C+2XbHtTjTPu3YrudVbtvPcW1f2+a2n6XZXOcMA5f8+r2Eh9LDJ72UIGaR3cUhlnFmlpCjjjqqvkpH9XDLriGwST9t6+wrC4wAJu1VtwufZVtYZz8Pu7Idax0RjDDW9tP1RVqs8ohrrkWWGPHNfgQ9ApljiXKtO4lytM64Hqm29ref8xDxlNMEPddhH+mwBLtW6SmLGKgcZbZKK4QQQgghhBBCCKEvEjGtFyGm6YppAgELMYmYJm2YmGWcOeuto5ITpXRbIzzpe05Vp5ATo3T7+8u//Mvy+c9/vvzVX/1VHUhYeU15tx8xi0Bnu8UxxtCxEMmo6xainWn9P/WpT9VuUP/zf/7P8o53vKOKZk2B90oU041UqrPzOr/um66feEZ8M4iz63O9uqEao0g57oeYZj+iG0HP9UVMCyGEEEIIIYQQQl8mYlovQ5hqWVpNSGrrmuBkncV2IlbbF9Y3UY3oZsy0Jr61fdCOb/tZuqaydt3Xe+u7lmdf5+lKK0+qa9fzuv52D8p2nH29ts/oeq/dryGEEEIIIYQQQgihLxIxLYQQQgghhBBCCCGEHhIxLYQQQgghhBBCCCGEHhIxLYQQQgghhBBCCCGEHhIxLYQQQgghhBBCCCGEHhIxLYQQQgghhBBCCCGEHhIxLYQQepk//OEP5bXXXivPP/98eeqpp8rTTz9dXnjhhbo888wz5cknnyzPPfdcefXVV+u+C0o738svv1yX3/3ud7O3hBBCCL0LG/XKK69Uu8cmsoHPPvtstYG///3v6z5e2S/rbW/7OM42ZbBtL730UrWtymJbn3jiiVom+2p7s6lt/xdffLHuZx/lOb7ZSPu4BmUpxznZ6LZP93M6Xlneuy5lO6/P3a+FTW50PY/t7Vrcb7s3r8p0rG2Wdh7bQwghLHoipoUQQi/DaX700UfL2LFjy9lnn13OOeecctNNN9XlkksuKb/+9a/LVVddVR544IHqTC+oo8zZnzVrVpk2bVq54447qkPfgoUQQgihNyEI3XfffWX06NHV/v3qV78ql19+ebWBhCo2kIh09913lyuvvLLu8x//8R/VXt5///1VtCJOsW1Tp04tY8aMKddee205//zzyy9/+cvy29/+ttpXIlUTsdjAxx9/vK5nh3/zm9/U8m699dYqVBGv2OpHHnmklqWc0047re4zZcqUKo4pg7jm83XXXVeuuOKKct5555Xrr7++TJ8+vdxyyy21/HHjxtVzKOOss84qN954Y/UBHN9Ewoceeqiex7W6v8suu6za6yYCenWvynINl156afUh7r333jnfUQghhEVLxLQQQuhlOMUcYM7wGWecUZ3v8ePH1wDgzDPPrI6095xrQcaCogxBycSJE+t5mhMfQggh9BYEIIKVxh7CEwGp2UBCGJtlG5v54IMPViHp3HPPrcIXwY0wZd3DDz9c9+kqSF188cXVthLdfv7zn1dxjsDVxCmC2Z133jlHdFOWVwIVeylLTCaa67rooovq+dhrotioUaNqWcqYOXNmFdIc63xe2VnCH3GQnSd+Kd+1WC688MJy2223VRGQkMYmu1f3bz/XryzXQkBzHqLd7bffXi644IL6/bi/G264oW5PdloIISweIqaFEMIipHXF4PxyxLWEc8qts40T37qfLLvssmXnnXcuhx9+eNlwww3L8ssvXzbeeONy9NFHl8MOO6wMGTKk7tPKU1brQiIA6eo8t9btrvsJGhxrX+tbNxXnt68Wei3a3rsu5Vm6dglVLmzvWr6l+3XYp3t3F9egvDj6IYQQusK+yA6TgcU2bbHFFuVDH/pQXXbccceaFUZEsxCbfGYj3/ve95bjjz++7j958uS6sG/sjfLYp8GDB5e3ve1t5cMf/nDZZZddqm0iRhGl2CiCmc+rrrpqefe7310+8IEPlN13373aKqKcTDmCmWtbb731yp//+Z/XfXbYYYd6Ltlo9mn2coklliibbrppecc73lEOOuigstZaa9VtrmWFFVYoRx55ZC1jzz33rDaY2EYotLR7aPf2/ve/v2y11VblscceKxMmTKhiG1vb7Ovaa69d9t9//3LAAQeULbfcsvoOzh9CCGHREjEthBAWIZxdWWdajbVka2W/+uqryz333FOdeI61bihasjnTrUXZe91LBBQrrbRSWWeddcoqq6xSnXHdM3Vt0RqvVVxLOmefA99EKs65c2jZPv3002vLtq4kM2bMqIEIx59TLiDhtNtXYKJ1XLDg2gQ2rp9zL8hwXo67cxDHrNPKrnwt41rNld2EQgGGVnxdXHR3ce+uQXmEthBCCAHsCoGI+MUe+bzNNtvUxqVjjjmm7LvvvmWjjTaqDUrspgyspZdeuuy0007liCOOqEIZYYuARhiTIdZsEXFp8803L/vss0856qijqkhG0CJOsWnsJYGKbVp33XWr+KVMAtXWW29dVl555WoTiWVs8iabbFIbuQhiu+22W1l99dXr8cpj25ZccskqyhH39t577yoE2se1L7fccmWDDTao9/P2t7+97LHHHtXGuw7ncN18BmVtttlm5dBDD63fwfDhw8tSSy1Vt7mG1uClTI1vu+66a/0uvHeOiGkhhLDoWeL1iniRpgfcfPPN1eB885vfrK0rIYT5h5P1i1/8onZL0BLKAQvzxvf07W9/uzq5H//4x8ugQYNmb1l8qFoJX5xvYpJuHN5zmrU277XXXjULbZlllqmCl3HStHpz0i3EMQGBIIDjLzNNoOC/oCuHMpXneBlrnH/lCQQ40Rxu3V10PyGgca5t59QrU9cTZdhXwLDffvvV1nbjuXDOrXOdzkdEI7wJKAQAa665Zl1HxHMO1+l+lW274EDgcNddd1URUZcbwY9A5cADD6zBgSDDNfUGJ598chUjP/vZz5aRI0fW77CT0Q3ok5/8ZM3uYI8FkSGE+YPQo777v//3/5bjjjuuZguhiRZv9NqTfbq+Ntfca1c3vevnub32dN28XruvYzv+/d//vdqCr33ta9UGLCqck6g1adKk2uBEOJNBRlBiK3z/FgKZhhzjiLJZI0aMqPtAA5S6fcUVV6wZWmwZO0egete73lXFOWhAYuuck20lUlnHBrOz7CG7QIhrmWYauDQGEfoIcy1rjYjG1rFxjmW/2V3HEbcsa6yxRrWZGp/Y1LZeA5kGLI1Nq622WrVHMrjZVvu7ju22267+LzRUaZxy/MEHH1xFMw1xupCuv/76VXD0fSwue6ZLqgY9jWnsOsGv0+F7aRQdNmxYjWn9riGE+Ufj+1e/+tXa0C826c9ETAuhHxAxbf7oC2Iah59zzfnipHNwiVBak7WoCw44+9tvv31tgZaZJkuMI84h10ItYNDK3oQ3Dr/9BAYcb46c/TjzggbHEbQ48Zxs478QTgh4rsdxroH4ZpvyXY+W82233bbuI0BRVutWKrgRKDB8HH8im4BG0CKDTeu7xXUKRLzX1YRY5j4JOb4HIp+AR1cVQRKxzf30BgNNTDM+z9/8zd/U58B3L5sjhIHOvNzf7uvbZ3WlulbdR+SRCSQDidDhtesyt3Xdl+77+GyBcxJy2tL98/wub3T83La1dTKg2An1/qIW05yPkESwIi6xj2wfm6gBqO0jK1rjDjvPprR92BO2ipDle7SO7WsTDRDT2CX20W9IhPKbHnLIIdX2EfHYYr+tRiF2we8CPhjRyzmNe+Y4whVkb7OJ6lfil66dxjh1vP8I4YXtJI453nfb1rPPvl/3y3YSBmXmqbMJiuymLpzux3ksuqvKrmOfleleZLqx2fZdXHa1iWnEZffRBM1ORiOn34sfxZdp/8sQwvyhrtU4YMxLcUt/Jt08QwhhEcA5F3jJHuMAE8O0HGu9JXpxjnWrFBxwvjnwWs0tHGoCl2MEFNZxqgURWsc57rp8cKi1UHPqBCEyxHStJGIpmyimLA0ausA4hwBDK7ZjGDAimm4sHHT7vxGCAPfVuooSBAUFxF3lK9u9ykRzre7NfQoS3IegRWu8sWN6S0gbqPjtfOd+4yxZBvpC6LAQlj0X6qmuohKxhOiivpOV1IQM723zXp1LbLKod2XearAQJKj71cHqQnWlulm9rO6UNazhQYYTMYQApHFD44RA3eK99ep7+9jXcY5nU5SlTMG9cziX8zq/63A9rss1anCxaBghChFB2r24P/bEvbov34Hvgojke/H9NEFpceM63gruoaEM98FW+b3nZXfs15PzOZ6AIvONgGTRqMX2NTvavjPns2/XczpHWz+v79U+/qOEQOdx7fZnNwlwGuAM+6BcS/tPO29P7mFh45zO3a6jkxe/XXs2vJ/bPlmyZHnzRZ3RKSzyzDSZFgItreIDIQU4hEUBx7dNr+550koc5o0sKlPOayXurcy0Nl6Ya9EqTtTSKi54EQgJnjihBCZOssDJ78sp101SoKNFXXCklZyYJsjSHZSD7d50vZERJsjSyq51WtcT5TuOw+28spE4f8pU5XfNLPPfMgCyLiMCMy3iDN3cMtM497L9HNuy3nRBUb4A1PUL6Hx2XoGblnjBAGHQOhl1vY3MNN1uDf5MUFxcRt3vbZmb2Z1bENR1Xfft8/NZtuEXvvCF+iwYWFurevf9QxhoNNFsbq9zW6euVM/+4Ac/qGNlaRxp+3ZfupYzt89dl+7bIGBvQfvc3r/Ztu7r3uq+xLt/+7d/qyLR4ujmyWa0bp7OyW6wm4QLIiB75zsiRl5zzTU1E8s+Q4cOrcfLApd1rAFHIxTbo4cMO/bOd76zZk+xg10z08Qm7tWxxEs2gX1lB9nrNsMmuyrjm43TONQyE/0vLOyIDDQipmtwPHussYzNJorKQPP9Ws++ur6umWnW+w5cM3tsjDcinbJdQzuPzG7v3YeMObafL0HYc02Lg5aZZtGwp9Gu05Fx+NOf/rT+Jh/84Aer7xZCmH/U35/5zGdq/aEO788scjGNceJ0yH4QrIUQ5h+txpxaThyxhZMZ5o1MAALTn/7pn/aamKarBofYFPpENU42IUkgwAkFJ5uDT/TiaBuPZ15imn2U8//+3/+rWQj+A8oUDHCqlckgOVagISOBs0786t61T0AiYOGEO/aNxDQZZoQz1yYgUJ7r4FTa37oWYMmI8N516OopEBEkEG9kxRHeFmUw1lOIaT/5yU/q90+kXFzBh9/AQsz0P2iCltfuy9zWo12rz9639V33a0tbL0D0P/zYxz5W3ve+99XfQXAawkCG+9t1aUKW1+7bLOpKAcDXv/71aluI8fPad27Lm5XfFnR/ltuzPq9lXttbfdF9+7zWd11sU3d85StfqXX4ohbT4DvWyON7hrHJ1FfsHJtO0GLP1F/EMPtrVGJz1Ksa8HUBJXawVeyioRbeSEwz0QA7Jl6xjl2QGc4OsnEyAIle7l2Gn8l7nJPdtA9/Q+aga3KsV11NHTO/Ypouq/4DrsN37x5koinTdbDttstudz1seG+LaSZB+pM/+ZPynve8Z/aWzoVIesopp9Tf5IQTTqh+WQhh/jF+5Cc+8Ylyxhln1PigP7N4atzXmZuhzpIlS8+W5vDmWer50lcgnnCYOd3eeyWqcbB12Whjh/Xkmu2ju4eMMM61/4XyBDpa4bXgE9i6/l8WlCbWCVS64l5ch/O7fp+NIeMaCIJdr8M+voPF5eT3BNfVG0v7TiyNFkQLsi2+87YQ0n33hEmLQLBlKAhm2kIgldFgETgSQdur7cpv+7WgPoSBTHseW/2lnrK0OpYAIhuXaKE+I3ZYZ3/r1bsyowTURHmNNupA3eg1dhA4NFIQf4gvxBMLQYdIpK6UUcUOyHTS9Z4IZPHeOtvsY3/HsRvKUMcqU9nO4XzO6/yuw/W4LpkzFiILW8P2uA/3ZHE/7tU9NzvFtvg+FqYd6SnO63rdo3pPg5QxdQxSLVtNl1b1ou/ed6Au0zBkQh2ijvd+K9+L+3cvb0b7PX1vviPCmPMpT1YvcU/daZvv2vcmW5uQZIZqk+wQ8WSjL2jd6v6dx/X7rQhtxh11LSYqkhmnTvcdqNNDCCH0Loutm+c//MM/DIgU4BAWBQJgTpuBb3XT0gIZ5o3v6Yc//GFtXe6tzDRdPbR0c+6JH1qYBQjgmBNJBDAcfqIHJ1lXynllprkHLdtaRjnZWrBbhmITVwQRnHEt8VrLBSXOq0xwwlX5FgGCxbEtM80xuj8qQ2aaAM7YP1rJteS7Bvu6VhkCPgv8vAq8WvmCNdfiegUatusSIzgUvPU2MtNk4P2P//E/akZDTwKuhYXgVMDVfoe5Lei6TwvQuu4zP4vn4Rvf+MaczDQBut84hNBz1JXq35NOOql8+MMfrpkpnQ7R6B//8R8XW2aa+kqjgexr2c8m3GFHCGvqLXGErCzioEx9NrPNfOn3ITjax5iiRCl2iv3SyMBvIlLZT9aXDDN1q5ko2Sh2WMzCNsjEJjKynYYn4Eu0Y9l0+7g2AiQ7K1PJ+KWET7bfdbErrpVtVZax7qwn3rX1xEvinfW+Wxlrvms+n+sj5rG37DtfwbXogupY35OscffebDPbu7garfgxyUxLZloIb4VOykzLbJ4h9AM4gpnNs+f4nnp7Nk+/GUeekywwYCwIT5x3zq9AgPPMqeb86qrxRmOmWa+bh+56nHT7ELs4tG1Qa/cp28F+hDIBCBFLNoP9BAqqfEGB7iqOcZ3KUj7hjGjr3Bx22RGuU9DgXpRtvD7ZAZx45ZtQQADjvpSve6mMCed03wxmXxTTOMW9NZtnV7PrfffP7bXr++6v7T3eaL1F4PfpT3+6jl36Z3/2ZzUAWFwBVwidgnoxYtqi76avziIetS6WhkxgX2QBEtRcCxHLPmxR26dlrNnHvhoMCGRsmMYrApQMNPuxf0Qv59IoxS5ZrxziljJblljLMnTvXfdhE9WjLauNDSVmuS621DbXY3u7Fus1qFivPPu4FtdoHxmFGtncr+tjo9v12991sN/EOeuMx6oRy2fHEucWVzZhxLSIaSG8VdLNM4QQwhvCqeXccsQ5zFq6CVUmECD26b7BieY09wQOtgCBw+4Y2WcmpbDo/mIsFcIYh5zDzcnjZBPCzjrrrNpVxlgyBC4BgevjDAsKtHxz8olKzmG9bKbWfaXrdTqOWKZLEeGMWOienEOGgOsQTIR5I9hpi/+GTIW2+P0sfgvftUXgaPEfsAicBH9tEaxZBFsyAtsisJPFaB/nclwL4EIIoS/S6iqNRRp1jj322JqRryGHPVUHtn005GhsMh6afWSZEc3sox4lhhHXDIOgPlTHqlPZudbFttWJ6lzdZGV4EYecV3kaldSnzqlMwpkGKPs4pzHXZDjLUFOGfTU8uTbnt86xbb37kllnvevxXkOT9faxXn3vWjT2SEhwLYceemgdf9p92Mf9s8PugcDmGOcJIYSw+IhHHUIIiwBONyGDE89pJ1oRnQhUulMKCnRF4ZhzgokhnPHmKFvnPUdbYGCdAICjT1AjWhHSDFys5ZqTzaHnXMsKEwAoT1cRLcdaVDnfBnPm5BPclOtYWWZeXa9uJMqQKecY100UJKBpTXeMYEX57kF3GUKdcV2IcIIC53BMuyflup+IOCGEEEIIIYROIJFNCCEsArQQa3UmgElhNvubMavMAHf88cfXKe+JUkQmrdEELq3wuk0SoIhR3hPPCF8tQ4nQpfuqlmpdjSzHHXdcHWvFNmKX/bRUa7F33o9+9KP1vFrQdTUl0BHxjLtmenczLmvdtp7wd/jhh9dydQl829veVq/LeDC6ajZxj5BmHBmt8x/5yEfqopWeGOeeXa99XIP7d20EwRBCCCGEEELo70RMCyGERYhsMJlkumgYN5LgZHB/ohYRTbYWcUqXDtllJimwXjaX9zLAZIS1boCt+4vuJ+9617vmdEWRjSYTrGV/6V6iPMIYwUs3GGJYy4RzDtsJbIQ916g7ICGPiKdricU22XXGdtNFxTkIhbLmZKEZ1JmY5xxEN6Jgy0IjvDlH69bi+kMIIYQQQgihvxMxLYQQQgghhBBCCCGEHhIxLYQQQgghhBBCCCGEHhIxLYQQQgghhBBCCCGEHhIxLYQQQhjg/OEPfyi///3vy1NPPVUeeOCBMm3atHLXXXf9l+W+++4rzz33XHnttddmH9Vzfve735Wnn366Ls8//3z9HEIIIYQQQn8lYloIIYQwwCGkvfjii2XcuHHlZz/7WfmXf/mXcvLJJ9fX9v4nP/lJueWWW8oTTzwx34Las88+W2666aZy4403VmHupZdeqgJeCCGEEEII/ZGIaSGEEMIAh5j2yiuvlNtvv71cf/31VfB69NFHa6aabLLHHnus3H333WX06NHltttuq+vmJ7uMeKbMO+64ozz44IP1XCGEEEIIIfRX+oSYpnX61VdfLU8++eQc572ro227VnDdSzjwXjn+IYQQQli4bLjhhuV973tf+fu///vy1a9+tXzta18rX/ziF8tRRx1V7rzzzjJhwoTaDfTll1+u9pmopuvmww8/XNcT3e699976Wbab5Zlnnqk2fubMmXVhyx3Plnu1rh17//33l8cff7z6BcleCwMB/3PPCf9XFuf8iM3tWM/X/B4bQli4eB7ZLjaPXRPXGjrhnnvuqYvPntcWxzYbOGvWrDJ9+vRqB9lAGeDNxnqm1Q3WWdhWNtbQC2wle+p4n63vfo4QwqKj18U0lQRHnBMwZsyYctZZZ9WWbxWFbW0flZIWc11Epk6dWlu5QwghhLBwWW655cqgQYPKxhtvXDbddNOy2Wabla233rpsv/32ZauttiovvPBCFdXa+GkCeNlqZ555Zvn2t79dvvWtb5X/+3//b/ntb39bxTEBwpQpU2rG21VXXVWuuOKKMmnSpJrtxuGXqXbRRReVf/3Xf61dSn/605/W/R555JEIA6Hj4eN6DmRuXnPNNWXy5Mk1CO8J7VgB+NVXX127YQukQwi9AyGNwGVYgwsvvLCcd9555Re/+EW1jWzcOeecU59Xz217folgF198cbWb7OePf/zjagMfeuihOULbDTfcUNeNGjWq2tbvf//75Qc/+EG59NJL6/AMXn/0ox+VU045pZx77rlVuGsNViGERUefyEwjpnHGOQGXXXZZrSg4360SUNlo9Z4xY0btIkJ1j4MdQgghLB6WX375sv7665cRI0aUZZddtgpg7DJBzXuOvoYuDWGEACLazTffXNe1VnKLYywaxHxuQQcBQUBBQCPUjR8/vgp0gogEA6FT4d96Fvi8hDTBt/+9LJSewBfmG1977bXl/PPPr6K1zJUQQu8gppUpduutt9bnUsMR22bxXlIIG9eys9nHruOJsqdeu9pPz7T3RDOxskw3QptzXH755VVIb0MosL3OowzHvZUJg0IIPafPjZnGyVbhUNQ55W/WzYOTrZWcA+4YDonjVFIqENtbeqzsNxWLCojzIY3WOvty/p23dS9pqbUhhBBCKFVEW2+99coKK6xQ7Sr7zH7KMGN3d9ttt/LZz362dgs9/vjja1Ybm7rkkkuWnXbaqey///7lbW97Wzn66KPL7rvvXlZeeeVqiwUIyv30pz9dTjrppHLkkUeWZZZZpkycOLHa9YhpoRPxvyZGewbGjh1bFz0w+LRvhmP5y54vQvZ1111Xg23lhRB6l5ZxRljbZJNNyrvf/e7yqU99qhx33HFlrbXWqnGoeFQiiQQRYtqKK65YPvCBD5TPfOYz5Zhjjql2ljhOXFcnNOHdfocddlg54YQTyiGHHFLFNnaSvf3IRz5S3vOe91R72rqYstMhhEVHnxHTllhiieqor7baamXVVVedo7hzFubmSKtUmjNB4Zfy+s1vfrP827/9W/nVr35VnXOimIqH0KZ1QKuf5bTTTqtpsNJhqfkcGF1MpMtKrZUq24S8EEIIIbzuMCy5ZBW52Gv218Kx1x10v/32K7vsskt16DfYYIPqzLPnLYt8lVVWKWuuuWZZZ5116mKbYIOtFSjYrjvpkCFD6uvgwYNrI5glDVuh02jBNv+VvyqwXmONNcrmm29eg+g3ogXVMlCIaMRsz9OwYcPq87gw8aw38hyG0HOWWmqpatfYQ8/1lltuWbbddtuy9tprV5FNwkfL0LYvm7fddtuVbbbZpi4ywcWxBPM2Vrjnuw3BoEz21n7GOR06dGg9B/Fu9dVXr+dgf+cWQ4cQFh59KjONmMbJViHIDKO0tyyx7jRnQqorR4SqL6VVZpruIrqIcDQ4KBbpslrvbNMKqL+6fQhnxnHxuR0r1VZLgRaDEEIIIfzR7goANDRx1H1eaaWVqt0WCGgJ12B1ySWXVPvKPjcxbW4IIthnGeJNGDCemm4sBAL2v7XIh9BpCHL5sZ4pz48AWjDcE0GsHev5Ekw71riGgveFjUAfnvsE5gHq5PZ/8P/Q0BL+EyK0sUeJ3OyjJBFDJRDMvfd9+Q7Ft55hzzyRjQjW3muQsk+bVMR7x6677ro1q1vDlld1BwHN/uyxWNq523MbQli09KnaT+WiouFMqBRUHkQtjnZ3A+6z9Vr1CGBa5P7X//pf5W//9m/LXnvtVTPWCGiEM/taOB4qImm2H//4x8vee+9dt2v5Ng6M9NiDDz64VkRSY5UfQgghhFKDfo49EUwgJWBgVw2RoGHKIMunnnpqzfKWLa5hii1+IzFMMOF4AyubeMCxp59+ep2QiJCWgCB0Ip4dQfMOO+xQ3v72t9cu0LIye0I7VpaLLtOOlc25KPD8Cdj554TvuTVuh4FHswXqf/9F4k34TzyjSy+9dBXQfD+Er+6CI7sozmVPNU51xbG+U4v3DZ8JZl3XhRB6lz7XlEDI0p+cyi7V3SCKBDUVdldBzXsVEGdb5SLVdeedd64pslrnqPoGYiSKqaxUbIQ0Cr59Zb9xPoh2zmWGMiKeVFkVVWt9DyH0b94okA8Dj/wf3hrN8W8TAgiw2WvZY7LIDc2g64kx0Y499thy4IEHVlssmGB/54b17PwWW2xRu4m+613vqo1dxnyxvPOd76wZNxHUQifify2TTKaJLtCelZ4iMPcMOpbP/GZdQ98qRAD+tPOlx0ZoiMnU+c8880z97/ovhv+KZ8Yz7rW7kNbwfIlhbW+JH2yt+JNw3TUblL1sZc7LpoYQFj99TkxrzjWBS+q6rh76i2sR66rcNzFNRSMtlrEnlmkBIJA5VkWkn7l9VEAqfOuVLwiw/0YbbVQDAA4JR0al5nVeFV8Ioe/j+dVyxykhjDdnJAxs/A/YA/+L5uSGnkFII5wZIB3GgdHwJJhqgxxr0Hr/+99fPvjBD1YxTcMVmzovbGOX2WCZ4u9973vLhz70oSqq7bPPPrXRS7Z6AocQegf+MD9Zfan7tTogBBnHuub7P0hSUI+H+YNd83yJScWrbKnv1Xs9pgybIO5lJ/mzsYMh9E36ZCTBaBPHDK4o7V1LmEpbJdOCYsGQCkdmWtdAWWXTlH6CmbIgaFJhaQVs60IInUkbS0I9of4Q6IdAWNUw49X/w/8kDup/h21tDVmyUYwnakYxmeJmF9NoJZubPRUMsLXssO9Wl03DJ8hWc7xGr2aj2V4ZDfYTOLDJGrIIdY4xZANbr3voxRdfXMdPM55pVxsfQlh8eL5ljqovPfttMHS2NQw8/O7qcA0ohtnxX9DLx7hgYf4Ql4pVLWygZ6vN3mlmXr2rWk+txK4h9F36pJjW1HozlhDUVNacbBUL8aztw4G3n/ecbZW8V4GzYEDA1Ay+fVREqYxC6HxakK4OMJuvgD4E/wPiEBvB+Wc/wn+FjZRtcP7559fxy7797W+Xf/3Xfy3f+9736uzXss123HHHGkAJAjj7ssHZ3tGjR9cZsc8888wqmLHhEChANrjZO+0ny0VQJutFeVrhjZn2ne98p5xzzjlVXHO8hrUIniH0DupIzzxfXN3guZ04cWL1xVvWd4S1zqbFVrKk1NkaSkww8/TTT9ehcYitMojDf9JiThllXTPgu6/XMMUGGjuRnWT7jDt65ZVX1s9tUpI2TppjHacci/dtfbOT8zp3CGHR0GefMhWAWVAYccZcQKx7ifFa2naVkG2MuuwTr0Q0+3DM7ZP02BAGHoJ2Wa2cEY6fLJgQZDdrmBEQaO2VbRHb8EfYS5l6ulx6dgRPstNaZhoRzHZjmxG/iFwcdt177C+gUgZbTYwjsJnYRxDOlrPVvvMmjhE27U8wGzlyZO0q1DLbPLeCtF122aUeY78QwuKH/+wZ3X777esiI+naa6+t2aNsq2eW362+CJ0HIU3jEx9K3Sw72azLd9xxR63Ld91112ozxGPhj7BXvg9DIbCN7B9byX7KMLOegOa9hl+2bvfdd68T6RGoxa9gOz1z9jWckVfftffK8mx6r2HLNmWxrfxf57A4t/1CCIuOJV6vKBdpk5IZNc029M1vfrOOh9Idp+c4yzq78MILaz/xo446qlYOKhoV+IQJE+pMYQw4hf7www+v47Ew4DfccEPtCqLCUqmrwKTH6ioi88AYLhT9yy67rGaqcO5VOoQ3RuH666+vldUhhxxSW120tmh1U7nttNNOdQDlEHobIoCZ8i6//PLygQ98oM7+FeYNEcBzPGrUqOpcGBSdACCgT2A+MCHe3HrrrTX7iW0xRhcHlhjU6f8JWWZmsP7c5z5XxyRjE7vTsg9kG7C7vq/u7oHnRwDFzjYH3TFssdmv2dU2xot9ZI/b5r1jiZjK9yoIaF1tBWuOZ/+d03ECA7+NsvLMhr6A/7KMkZNOOql8+MMfLieccMLsLQuOZ4c/ygflf7JXZuv0PDivxTPnefF8dMWzStwaO3ZsDaD5tI5fWHjGnUM3NNmp6lHPOX+cAGAs4pY5EzqL9ttLUiCeEtHU4WKuPffcs/7X1OMD5bf3/J9yyin1vj3/c+ve6pll0zzTxDHPBjvW1jfbyi629Z7vZns9W55xfgphzD7iZHGAfdlG6/i2bKn1xLpmT5XlHGB3Y0NDX4Su84lPfKKcccYZteG0P9NnxDSzwhgjRWVCLCOmqURUPIQ2TsIFF1xQKy5B0AEHHFArDZX7NddcM6eCb5WJVnGt3cqxngjhWIIbR0UlJ1193LhxdQbQgw46qBoNwh2RzT7Sbo0LE0JvEzFt/uBgyKQhohvXQ2veHnvsMSddnhPSltCZsC1tUbcbi0SwetNNN5Xhw4eXgw8+uGY9cVo7/X/QEzEthPDGLEoxTfDLH+WDEsT4n7p48Y91ebbIMrFNFmdXHOs49ZttAn3LwsZ52NPWYM2P5qML/tWxoTNhH1u3QeKM/xihlz81NzGpk+mJmBZCeHMips0HPRHTKPe6hWhZMz7abrvtVlu6qPa2c2A4EhwN6PopGBIQ2J+QJquN4KaiV8ET0gTPbYwWjoaWcK1oKj/BdhtUWQuLDDbn4igY8FjruxRbWWwh9DYR0+Yf9YbsNF0S1B/qDc+5YERdoP4gvKfFrvMQ2LErnhvZTlrVZTGr29X/Zor0X2BjBgIR00JYcBalmKZsQ5nwQfmfGoKJ/XxVDQEaf/mzeksQMrri2Lvuuqv6s8YwZOssiwLCmfrU+VyX6+Vjq2sJa6GzIKLJhGr/Sf89/0ExmnhroBExLYSFQ8S0+eDNxDS4BEbYuGeCINllXdNSreMstHGPVOD2Uckz7FrHjNvgeMeo+DkdFvto2SO6NaMgE0GZnBTHtvJch5Y36wXZ1ruOEHqbviSmeU7a8+O6PJueLcKExbPTFzJ9XKPrE6DoIi6L1TNtbCdOoW7f0uhde+gs2AV1ufF9CGitW5LgVFazhhL2YaAIqRHTQlhwFqWYxl7xR9Vbzf+0aBTQc6NNnCLLeujQobOP+iOOdZzjux67KGj+ejufVz62+nURhxOhl+Ajtf9V8/PEUQvbfr6Zb9m9e3NvEDEthIVDxLT5oCdiWgjhjelLYhrnnnAtI9TzbRwVopTu0sZp0QWgL42fITNJKzpBxbX6Lt0Dp80SOo8m5nLE2zhDMjV0m7L4vw6kLr4R00JYcBalmDYvCFfEtAceeKA27soIkl0dQqfRfEv+mt5E/DW2SpdnY1j73/d2A1jEtBAWDhHT5oOIaSEsOH1FTCM+cXaMl6LbnOebo6/VkEix7777ViejzTbUV9Bq3mYE1jXF9ctakrHKgQudBRFNFrKxM9uMWMa/FIj2pf/l4iJiWggLTm+IaeyTbpTslS6cFlm1IXQSzbckpBnyp/mW7LiGWkMzaKz13+9NGx4xLYSFQ8S0+SBiWggLTl8R03Tn0FqoEuTc625isg7drHWjbK2IhDWCWlc4S1rZBSRefRYoELo4RwQ53QhkEi3srCHVnGvXJYWA1rVrSug8/H+0YOsW4j+lGz+nvM2Atajx3/I/dy7/7fmZ5MCzoZvLWzl2XkRMC2HB6Q0xrdkui/rAkqEJQqfh/33fffdV39Kkc3xImWgmkNP4yWYRsKxfY401Zh/1R+bmW7bX5luy/56bBbWlEdNCWDhETJsPIqaFsOD0FTHNGClaDs2sSwg75JBD6mC0Ws7NJKYlUSaQGXd19+yaku8eZIdxjB577LHq+HhVptZ2afwcpTXXXLM6QCH0RzjwBGfiMiHMc0Bw7sl/2rGeIYN629+xxkha0OchYloIC05viGkhDAQ0cLJ7fEs+4VFHHVV9y5kzZ5YxY8ZUgc1kcXo/dO/uaX8+KN9UIy9hznF8TmKXjDYTJxDhFtSWRkwLYeHQSWLawBh9OYSwUCCgCSg4Msadkn2m1U/qPUHMNs4M56b7gMS2ERmuuuqq6jCZnXfSpEl1Fl7rpPbbLisnhP6I1nBO/E033VQuuuii+p/m5PekK7HnxazWZqAlfulGLYDoybEhhBBCf2VevqX3Glj5hWwp31KjU1eabzlq1KhqO+fmWxpzML5lCGFREDEthNBjunZB02VOK1/rTsfx4RDpRsm56e7wwPbWcqgl4pOf/GTNmJGVphWRw8NZCqE/QTT2n5dpyXG/+uqr6wDKuj/P7TnoSjt21qxZ9RjHKsPnNzs2hBBC6O/wLWWnoatv6VUXTb6jMdXYyu4NtXC8ng/KaL6lpfmWupB6DSGEhU3EtBBCjyGCEcu8cnQs8Go8CsE/p2ZeY5HZj2O07rrrli222KKOr2bRNZQDRajLOGahP8Gp95/VMi6bbNq0aXWdyQ50p3yzMVo8MzLQdJPWTUVZunca521Bx3cJIYQQ+jp8SmIX/5EvyVdk/5pvyabaNq8GJvtp0O3qW+re2XzL1lsihBAWNhHTQgg9pollbzVjxuQCnB3jQBlrgvNDNNBF1CuHKIT+Bkdfq7lsMgLasGHDqjOve8ob/acd51kiUMvYNFmCQGD48OFl7bXXzvMQQgih41lQ31IGG99yk002meNbssVscE8atUII4a0STz2E0GN05zSGhVdCgAVNFOCwtFbFuWE9x8YYa4SDiAWhv+M/TyQmgh155JHliCOOqBNpaA1/M9qxm222WR1w2UKE68mxIYQQQifAp+QXeuVLNv+yu285L1GML0lAi28ZQljcpLYJIfQYrX8cFo6KtHzjWLQWRV00CQPEMg6Rfbo7Ps0hst/ctofQH/E/JjKbZcxi8OSeOvOOlZXpON07V1tttQQCIYQQBgx8RkOANN+yZak135LfyE6+kW/Jr2xjrcW3DCEsLuKxhxB6DEdF1gwnx/gWbfw075966qnq6Oiy2ZyiEEIIIYQQ5gWxrKtvaeFbGuvsmWeeqdsMfRDfMoTQ11jiD3JoFyE333xzOfroo8s3v/nN8t73vnf22hDC/MCx+MUvflEuv/zy8oEPfKC8/e1vn71l8WImpXvvvbdceOGF5cknnyw777xzHeDVLIZTpkyp+2y33Xa1q5pWRI4Rx4cI9/TTT5fbb7+9Tlsuu+2ggw4qm266aZ2BaeLEieWee+4p6623Xtl7771rhk4I/RV279prr63dTTwPZhQTBPSEyZMnlyuvvLIeq7vorrvu2uNj58X5559fZ8393Oc+Vz70oQ/V7NEQwvzB/nk2TzrppPLhD3+4nHDCCbO3hBAWhK6+pfFDR44cWX3Lxx9/vEyaNKlmmrGHJhXgW5pMgADHtzRe6dSpU6tvqUH30EMPrUMn8EtvuummOimQ8dT23XffmgG+IIwaNaqccsop1Xd93/veV8dkCyHMP6NHjy5f+MIXyq9//es6TnB/JmJaCP2AviKmcWCeeOKJKn4Rzwy4zgni6OieRkSzeE8ks2/rwqaqMVuhGQ+JA8S0IUOGzBHTpk+fXsW0vfbaK2Ja6NdETAuh84iYFsKioatvyQZ6r3sn39KwCfzKJqQR2/ie/Ey+ogZbDbV8S+IaMY3YRUxjizXUmpRgn332WWAxbezYseXUU0+t1+ccGd80hLdGez5/+ctflm233Xb22v5JxLQQ+gF9RUyDMSyk3d94443lkksuKbfddlvt2qnV74ADDqgtglLztQhqaeQIERTWWGON8uCDD5Zbb721CgVEAo4Qp+TOO++s25TDYZLOH0J/JWJaCJ1HxLQQFh3Nt5wwYUK56KKLqm/JfzzwwAOrb2mSH9vZV9lm/MXtt9++vt533301O824abvvvnv1LfWeuOOOO6pvyf9kh4lqC4Lyzj333CqqEfSMGxxCmH9MFrLhhhuWL37xi2XjjTeevbZ/ssjFNK0M73jHO8pnP/vZXhUAQujPvPjii+Wss86qLW8f/OAH66x/vYUqgwOh2yZngtCnNZCzwqkR+As67r///urEQAveoEGDqrNknDXp+SpSrXrWEd+0QiqnzRYaQn9lXmKa/7pxYLoOltx9oOSIaSH0TSKmhbDo4Fuykbpt8i35il19S8OD8BP5lg888EC1nXzL9ddfvz6bfNHWS2JR+ZbOMXPmzDpGMFu+iEPoEDoWPjA/V3dur/2ZRS6maSmQkab1YKONNpq9NoQwP0iBnzFjRnUI/vzP/7x2kezLcF44O5wOTo3UetlmRLQQOh1i2pgxY+p/v6uY9vDDD9cuJ5wI4rLnwjPdFd2nu4ppu+yyS8S0EPoAEdNC6F2ab6mLGBvJhhoPrXujVAghLC4WuZimBeFLX/pSzVCRchtCmH+MCWGg0xEjRpRjjz22jh/Rl+HwSLvXsqhVUWq9AD4OTxgI6Api0GSt4Frdhg0bVoW1NgGH58A6XZq7C2W6r4wfP76KbLpMb7311vXYBSFiWggLTsS0EHoXvTTElbp7ylbTSGsctfiWIYTeYpGLaYLqu+++u75KuQ0hzD8cBcG19HUZLdLV+zJm8eT0yKhz3USFZKWFgYKuILqqeG51TSFeEcQNnEws00Va15S5CWW6pdhu/67HLggR00JYcCKmhdC78C1bPNl8S5neIYTQWyxyMS2EEEIIpYppumsbc1DXlE022eS/dfNcFERMC2HBiZgWQgghhK4sWHN3CCGEEHpEa7syQ5ks0wXNOAshhBBCCCH0DvHkQwghhMWA8QONlWYa8IhpIYQQQggh9F/iyYcQQgiLAeOjyUozYLKxXjJocgghhBBCCP2TiGkhhBBCCCGEEEIIIfSQiGkhhBBCCCGEEEIIIfSQiGkhhBBCCCGEEEIIIfSQiGkhhBBCCCGEEEIIIfSQiGkhhBBCKL///e/LCy+8UJ588sny2GOP/bdl1qxZ5bnnniuvvvrq7CP+O3/4wx/K7373u/Liiy/WfV977bW6LoQQQgghhE4iYloIIYQwwCGAvfLKK2Xy5MnlrLPOKj/4wQ/KKaecUr73ve/NWX75y1+WMWPGlIcffrjuPzesf/bZZ8utt95abrjhhvLEE0+8ofgWQgghhBBCfyRiWgghhDDAkZUmm2zcuHHl17/+dRXOzjjjjHL22WfPWc4555xy2WWXlbvvvrtmsDmmO8S0559/vkyfPr3cdttt5Zlnnqnrkp0WQgghhBA6iYhpIYQQQqgQvTbYYIPyoQ99qHzxi18sJ598cvnWt75VvvnNb5aPfvSjZdlll62ZaQ888EB56aWXqqj29NNPz1msW2WVVcrw4cPLvvvuW9Zee+1apv1kvrWMNutefvnlOd1G5ybMhRBCCCGE0FeJmBZCCCGEOay66qpl++23L3vttVc54IADyoEHHliXXXfdtQplunE+8sgjdWy1SZMmlYsvvrhccMEFdRk9enR59NFHy+OPP17HWJPtNm3atDJ+/PgyY8aMKp4R1Ahrd911V82Ee/DBB+t+yV4LIYQQQgj9hYhpIYQQQnhDllhiibostdRSc7pyGg/NGGq6hV544YVl1KhRVTS777776nhpV111VRXd7r333jJx4sRyyy231Kw22WvEtqlTp5Ybb7yxTm4gSy2EEEIIIYT+QsS0EEIIIczBDJzGOiOWyS6ztK6dDz30UN1ntdVWq8IaYWzppZcuI0eOLO9+97vL0UcfXQYNGlS36brpdcsttyw77LBDLeOee+4p999/f7n99tvLcsstV7uDbrTRRmXllVeuYl0IIYQQQgj9gYhpIYQQQpjDzJkz60QD//Ef/1F++MMfllNPPbW+WmfMtMGDB1fBjIi25JJLViFsiy22qF1Dt9pqq/rZ+pbNtu6665bNN9+8rLnmmlWQ0xV0ypQpc4Q265UbQgghhBBCfyFiWgghhNChtEkC5mc8MmOhjR07to6BduaZZ5bf/va35dxzz62zc2677bZ1WW+99coyyyxTll9++TrGmrHU5iWI2Y9gJjtN91BdQ42rJjPNBAW2hxBCCCGE0J+ImBZCCCF0GMY1I6TdeeeddTHgf08xm+f73//+8tnPfrZ87WtfK1//+tfrcuKJJ5b999+/ZqbJSgMBbaWVVqrZaN7Pq6umbYSzddZZp74OGTKkviekpXtnCCGEEELob0RMCyGEEDoMs2YS0UwCcP3118/XAP/GQ9tpp53KvvvuWw455JBy2GGH1cXsnptsssl/Gd9Md06CGLFMt815YRy2p59+uu6z+uqr1+sxg6f1mcUzhBBCCCH0NyKmhRBCCB0CYYqQZqB/s2uOGzeuTJ8+vYpWvYUsOUKabqIy5GSmmc3TRAS6e7766quz9wwhhBBCCKF/EDEthBBC6ACIVsYku/nmm6uQNn78+DrA/4EHHlhWWGGF2XstXoh7xmAz8QDhzNhpu+++e9ltt93qtsmTJ9ftEdRCCCGEEEJ/ImJaCCGE0AEQpQhpBvi/9957a5dMXTOHDx9eB/tf3Pz+97+vIplruf3226ugZzw2M3uajGDFFVesIpssuieeeKLuH0IIIYQQQn8gYloIIYTQj5Hh9dRTT9VulJdeemmZNm1aGTRoUHnve99bM8DWWmutOrbZG2EMNOOZyRxzrHHRTDIwr8kB2lhpa6yxRu222SYfsHRdb79Zs2ZVsUyW3MYbb1zLXn/99evi/cyZM2s30IydFkIIIYQQ+gsR00IIIYR+iswvQtR1111Xrrnmmipa6UZ5+OGHV+HKTJtvJqSBkCZzbJ999ilHH3102WqrrepEBPMS0whtRLo999yzTlJAgCOoNSFtjz32KEcccUSdtXPEiBF1AoOhQ4eWVVddtV6PRYaaSQ522WWXst566/XoOkMIIYQQQugLxHMNIYQQ+iHGSHvkkUfKtddeWycaIKrpPknI2nbbbcsqq6xSRbJ5CWJdaRllxK9tttmmrLPOOmX55Zef57FNfNOVdNiwYTXDzDqL7puEPIIcYa29l/VGcGvYtummm5YNN9ywimw9uc4QQgghhBD6AhHTQgghhH6EscXMimlAf2OkXXDBBTUjjQh27LHH1u6UvTFGWgghhBBCCAOFiGkhhBBCP4GQZsbO+++/v1xyySXl+uuvr1lhukuabEC2ly6YIYQQQgghhEVHxLQQQgihH2CAfkLaXXfdVS677LIyadKkKq6ZZMCy2WabRUgLIYQQQghhMRAxLYQQQujjvPbaa+W5556rQpox0szaafwx46MddNBBddwx45WFEEIIIYQQFj0R00IIIYQ+DCHt8ccfL7fccks577zzytSpU8t2221X9t9//zJ8+PA6eH+EtBAWDzJEPZMW78N/Rbbsyy+/XJ599tk6KYrXl156qU6YEkIIIXQSEdNCCCGEPooAlJBmogFC2rRp0+qsmPvtt1/ZZZddakZaunaGsPggFnkmH3744fLqq6/OXhvguyGeyaA1puOZZ55ZLr744toAQFgLIYQQOomIaSGEEEIfRKD+5JNPlokTJ5ZRo0aVMWPGlCFDhpTDDz+8jBgxoqy99tplySVjxkNYnJhJ9/bbby/jxo2rs+hGUPsjsvRefPHFcu+999a6ipD2q1/9qpxxxhnl6quvLjNmzKgZasnmCyGE0CnECw8hhBD6EIJNAfqDDz5Yrrvuujo+mqD9qKOOKoccckjZaqutykorrZSunSH0AsS0KVOmlMsvv7xmjD722GM1I2sg0+qsWbNmVfF/5syZdYbh973vfTWL1sQpd9xxR5k+fXr9/rrjeN1miW0vvPBC3V+G2zPPPFPHinTMQP+OQwgh9D0ipoUQQgh9CF07CWkTJkwo11xzTQ0ohw4dWjPSdtxxx5qRFiEthN5hiSWWqF2rdVv0fOrCSPAZyGOCNTHNd/LQQw/VdSNHjiyHHnponWl4hRVWqN1iZa0ZT61rdpr31j366KPl1ltvLWPHjq2TrFxwwQU1u+2qq64q99xzT816i6AWQgihLxExLYQQQugjtKDy+uuvr0GlAFRQKittyy23LCuvvHK6dobQiyy//PK1m/Wuu+5axZ8bbrih3H333VXs6SoSDTSIab4DQuNqq61Wx3ZcZZVVyhprrFEGDRpUM87UZ90nIyCQtZmKL7zwwto19JxzzimnnXZa+fGPf1x++ctf1rpQtlu61IYQQuhLxCMPIYQQehlBuK5MukHpPiYrbbnllitvf/vby1577VU22mijGsRHSAuhdyEWGbtwjz32qJOA6OZ52WWXlfvvv7+KSQORVn8RzNRRMtHUV74r7804bPtTTz1VGwy6Z5j5rGunzDVdRbfddtty7LHHlqOPPrqss8469Tu2bW5dREMIIYTeIl55CCGE0MvIuJDdIsvlpptuKssss0zt0mm8oc0226xmpOleFkLoXYhFq6++etl6663L/vvvX997dm+88cbaPXsg0rpqGueMMEZE8z1ZvNcwIBvNPsZGm1sGn3UWwtsOO+xQx4c8+OCDy+abb17LNIOqY0MIIYS+QsS0EEIIoZcQPMrmeOCBB+qMdwY0X3bZZWsQeeCBB9asDMJahLQQ+g6eR10ZCd6777577caoa7bB983AO9BEH/WYBgF12VvtiqneGzx4cG088H1qQPAdr7feevV9CCGE0NdY4nUDmDmqQwghhMUI0yvbQrcwA5ibtZOgJog0HtM222xTxxyS1bGgGMj7hBNOKH/9139d3vve99aZQEMI84esqtGjR5d//ud/Lh/+8IfLJz7xiZptZRywyZMnl1GjRpUVV1yxbLfddmXvvfceUBOFEA8feeSRMmnSpFqfuXdd1I2ZRlzUSDBmzJgqiqmDiGbEM/gOZZ35DnVv1z30ne98Zy1D904Zf8aRJKppYDAGWwghhNAXiJgWQgghLGYEn2bpvO2228r48ePr6yabbFKzXIzFZJyhhYXxnP72b/+2TmSw8847zwliQwg9xzNrVkmC2kc/+tHywQ9+sK4nihN7zOwpM81+Zt4lqhHHBwIEsSeeeKIKaeozXTWNdyazzBhoRDLd13WJPe644+r3IuO2HUtMM5kDMY4gSYgjmvleI6aFEELoq0RMCyGEEBYTTK5gW/Bo9rpLLrmkBqGENIHiopixU3D77//+73MGSI/ZD+GtYeyvDTbYoBx//PHlsMMOm732j0KbZ/riiy+u4x6uu+66ZZ999im77bZbFcY7PUONoKhx4M4776zd1Qn2xxxzTM2ulbFmNk7jyfnujjzyyLq+fScR00IIIfRXIqaFEELoEzBHTWwy7o4ATcAlg0F3x/4+bph7MxudrksyNQSYuo5tscUWNSPNq0yOhSmkQWaIzDeiXcS0EN4a6h8iESHIs7rhhhvO3vJH1FkEcmIaAYhALst0++23r5laC/u57kuoq1966aWauUdQ9P6ggw6qYz7qBjtu3LgqRJq0oQmM6iHfiVddQSOmhRBC6G9ETAshhNAnIKIRe6ZPn17uu+++8vTTT9dgTFBqMZZOf8a9ydIQWBpDyPtdd911TsAt2Awh9E+408TxadOmlbPPPruKSLozHnXUUVV8I6h1Ku5d/U30kpmmDjc2I/FRvWdigm233bZO2EAUI56Z+bNNMuB7i5gWQgihv7HUl15n9vsQQgihVxCMCa7uvffectVVV9Xuj4IyAamMEEGpbAaZDP0tQ60F2TNmzKhZKzI3fN5rr73K/vvvXwNtQmF/z7wLYSDj+VU/qacIRLpVG1RfVi3RaK211uqX9VdPaPeuQYAYpi43uylxTPdPGWm77LJLnalTdi7h7I477qhCm+9G/afx5LnnnqufN9988/o9ynAjvOkKary1jTfeuN83qoQQQugcIqaFEELodQRYxKYrrriiBliCKVlbAiqfCVKCNNkO3ccfsk2wpZtV6yKqvNZVFIK93ghind/1y1YxQLkZ/2So6OpETNtoo43qPXVigB3CQMNzrH5Sb4E4ZFB+dZTZKa3vhC7rc8M9EdSIXYQv3WBNwmDSExlpPqvrWp2ofvZd+F5km6nfvbef19a9n7gmK2399dev+3X6+HMhhBD6D+nmGUIIoVdhhmQy6Pp42mmn1SwGGVubbrpp7RIpu8E+ukMKygRXXdGFyHhgugLJZJD15bPATjaIzC+vsiYWdxAr24JISEiTpeI+DVzuXtxfm9EuhNA5EPdbF8UzzjijrLLKKnU23QMOOKAKQwN5Rl119AMPPFBmzpxZ6+ghQ4YMmFlPQwghdBbJTAshhNDryOAw25sBrHUFIqjJbmhCme6fshXMBte9S6QB9glV559/fpk4cWLtQqSrqC6VytTlSlkyHwRviwPZF67d7HajR4+ukw24DmMBEdIGDx5cA+pOzFAJYaDTujzKQlVfEY90ayQaqQc0CAzUZ19Gmjpd9rBGDnVzxosMIYTQH+ncqYVCCCH0G2STWQhMukIJQHXnEXQSwWR4WQRg3ROqZYEIzmS2yfzaZpttyrvf/e7alVLmly6Wxl7TBXRxQEhrmXYy0nTzGjZsWB0827hBAureyJILISw+1D0mUNFdXVdH2WnXXXddFf4J7a0L+kDD96IONKnMuuuuO6dLbAghhNDfiJgWQgih1zGGjoXAJNhqGWTENePmENp0D5qXINbG4ZHpsPvuu1cx7aCDDqpjkj311FN1IbotDgyYTUAbM2ZMndXOOD/77rtvzUgz7k+EtBA6H8+4RgGiEWF/p512ql0/Zc/edtttVVAbiKjP11xzzdrdVeZeurqHEELor0RMCyGE0OsQy4hhbzVbQ3aDMciMv6M7qCBWwNaywBYHxDoz102ZMqVOpKDLqtnnCHvDhw+votri6mYaQugbEIt0Xd9zzz1r1ixBzYy+9913X63zQgghhNA/iVcfQgih15GBRgAjNnXtxtney/Joy9xwPBGNgKZbqC6igljL4sgCI6TJSLv22mtrVy7vR4wYUfbbb78ydOjQORkYi+NaQgh9B888sV+W7N57710FdoKausKYirJtu3ddDyGEEELfJ2JaCCGEXocAttJKK9WgkjDVMtQMVi3YJEQRzIhkc8N6ZRDkdCNanBlgrveRRx6p3bdMNGBCBFlyunaafZSQNq/rDiF0PgQ1Y6Ztu+22dfw0XRxNlDJhwoRy//3318zcEEIIIfQvIqaFEELodXTFJJaZYMBYQsZHI1IZyP/555+vXSTN+mafvtJVkuDnOmWZmDlU1y3Xamwks3YaK4kIGEIIUM/tsMMO5ZBDDqnZasZOGzVqVJ0gRd0XQgghhP5DxLQQQgi9jiDTQqAyWcBjjz1WXwlVxiEzcL+Z34hpMtUsxLbe6h7lvES/GTNmVBFt/PjxVTgbOXJkHWw8Ew2EELqjIUCGmjHU9tprr1qfjRs3rtx0003lgQceqPVfunyGEEII/YOIaSGEEHoVghPhyXhnxhWSjXbjjTeWSy+9tA7mr6uncccGDx5cg01BJxFr5syZ85zdc1HiGmSgTZs2rXbrdK26ack4Mcj4FltsUYPkEELoDkFNpq0xFYcNG1brjuuvv75MmjSpjrXYG3VaCCGEEOafpb70OrPfhxBCCL2CAJOgZhIB44/pNmmAblkaW2+9ddl9991rthehrY0zRGQjwMlQe/rpp8sTTzxRNthggyrIGTvNOov9rHf8gna7FOi6hrvvvrtcffXVNQiWMSfLhJDmvfHRkpEWQpgX6jt1kXEijfF4880317rKZ93Z22QsIYQQQui7REwLIYTQ6xCfBJUrr7xy7QZF+JKNZrDu7bbbrophAkzCmKwwopbPgwYNqmMPmXxgnXXWqTPlyfpokxAoy2DfjjcRwFsNUIl6lscff7xMnTq1XHTRRVXQUzYhbfvtt6/vBcgR0kIIbwbRXd1lUac99NBDZfr06VWQV1ep31KXhBBCCH2XJV4PDjI4QwghhH7Bc889V+677746nppgk+BGMFvUEPFkjuiKNWbMmPpq3KODDz647LLLLjVDLpkkIYT5gQtu7EUC/QUXXFDHTtt///3rTMC6jS/umYlDCCGE0HOSmRZCCKHf8OKLL9ZJCWR1ELBWW221GnAuSghpMtJ0xbriiivqOG7Dhw8vBx10UJ25U7cs1xNCCPNDy8jVvVPjgC7rd911V32VnStrbVHXbyGEEEJ4ayQzLYQQQr/BYN2ELdkaAlDdOxeVkMU8tgkPZKIZI00WiTHZ9tlnn7LllluWtdZaK0JaCGGBIJ7NmjWrZqgR7F955ZU6OcGhhx5au6injgkhhBD6HhHTQgghhLkgoH3sscfK+PHjy7hx42r30h133LEccsghtXspMS9jGoUQFgbccZOo6EZuYhONBu94xztqFqzxGEMIIYTQt4iYFkIIIXRDBpxZRa+77rravfOZZ54pe+yxRw1sN91000WaERdCGJiYWGXmzJm13hk7dmzt+jly5Miy3377pc4JIYQQ+hgR00IIIYTZMIlt3KIJEyZUIc24RVtttVUZMWJE7XIlqM2g4CGERYExGs0UrO6RoWZcyN13372Oz6hbeeqeEEIIoW8QixxCCCHMRkbajBkzatdOM+sZM2377bevkw1svvnmtWtngtkQwqJimWWWKUOGDKmZsOocXT9HjRpVBX4zCocQQgihb5CIIIQQwoBHRprJBQhpF110UZk4cWJZeeWVyzHHHFO7WLWJBjJGWghhUUOwV+cceOCBdXxGk6Do+mmCgpdeeqmK/CGEEELoXZb60uvMfh9CCCEMOHTrFKBOmTKlDv599913l0GDBtWxinbYYYey9tpr12yRCGkhhMXF0ksvXbuYE9bUT/fcc0958cUXa7dPXc2XXXbZ1EkhhBBCL5LMtBBCCAMWA34/9dRTNePDgN+TJ0+uwepuu+1W9txzz7LOOutk0O8QQq9gAoKtt9667LPPPmW55Zar9dSVV15ZM9V0SQ8hhBBC7xExLYQQwoBDt842c94tt9xSzjzzzJr5scUWW5Sjjjqq7LjjjjWQDSGE3kJWmnEajZ12yCGH1K7nl112WRk3blydpEBWbeYRCyGEEHqHdPMMIYQwoBB8yuogpAlKde00sPewYcNq104zd66++uqZaCCE0Ouoh3TpJKppAHj88cdr3aWL5/rrr1+3JXs2hBBCWPwkUgghhDCgIKQ9/PDDc4Q0kw7ISNtrr73KTjvtVLt5ZiyiEEJfwZiN6623Xp3h06QEzzzzTJ1tWFatbuqZkCCEEEJY/Czxh+SHhxBCGAAIOF999dUyffr0cuONN5ZLLrmkdpvaZZdd6vhoG220Uf2cjLQQQl+Du24igoceeqiOm3brrbfW9ccdd1zZbrvtaiNACCGEEBYfiRhCCCF0PALR559/vs7UedVVV5Vrr722dpsipMn2GDJkSFlllVUipIUQ+iSyZc3uOXjw4LL77rvXbukvvPBCueGGG8ptt92W8dNCCCGExUyihhBCCB3Pc889V7tzEtEEn8ZI23vvvWuXqS233LIKa+naGULo6xDUCGlmHPY6bdq0MmHChDohgcy1EEIIISwe0s0zhBBCxyJbwxhpU6dOLddff30ZO3ZsHbTbRAO77rprGTRoUJ21M0JaCKG/oMu6BgIzEOuublKCDTfcsBx66KFl0003Lcstt9zsPUMIIYSwqEhmWgghhI5EW5GBuidNmlRGjx5d7rzzzhpoykiT1aG7VIS0EEJ/Q3d03dI333zz2jCw5pprlilTppTx48eXe++9t4ptaSsPIYQQFi0R00IIIXQkunIS0K6++upyxx13lBVXXLEcdthhZZ999ikbbLBBWXbZZSOkhRD6JeougpoM2x133LHWZxMnTiw333xzzVR75ZVXZu8ZQgghhEVBunmGEELoKHTtNDC3LI1x48bVTI2tttqqZnAMHTq0rLrqqmXppZeOkBZC6Pe89tpr5bHHHqsZuJdeemlZZpll6gQFI0aMqNm36roQQgghLHwipoUQQugYdG+aNWtWHZBblsaTTz5Zu0LtvPPOdbDuzNgZQugkuPEEtUcffbRcdtll5aabbqrjRB5zzDF1tmLjQqbhIIQQQlj4JKIIIYTQ7xFQykgjpN16663lyiuvLA8++GDZaKONyhFHHFHFtNVWWy1CWgihoyCUyUZbd911y5577lk22WSTMn369JqVa+IVWbrqxhBCCCEsXJb60uvMfh9CCCH0O2SjycQwTtCYMWPqYrwg3Zz222+/2tVJsJnsjBBCp6KhwLhpK620Un29/fbb67iR66yzTh0vMpOthBBCCAuXdPMMIYTQb2HCZF7cd9995frrry933XVXXbfDDjvUbDSzdwosQwih09GwQEBTD55//vm16+fGG29cjjrqqLLllluWFVZYYfaeIYQQQlhQ0t8lhBBCv0TXpZdeeqnMmDGj3HjjjeWKK64ozz77bNl+++3LQQcdVMdIi5AWQhgoyE5bY401yjbbbFP233//+l4jwy233FIeeeSR2tAQQgghhIVDMtNCCCH0OwhpMjAIaaNGjSp33HFHWXPNNctuu+1Whg8fXtZff/0IaSGEAYkJCXR7N6PxtddeW1599dWaqStDTZdP3d5DCCGEsGBETAshhNCvYLYEiiYauPzyy8tjjz1W1l577Tr4tqw0QlqCxRDCQIagJhtNVtro0aPLUkstVRsbjCW53nrrZfy0EEIIYQFJN88QQgj9BgHiM888U2epEyDKujCw9r777lv23nvvOntnhLQQwkBn6aWXLhtuuGEZOXJk2W677crzzz9fLr744prFqw4NIYQQwoKR2TxDCCH0C3RVkoV28803l0svvbRMnz69ZloYH01G2uqrr16zL0IIIfwRotpqq61WGyJM1PLcc8/VrDTZacZYs4QQQghh/kk3zxBCWMR0rWZT5b51HnjggSqkXXXVVTUgNEvdgQceWCcaMNB2XxHSunafSleqEMIbsTjswyuvvFKmTZtWxo4dW7N611lnnVp3Dh06tDZChMVH7EMIIXQOEdNCCGERIoh54YUXahcbrz7LEEjVO/9MmTKlXHPNNXXZZZddyqGHHlqFtBVWWGH2Hr2LwEiWh4kPdD1daaWV6uJ9gqYQQlfYgJdffrnaBY0DZiZmH0yusijsw+9///vy8MMPl9NOO6089dRTZccdd6zjTA4ePHj2HmFRwgZo8GEfTALBNnhdbrnlZu8RQgihvxExLYQQFgECIoGS4OXOO++sy/33318Hzhc42R7mj2effbY88cQT5cknnyyrrrpqza4QjPSVjDRCmsBIlpwAdYsttqiZH0OGDCmrrLJK7W4VQgjqf3aATbjrrrvq8uCDD1b7QFQjfC1smnjHJukyrw5VV0XMWTywU+yVWaeN7ck+aAwyrp0GoQxREEII/Y+IaSGEsAjQ8q87jZnUdE+UjUZMsbQxapKt1FkwpxaBst9blsmgQYPKNttsU3beeeey7rrrJmAKYYBDKGMfbrrppjJ58uRqH2QrNfvALsQ2dB5sg9+efSBm8gOMW7fDDjvUCSLMSB1CCKF/ETEthBAWMrp0ykQzc9ptt91Wu/nttNNOddl0003LWmutVYOn0FkIkvz2Bvm+9dZby5gxY2omHRHtqKOOqkGTrIQIaiEMTIgpTz/9dJ1R87zzziszZsyoWUn77LNPnUSFfVh55ZWTxdqBaGBhD9iHSZMmlQkTJtT/guzlww47rApqfvsIqSGE0H+ImBZCCAsJ1SmH2SD51113XXWaBUeyknTl0K1GN49lllkmM6h1IO33101Ll1TdUWWe+D8QVI3ztu+++9b/QX7/EAYW6gf1wrhx46p9MFbaVlttVXbdddcqsusKTlhr2Wmhs/D7y0h78cUXyzPPPFO7206cOLE2vMlgNjP1iBEjqq2IfQghhP7BUl96ndnvQwghLADGo5k5c2adMY2DvNlmm5W99tqrtjgb3yuBUmfjd5V1ZgwigbGMNINMy0bR5VcQJWiyjaCa/0EIAwNCCpFdAwshjX0gnOyxxx61GziBXb2h/ki90Jk0+0AsW2211WqGukw0duGee+6p/oNun/wE9iGEEELfJ00fIYSwkNDF7/bbby/Tpk2rLcuEtOHDh1dBJQxMZCYecMABNfPkkUceqd0/dfVZFAOMhxD6JsQ0Ew6wDyYdkKG89957ly233HL2HmGgQVTbdttt6//A/+Hee++t/w9ZayGEEPoHEdNCCGEhoQuPCQcMPL/11lvXlucQBE1EVf8HYtqsWbMym2sIAwhimvGxjKFJOBk5cmTNUA1Blhp/QTaaDGaTU4QQQugfREwLIYSFRJt4wLhZMpI4yemyE3TfEiz5P8haFCwlMy2EgUPLTJs+fXrtxmeygWQsBxBV+QvENPYhmWkhhNB/iJgWQggLCWOePPTQQ1VMMzZWgqUA4+RtsMEG9f/w6KOPVtFVcB1CGBh43o2N5fknmgwZMqSK7CHIXOYvGE/N/8P/JIQQQv8gYloIISwkdN3jCAucOMic4xCMn6drl/+D/wexNYQwsGAfTEKgHiCsxz4EaGyRrSiLPfYhhBD6FxHTQghhIUFEM/U9OMiZ3j5AkCQbxf9BQK2LZzLTQhg4eN4tnv9WH2QIgAD/A8KqV0JabEMIIfQfEumFEEIIIYQQQgghhNBDIqaFEEIIIYQQQgghhNBDIqaFEEIIIYQQQgghhNBDIqaFEEIIIYQQQgghhNBDIqaFEEIIIYQQQgghhNBDIqaFEEIIIYQQQgghhNBDIqaFEEIIIYQQQgghhNBDIqaFEEIIIYQQQgghhNBDIqaFEEIIIYQQQgghhNBDIqaFEEL4L/z+978vr7zySnnyySfLE088UV566aW6LoQQQgghhBBCxLQQQuhIfve731UR7Nlnny1PPfXUf1mefvrp8vzzz1fB7A9/+MPsI/6TF198sdx3333lsssuK5dffnl931VQc8yrr75a9/M6tzIWBOW99tprtXzXGCEvhDAQUfe9/PLL5bnnnqv1dve6/JlnnvlvdaT36mXHLYr6uTdoNoEdck/u0eLerbOtE+4zhBBC/yJiWgghdCACrcmTJ5fzzz+//PKXvyw///nP5yynnXZaufrqq8u9995bA67uCNCmT59eHn300Tnbl1hiiboIWAQvDzzwQLn55pur0Eb0WpiBjHM+/PDD5cYbbyz33HNPeeGFFxIohRAGFOo8dd+dd95ZLrroonL66af/l3rccvbZZ5e77rqrNo6AwOT9Qw89VG699dYyY8aM2rDSn+tP195swsSJE6vdco8ERvaBnXvkkUeqHQohhBAWJxHTQgihAxFcXHPNNeVHP/pR+e53v1u+//3vlx/+8Id1+clPflLOPPPMKlbZT6DSNdgSwBHUNt1007LLLruUDTfcsKywwgpVTBOsCWLuuOOOcvHFF5cpU6bUz9YvDFyHQOnuu+8u5513XhXsXMvCKj+EEPoD6jx137hx42o9fsopp5R///d/n1OP/+AHPyg//elPy+jRo8v9999f63EZWupPnydNmlSFJ+X0ZzHN9RPK2ASZ0rfcckv9XmRdExLdJ6EtYloIIYTFTcS0EELoQAQgSy+9dBk6dGg59thjy2c+85nyj//4j+XLX/5y+dSnPlW23HLL8uCDD5brr7++Bl6tO5Dj1lhjjbL11luXzTffvKy22mo1QOvatUbQ1jIDvMpUk/1gm/2sE+xYvO/enbSdx3HKsJ/XVo7936j8Jva147p2c2r7CKza8fZv9xdCCP0F9Zm6b5VVVilvf/vby4knnljr8S996Uvl7/7u78rRRx9ds8/GjBkzJ9PYvhpCdtttt1r/L7XUUrWsVq+qN3UZ9aqeVL83Wv2p7mz7qD/VwV3r4dbl0jZlErbs633XutarfZ3HPsr06jpbnQ3lKq/7eZVlP9fuc1ebsPzyy5dtttmm7L777mWjjTYqK6644pzz2adrOc7nmFaefazreh3tWOdq+2Fu1+Z+rHdM13t0XotzKse2EEIInctSrxvkL81+H0IIYQEgThlnbN111y177rlnWX311WdvWfw89thjtSsmQW2nnXYqBx98cBk+fHgZNmxY2XjjjauTbx/dgVZdddWy1lprlWWXXbYGF7LVtPjLPhOgzZo1q5az3HLL1QDB+htuuKFmpbVAjwCnTN/B+PHj63L77bfXsgRzMtuWWWaZmt3Wgp3bbrutZsfZ13HOLUDSxdS6CRMm1PJXXnnlsvbaa9f70vW0bZs6dWo9TpkrrbRSvUZBjHPq+mP7tGnT6n22fVyL972BLkrud++9965Bru8jhND5qMfUVaNGjap1MPvwZqhPCTgystR7++23X9lnn32qSKYxZLPNNqs2Rh1tspgll1yy1pPq8daY4L0GEZ/tp95Wd8r41X3Uevuow53PZ9d53XXXlbFjx9Z9iEePP/54mTlzZt0X3rsuizpWeeyBulYdS9jyqq63TjaZelv9Z3/nUh8rj2hlWAJ2xXaZeM5LuHJPIBjaphzCFnvCLnjPJimLfVJWGyJAxl67ft8Fe+h3UO/6vjQisW2OtY79cSyb6Jh2D65Dl9l2bWyjfX1nthPe3KP7Z/PYL+W4Fvu4hzezOa7P7+I+/cZ+2xBCCH2fiGkhhLCQEIT0JTGtjWfmejbZZJMaHHDqBQACCEGCMWc4/C0Ic5wgylhrV155ZRWA3JfgxX6CoxaoCB6IYtbrCuq9gMmxV1xxxZzxbRxLbBP8CCxkJgg47KOrqPHbBBGCEt8ZEezaa6+txxPHHC/TwntdenT/dKzgQzAnECIGug5Bkn2MJSQgFPiYkVRAud5669WAK2JaCGFxsiBimjqM8ENA22CDDWpdpg5Tf6jPlK3eI+BoKCHiEJHUxYQmWVu2yUI+66yzan0rk40wpU7VmGIf5WiIsJ/x2YzTpsFD2YQodfQ666xTGy2IRpdeemmtY53LfSnTPspjc9TbXcfuvOSSS8pVV11V63c2qNXZbAp7oLwLL7ywduVkWwhaymC3XIdhC9TtroetYk+U5Vrsx6YRudy3YQzcq23sDTHQdTiuCZD288p2uQ720Hfi3GzGoEGD6vfMxrg23we7oxwinut3Xt+x6zj33HOr7SQW+h5dt+/V79REwXkRMS2EEPonEdNCCGEh0R/ENAgQOPcCBk6/4ExgIKgRSLkP4tW+++5bu3sKBgQkgjtlCWIautjsscceVSyTnSAYGDJkSA0Itt122xq8CBQEagQ753VdAi/l7rzzzjXjYv3116+fLcoXGAlYRowYUa9j8ODBNYiRvSD48f3KtJPJ5h7tK9AjyAk8BUqO2X///cvIkSOreOU+BYIR00IIi5OFLaZ1Rf2nvpdlpWx1rvcyrIhE6mwilHXqTvXpXnvtVet45auH1JXKadnC6vBWd7oOohgBbIsttqhluh5CGiFJ/W1sTcKRz03osp/y1Nvq5V133bWe2z0ojyi25pprVttC1CL4bbfdduXwww+v5SlDfe36leU9odA29oXYJWNPWewH+8aeuX7Htkw+dlgmHXHOuS1sn9+DzfO9EgAJi0RDwpvvROOLfdTbfr/tt9++HHTQQVWwdM32ZTcJmq5D9prfxj26V7aTXfS9vZnNiZgWQgj9k4yZFkIIAwyOvQBA8KFlHQIJwZZWde932GGHcsQRR5RDDjmkvidWCSwERYIRQZuAy5g1ggtBlIBIdloLiA477LAqlglEBF8CEIvAg6Am0BA4GAvogAMOqMcJrgRlyicAbrXVVjWwEEQpQxDknMp2DmKeYEV5MgucS/DnHpUjqGmTKPRmVloIISxM1GUty5iApW4mDqn/GvbRgEFcMgYmgeyoo46qY60RfaxXJ7eunMQonw0N8I53vKPaAGITMatr3dnqWHW4Rg3DCCibQOcaCGVsAcGJ2NXEuXe+8521rmd31OeWJoi5F7bmmGOOKW9729uqkMe2EKjU32yC8jXSNKGqNUiwDwQpAiLhjO1wj2yEMglqxLie4v5cv8xtNpFd0gji+t0rEc25fGdsI/wGREnfHbvn2q17s6y0EEII/ZfU8CGEMAARLBCeWvCle4yARlAlQ0EgIcjxmQgFIpvAoQlWDccKnuxrH4tMCeUJmgRdyrTYr42FI5ATCApyBHqCJ8KXjIOugQ+hjoimPGUrR8AkkFG+IKyVL6D0WfAn24Bg6HMIIXQa6mFCkjrZa3fUs8QojQpEJfWhupQQpD51jPrR8epldTmRSh3sVR1NwCJmdRWFiETWaeho2cr2Jyap05XHVqivZQ/LxLWfOtk+jnUMe6DOto/yfdYw4trsQ5hyLc0GzQvna401ynEeApr71fjTJtPpqaCmPDaQHbP4zL753tyX621dPH1nvkP37bxeY3NCCGFgEDEthBAGGAIwIppAR4AgIBBUeSVS6b5z6qmnlm984xvlm9/8ZvnpT39au7oIcAhWju2OdTLbDND8gx/8oPzTP/1TPfaHP/xh7Tl8UKwAAFc2SURBVHIpgBOcOJ8MAucT9LRsB0GOgEmQNrdAxP4CrZtuuqn86Ec/Kv/8z/9c/vf//t/l3//93+v1EtbatTle4ERQU17XjIoQQugU1IvqPXV5q8e7o06UAWY8sq997Wvlq1/9aq2f1dO6YKqXiUXqZWWpl7susr/Uz13rUXUs4YiARljy2fb22uwJcUuZ1reFCKVu9qpc3f+b2GU8t69//evlW9/6Vh1Pk7BGrOoJ7JryWyON63b91rXrfzNb4LqV0xbfi2w9Y7595zvfqd+fV+OnGeeNXXOfzuN+nLs18IQQQuh8IqaFEMIAQ5AgQBHktC4qgg0BAfFJMEDYsk6gJGDS3VI3GwGP/bojSGnHOsaxyrC/43QV8r4FGW8W1MwNwZFMA+V673yCMoGYrp+uU/mWrvfwVs4VQgh9mSb2EMMIOk306lo/2y7jzKD6xi9rXeHtY+laN85PPelY9atFfdv92PbZa/dtrrvhWKKcLpG6bhr30jr3Y/wwEwhopGl26o3oep6u5+gpvhfnkSkH5bkWdqbZHJ/ZIN1IjaFmrDa2xr6+e/var/s9hxBC6EwipoUQwgBDpoIsM1kDgoPWku9Vtx3j5Jx44olzshi+8IUvlE984hN1/DRdb4hlXYMF7wUbAgxjmf3N3/xNPdbyxS9+sXzyk5+sY9fYbqwZwZNgx3UIYLwXxMhaE+x53zUYaoGKcxtv59Of/nT5yle+Uss3h85f/dVf1TF2jMvjPuYm9oUQQifRstJkE3tP2FH/qSuhDiUMyZ4iSun2+D//5/+sdeaXv/zlWqcbp7JlUrUuiurkNv5aE5iIW/MjUKmD2QlletV4owzlEv9kGXtVtzsHAUqDyEc+8pGaNec6jXkpM03XSpl3b4Zz+h7YtTbkgHtwbvfQbA282tauqd1n1+tqwpkuqscff3z5h3/4h3ptbM9nPvOZ8qEPfahOkGM8tRBCCAOTRBwhhNChtIBBkKALjyCDWGUMGJkKZk+TCUCkMnOZ7jZEMQGGfR0rIDEI8+jRo2t3TcGGgKWVLxARxMg6EzQ5ViBjvUDPpARm7rzhhhtqUNcyygQ4Mg7a2GpTp06tXXyuueaaGkA5d7t+r238G59b11SL7ktmINXVU3lt/xBC6ATUZ+pc9Tihp9XjxrQ006e63PYdd9yxZud2b0xox4PQRiRSFhFOfd66YarDCWvqV5PNWOxjAH4TCbQyeoJrYEtkDrMFZmFWV7M57AmBzHpimy76bIvZLL1vNqJlhFlcX8Nx7EdXccx253L/hDDnufvuu+t3xAZ5774cY7vjfHYd9m1jo3nPViqPsMg++l5839Y7lh0znIFus23CnhBCCAOTiGkhhNChEJsEQRz/8847r/z2t7+ti/fGHhNQ6Fojo0vrOjFNdxuBkMDGODH2vfLKK2swIogTULWATEAjMCJ+WWegZ4HQzTffXI8999xzy+WXX14DKYGLY1uAIovCtRkX58wzz6zn0A1JwOL8FsKYso1N47NjCGqTJk2qgcw555xTj7/11lvndF8KIYROQ72oTlbvtXrccsUVV1QxTBaXzC7Cj7qy4T2BjMikjrT/BRdcUBsfjAVGmIK6kxilUYXApQ63n0YUdTDxrQlXPYHo5Lwaapxbl82rrrpqTl3vmtkadTrRTEOIc15yySV1H3aD0McmsU3KYmNcp7LYCtvb9Tcxzfl8F0S5yy67rI5tduONN9Z7ZQ/BRvme2CLfiXt0PqIkYcy1W1p3TtfpeI09v/nNb6pdY1Ot872EEEIYuCz1JfneIYQQFhgt+Rx4s5btueeeNZuqt5DtJegwwLQgwQQCggoLcUvAZOZMM2gKoAQYMgBcs+wHmWSyxAQtAgazwdnXTGyCH8EKIU1LvoCtzfgmYHEOAQqRSxA4fPjwsscee9Qgpw3QLPC55ZZbahAjMHGcLqb77bdfLUewpdVftgBRzTbnFuTIYpDtRlSTJaCr0j777FMDH8EW4U6gZX/n7N4ttbdov8Hee+9duw75zkMInY96iX0YNWpUHUOSfXgziFfqXo0Od955Z83e1QjS6nH1n3r+wAMPrHWKuo7gpO4kEqnH1e1bbLFFLUeDCLFKl0/Xo75Ul5stU0OILvhEJhDb2sQxRCd1tnretbMRGlbU7d6rm9VlhCj1rusmgFnfMsU0iLAp6m1l6h7pujXkOGfLXnNeYhvb4tp33nnnuo863DkJezLcvCe0uVflE7zch4Ya+7J9ymL72A/2zn6uSd3LDmncIYgR8WSvoWVot+sn9inP9YwdO7baK9fARh100EFVwFQWm+O3cH7X63vtKmq+GU0sdd1smXOHEELo+yzxutFLf5gQQlgICBb+7u/+roo7f/u3f1ud6t5CMCUIE3i0rLCGwEfgIfgSPBDRwBzINhNgCC4ERhAsuBf7aq23n0wCQYUASuAhmGkZBgInx7ZMNEEbYUs5AgzCmWBIFyUBpmBHGfZpgYjARDnKFwgJLtp6IpuATEDo2pXfhDrX795dh0CPsOm4viCm/eQnPynf+9736ng7xqXzXYYQOh91nkaDk046qRx11FF1TMo3Q/2pPlNHqo/V4y27Cuo09StBp2vdTGBST6oHNVoQeHTXbEKULK6WHax8dSgBiWCmfA0kLZuYOKcu9V5ZBx98cK1v1d/Kd6x6W5nOq5GFMOZa1L2uhy0gEulySTSyjcCnzm7X3HUfZROwbGdXCHJwT2yaa7Hd9Tsn+9GEQNfrutyr7839sTmuy3dIxDPuJhvonL4P343rZy/co/e+CzbS/bke16ZLqGuwzrnZKsfAOZ2DDfJbuI75EdPY3O9///u1Aeuzn/1s/Z5DCCH0fSKmhRDCQqIviWmh7xExLYSByVsR0xYnhDuiEQFKBpusNqKY6yYSEZDMyLzTTjtVIam/4B6IZTL6LMaVI6YRIYlmfYWIaSGE0D/JmGkhhBBCCCEMUIhpsq50eTzttNPKqaeeWr773e+WX/ziFzUjS5aYrv4ywPoTsvdappnMtdZdNYQQQlgYxKKEEEIIIYQwQCEw6U5pHM33v//95ZOf/GT59Kc/Xf7H//gf5d3vfnddr0tjfxvn0X0ZJsBEO22MM1l2EdRCCCEsDGJNQgghhBBCGKA00WmrrbYqRx55ZDnuuOPK8ccfX18NiG/IAkJaXxh7cn5wX7LRjOtm+AUTB/TH+wghhNA3iZgWQgghhBBCCCGEEEIPiZgWQgghhBBCCCGEEEIPiZgWQgghhBBCCCGEEEIPiZgWQgghhBBCCCGEEEIPiZgWQgghhBBCCCGEEEIPiZgWQgghhBBCCCGEEEIPiZgWQgghhBBCCCGEEEIPiZgWQgghhBBCCCGEEEIPiZgWQgghhBBCCCGEEEIPiZgWQgghhBBCCCGEEEIPiZgWQggLkSWWWGL2uxD+kz/84Q+z3/2R/E9CGDh0fd7VBd3rgxAQuxBCCP2LiGkhhLCQWHLJJcsyyyxTHeLXXnut/P73v5+9JQxkBM7t/7D00kvX/0kIYWDhuff8qw9effXV2IdQafbBa+xDCCH0L1JjhxDCQmKppZYqq6yyShXTnnvuuRowhSBofvrpp8srr7xSVl555bLsssvO3hJCGCgQSjz/v/vd78pTTz1VBZQQ+An8BXbC/0ODXAghhP5BxLQQQlhILL/88mXDDTesQdMjjzxSHeQQiGj3339/ef7558vgwYNrwJTsgxAGDhpYVlhhhbLeeuvV+uCee+4pL7300uytYSDz4osvlocffriKrOzDiiuuOHtLCCGEvk68+RBCWEistNJKZejQoVVMEyzJRsrYOEHwfNttt9X/w2abbVbWWGONiGkhDCCIaUT0IUOGVBHtlltuKS+88MLsrWEg8+yzz5bp06fXTEX2QXZ7CCGE/kG8+RBCWEhwgnfaaacaNE2bNq08+OCDNWDK2DgDl5dffrnMmjWrTJ48uWambbfddmXttdeOmBbCAIKYttpqq5Vtt9222oOJEyeWRx99NNlpAxj/g5aVdtddd1Wb4P+hsSWEEEL/IN58CCEsJHTPkJm2xRZbVMf4+uuvLzfffHPNSGoD0CdTrbPx+/qdddkxFg5R9eqrr67ZB7rwbLPNNmX11VePmBbCAKJlpm255ZZl4403rnXDddddVzNWZa7GPgwMmn3wexsGYsqUKWXs2LH1/yArbdiwYclMCyGEfsRSX3qd2e9DCCEsAG2AaTzzzDO1tZmQ1oQTjrT3JioQXIXOwu8rSJKBNnPmzHLvvfeWG2+8sWahrLvuumXXXXct22+/fRVd8/uHMHDwvLMPxk0jphDX1Q8yk9gD9Ubbh41I/dB5sA+EU7+9rMQ777yz3HDDDeXuu+8um2yySbUPxLTllltu9hEhhBD6Oku8XrmnGSyEEBYiunYaM+3KK68st99+ew2OZKxttdVWZYMNNqjdfQRNobMQJAuOTT4hI42IRlhbf/31yyGHHFK23nrrjJcWwgCmCWnqh0suuaQKamyB4QHYiDYAPYEtdBaylTWysQ933HFHXdgLv/sBBxxQsxaNuxohNYQQ+g8R00IIYREgYCKo6cYxY8aM2qWDMy2YsswLVbLFviC8JFOh/+B3ar+ZINnsrkQ03TvXWmutCGkhDHDU70SVqVOn1oWgJjOt2Ye2T+g5zW76/ryqZ/uiINnsg2sjmrIPxtE0NETGSgshhP5HxLQQQliEPPbYY7UF2gD0un1qlRZICZ7mVv3qBvLUU0/VyQtgsHqL7kGhbyNI8jvp0mnWPl06CWnGSFpmmWVm7xVCCKXagIceeqjaB7N7anwxGL1spdaYEnqG79KQCo8//nid9GWdddapizq5rzREaVwxDMSgQYOqeEZEk60uczmNLCGE0D+JmBZCCIsQAwsLjixmbiOWCZS6V70+CwiIaLoHXn755VWY2XPPPcsee+xRBZo43H2blnUgaFp++eVr5oFXY+AkszCE0BV1frMPhgZgH3xu2VWh5/j+ZPmZ9IcNHTFiRNlvv/361JAKbICMNA0rXe2Dz7EPIYTQP4mYFkIIvYxqWDAgK2HMmDFl/PjxVXTTcj1y5Mg6looZvuJwhxBCCP8V9lKW34QJE+qg/oSq4cOH14aodK8PIYSwqIh1CSGEXkZmwv3331+uu+66Ok2+rqE77LBDHZSYoLbqqqtGSAshhBDmwrLLLls22mijOiPmtttuW4dKYE8NrWBYhRBCCGFREDEthBB6Cd15dO0xVs4111xTLr744pql9ra3va3O/rjppptmmvwQQgjhTZB9tt5669WhETRCaaRiV00CxM6+0cQ/IYQQwlsh3TxDCP0G1ZWl65gyHGhLf8vccv1azKdNm1bGjRtXbr/99jq2y0477VR22223Omi98VSSkRZCCCH0DCKajDTdPW+77bZqS3X3NFxCp2V584W6+0PuL91aQwhh8RAxLYTQL1BVGaBf9w3dIAlRxKc111yzznZplqy+OBX+vHD9d999d7n22murwy8D7aCDDqrdVNxPZn8MIYQQ5h++gllSzznnnPLoo49WQe3QQw8tm222WVlppZVm79V/4Q+ZyOjZZ5+t98cvIqKtscYadRZTomF/8odCCKG/stSXXmf2+xBC6LNwjmfNmlVuuummcu6555bzzjuv3HzzzeXJJ5+sQppZu/rDrFgcYF1OdD0ZPXp0nYFsww03rN06ZaUZLDmze4UQQghvDfZTZjffwMQ+MtVgIh+CU3/MZu9Ka1icPHlyOf/886toaCbTJ554ot63ezSOXPyIEEJYtERMCyH0eQhQTz/9dJk0aVLN4uIgbrDBBjUrzSxeujmssMIK1XHmQHZHK66ldYmwKLOtV97icDqdlwNMBNS1U4adcdF23333OmhyhLQQQghhwWBD2VLCEhuv0W3GjBnVBhOa+Av9NfvbPchI4wvxJfgy66+/fhk0aFB9zydy32Y09dqdrv5Qe+0NfyiEEDqBiGkhhD7Pq6++WrPS2kyXxhQ77LDDateNxx9/vMycObN2adC9gaDW1RHUgmsMFfs51uuDDz5YHnjggfredk61LqOL0oHkpBLSjI02atSoev7BgwfXric77rhjumWEEEIICwn23PAJstbZX9ng/AhZaRqudPfsjzaXz8J3mTBhQs24k9F++OGHl6222qo2OsrEc7/ucfXVV/8vfg3RjD9EXOQP+T7sbzZx7wlx/CHfS8ZdCyGENydiWgihz8PB4zya9ZKDJ4tL10gYe4yYxnkkTjXnsTmQzz//fLnvvvvq2GRELC25Xi+77LLqjL788sv1GN0/FkVLtevi/GpJvvHGG2vXTvey/fbb1zHSZKZpPY7jGkIIISw8+AGy1ZtwZsIfDVpNaLK+q9jUH9C4qDunTDvC2DbbbFP9CPfHHyKKWS9bzfirXbu08ncIZzLjr7jiijpsBt/ITOLjx4+vDX4y9/hDc8vyDyGE8F9J9BZC6PO07DLonqH7ghbnNjZIy/p64YUXastrV3RheO6552qXCOOTcSo5n1tvvXXNRuNY3nvvvVV0W9i4Ls6rLLTLL7+8ZtYZL2348OF1djEOMGc+QloIIYSwcGli2nrrrVd23nnnmgWu0cxMnzLV+AbdfYa+Dp+GH+GVD8SH8Nqy8IhqMs/mdm8+83VMfmTYDP7J0KFDa+Oech566KHaaMmfCiGE8OYkggsh9Hm0xBLKunfJ9J64RrSyvY2f5nNXrJMZ5pWQdtxxx5Xjjz++7LLLLrUc3R2aWLewcC7XwznV+nvllVeWRx55pGy++eblgAMOqNl1RMEQQgghLBrYeH6CmTz33Xff2pilgYtdJhzxHfoTrXGxdcm0aJDjF7Usd/dEKCOezc0fIqjZzh955zvfWf7sz/6s7LnnnvV4s4MS4kIIIbw5EdNCCH0eYlpz/jiC84uW2nXXXbc6jrqHar01RlmbxIATujBxjZxRGW9EtKuvvrq2+u633351MVBwstFCCCGExYPMLdnge+21V9lhhx3qWGEXXXRRzU7nW/QXCGTEMtlp3YWynsAf4vfwhzbaaKM53Tpl7xl3ljgXQgihZySaCyH0eTh/umrMbZKAnjiThCviGUeRkMapVp7Wau+7l7kguB7jlhiX5bzzzisTJ06skyKYsXPEiBFVzNP6G0IIIYTFAz+AaCRDzSRGxhSTOa7L5/Tp099SQ11v4D5ahn5XuvpCb+TTOJ5PooGRkMYfUZ7XltkWQgihZ6TGDCH0eTh6nD/CF4exOY2cX620HEeOJdFtXk4kJ1F2mDLstyjQ/UJG2p133lkH9b3mmmtqVt2uu+5au5dw4iOkhRBCCIsf/oGJB2SmscvEJA1eJiZqs1n2dfg6/KE2xAU/qPlFrVvnm/lDGhOV0cSzNxLfQgghzJuIaSGEPg/HkOMIXRuMF0Kk0jXDVPAcQRlnxiB7IwdyUcKJNcOWQX0vuOCCOjOWQX2POeaYmpHWfYr6EEIIISx++Ao77bRTHb+U7zB58uQ6w7dxTTWK9WX4OK1RsKs/RAiUFc8X4W8Qy/hO8TtCCGHRETEthNDn4RC2FlRjp5mpitNoximTB1ivy0KbGbO10loWB84zc+bM2rp94YUX1jFYjM3SBjs2FkmmmQ8hhBB6Hz6FccNMBGSWT4KTBjCNYQS1xeU7vBX4OPwhYhohjT/EF+IT8UOIacZlNbSFfRa3PxRCCAOJiGkhhD4Px5dQprUVZuDSNePWW2+tjq9xUAykqyXWwLyPP/54zRJr08cvSrQIO5drGTt2bHXG11577XL44YeXPfbYo47LkgF9QwghhL4DUco4quz00KFDqxh14403lqlTp9bZv/tqhhqBTGadjDq+kZlJ+UNTpkypY8DJWttkk03qdj5Q84cIbxHUQghh4bLUl15n9vsQQuiTaDXmNBLLdO0kWF111VVl2rRpVWDTsrz11ltXB9M6TqUWWiKWRTab8VA4oUOGDKnjpDQn0xhnhLqNN964tuTOD4Q0Yt64cePqGGkc1pEjR5aDDz64DBs2rJbHYQ8hhBBC34JvwS/QIOfVeKcyvfgN7LfhJfpaN8nmD/F3+BfEP/4Qv8e6HXfcsY4Jx1968MEHq9D26KOP1mPdT2twJBYS3WSxtUZBgiIxzkRJa621Vj0mhBDCvImYFkLo8zSHl6PIGdRlUqurrpQcx6222qq2MHMsjaFm4Rzah3DGOXSc7pYyxZTTHFL7WK+bqP16iow3LcK6hshII/IR9Ey7T0hrrcYhhBBC6JvwG9rkRIQ0M3sSoWSYs+N9bdIgvotr5tO4bsIfMVCDIBFtm222qT4Nn0ljoXviDxHXCGTu0z3xmTbYYIN6bCvT++YP8ZNCCCG8MUv8ITm/IYQOwVghMtIefvjh6kQOHjy4trDOj0jWEwhnHNTrr7++CmnGbdt9991rRhqHNuOjhRBCCP0DoZAMdhMRnHHGGeWWW24pRx11VJ2gQCMZwYrY1J/gD/FTCIP8IWPEmVF8YftDIYQwkElmWgihY2gzahrvpLXCtkkJFgYcbi289913X7niiivKTTfdVB1TIpqMtDbRgFbeEEIIIfR9Wva7jC0+A1tvyAj2XpaW9QS1/mTbZc+bmMAii40/xC9ynyGEEBYOEdNCCB0FB5KgZSw1Y54sLAe4CWl33XVXzUgzPgmn23htI0aMqFlwztvfWq9DCCGEgQ7bzYbr6shvMB6qTHfjqxLUrO9P9p3PYjHcRPOH0tgXQggLl3TzDCGEN4FApwuI7pyjRo2qGWlaqnUB2XvvvefMMhpCCCGE/ouwiIg2evTocuWVV9Yuku95z3tqo5lxxkIIIYRGxLQQQpgHqkdCmgkN7rjjjnL11VfX8dhkoZlO38QHJjjQih1CCCGE/s8rr7xSxxq77rrryoQJE2pWmoYzi6EdkoEeQggB6eYZQgjzQLdO441MmjSpdu00VprZQE02YBZRs31l/JEQQgihc2DX22yZGtUIaxrVdJnUXdK2EEIIIU0rIYQwFwhpjz/+eLn11lvLVVddVWf5IqTtv//+ZbfddqsZaSGEEELoPAzlMGzYsJqNZpZujWmXXnppmT59ennxxRdn7xVCCGEgk26eoV+i6500fIsZHENYmPh/EdKMjXbJJZdUx3nbbbetGWlbbLFF7fKhhbpTaAMvp/tKCCGE8J+w/3fffXdtVJs6dWrZbrvt6jAP22+/ffUDYjNDCGHgEjEt9EsMCMupueWWW2o3PKJaCAsL1eIzzzxTHeiJEyfWFuptttlmjpDWSejOstpqq5Wtt9667LTTTvV9CCGEEP4In5O/OWbMmDrL59ChQ8t+++1XNtpoo7LyyivP3iuEEMJAI2Ja6Jc89NBD5Re/+EU544wz6iyLyU4L4a2hVZ1YeMQRR5SPfexjZciQIbO3hBBCCEGo9PLLL9fhHk4//fQqru2yyy512Ac2M5MQhRDCwCRiWuiXGLviO9/5Tp1l6fjjj68ZQyGE+Ud31tNOO60MGjSofPrTn64t7iGEEEL4I0Ilwz888cQTZdy4ceXKK68sjz32WDn88MNrl0+CmoapJZZYYvYRIYQQBgIR00K/xACwJ598crnrrrvKV7/61TogfAhh/nnggQfKSSedVAOBE088sWy11Vazt4QQQgihYWIiM3teffXVZfTo0WXFFVcse+65ZznwwAPL6quvXsceDSGEMHDIqJkhhBBCCCGE8Abozjl48OA6XppZPjVGXXvttXXW76effrpmr4UQQhg4REwLIYQQQgghhDfBDJ7rrrtu7REhI0222rnnnlsnxTJxUTr8hBDCwCFiWgghhBBCCCG8CYZE0L1zk002KSNHjiybbbZZefLJJ8tNN91UZwA3IVYEtRBCGBhETAshhBBCCCGEHrLSSiuVrbfeunb5HDZsWLntttvK+PHjy6xZs8orr7wye68QQgidTMS0EEIIIYQQQpgPlltuuSqk7b///jVD7Z577innnHNOuf/++8trr702e68QQgidSsS0EEIIIYQQQpgPjJ+25ppr1gy1nXfeuaywwgplypQp5eabb66TE2RCghBC6GwipoUQQgghhBDCW2CNNdYoI0aMKDvttFP9fOONN5aJEyeWZ599NhlqIYTQwURMCyGEEEIIIYS3yMorr1x23333csQRR9SMNRMSXHPNNeXRRx+tkxKEEELoPCKmhRBCCCGEEMJbZJlllimDBw+u2WnGUXvmmWfK6NGjy9SpU8sTTzyRGT5DCKEDiZgWQgghhBBCCAvI2muvXfbcc8+ywQYblDvvvLOMGzeuvr744osZQy2EEDqMiGkh9FO0cr766qvlhRdeqONyaAW1PPfcc3Va9r7otLkm1/byyy/Xbg9pqQ0hhBBCp6CL56BBg8q+++5b9t5773LvvfeWq666qmaoPf300/F7Qgihg4iYFkI/RSvn9OnTq5N22mmnlZ/97Gd1Oeuss+psUn1t4FtCGqHvjjvuqNdnHBHCWhzLEEIIIXQCSy65ZB0/bcsttywjR46smWr33HNPufLKK6uwxneL3xNCCJ1BxLQQ+hmcMCLUI488Uq6//vpy+umnl+9973vl29/+dvnXf/3Xcuqpp5ZLL720Om/Eq76SoUbYM27IddddV51KQmCcyhBCCCF0EksttVRZbbXVyrbbblsOPPDAsvzyy5dRo0aVm2++ec6EBPF9Qgih/7PUl15n9vsQ+g1PPfVUFWWIMxwVY1MMFDhh9913Xxk/fnxt5Vx//fXr7FFve9vbyv7771+GDBlShTYO2yqrrFJbSDl2bTYprabgyFnX1vtM8PLZK8HupZdequ9t69pFU/dS65ZYYom62DavY2Efx/i9brvttiryuW4ttpxMtOOU3451XNfrVYbFebpfS/fr87ldn8U+jrPdYl/n6HofAxFdgzn57t84L36TEEIIIbx12FRdPldYYYWy3HLLVZ/jscceq36IbqDW8c1CCCH0XyKmhX7JQBXTCD8EoGnTptWukpyzbbbZpopoZpDafPPNy0orrVTFtlmzZpUVV1yxilW6fBLYCFMcO0ITwYpjZ71yCVyy2WbOnFnuv//+MnHixDJhwoTywAMPVPGpCWHWOb/jlbXsssuWxx9/vB5LwLP/pEmT6n7KcS7XQLS59dZbazad9RzNVVddtYp9nEvHabU1WK8p5ZVldizncH3uQTYbAdE1T548ue7ns+tT/u23317Pa7Bf9+PaHO++7fPggw/WY2644YZ6LQ899FAt2/fkXANRUIuYFkIIISx8iGV8EL4OG8sH4S8R2dZcc83q/4QQQui/REwL/ZKBLKbJuiJGEcw4ZKZi18pJENLSSTjqmpkFgpPBbwlt66yzThXkOHTWEZ4cR0S75pprqihGNLviiivKRRddVMc4M8nBww8/XL9z64heynBe2W+OIcgQs5RpHDddTe+6667qTHIa/WZjx46tU8XffffdtYuna1lrrbWq8EVEO++888oFF1xQz01cc73EHfdEXLv66qtrGe7dtV5yySVVVFQW8XDMmDHlwgsvrIIa8c152/Huz/pzzjmn7kNQI84R0VwDp9b3OdAEtYhpIYQQwqKBD0RM0+2TL6UxcsaMGXOy8wei3xFCCJ1CxLTQLxmoYhqHi6DGIZNVJXuMkNWyq2Riec9x22STTcqmm25anTXfl2wu631umWDWyRojyMncInI9+eSTZd111y277bZb2XHHHWt5RCf77bDDDnUhPLkWQpoyCVdENyKfdQbd3WOPPeq5bCPWEc5sI/QR4WTTOQehi3jn3GussUZdv9dee9VyCWjO73zuWTaZdX5vx26//fb1vmXYtSy9ESNGlPXWW68KdFqECWqEPxlphEPH7rfffmWXXXap5T7//PP12NZK7L4GkmMbMS2EEEJYdLCvGu74K/wRPgvbS2hjc70OJL8jhBA6hYhpoV8yUMU0NLGHIEYw8l3IMtN9gFgkC01WGsFKyydRyvckM4tY1MQlIpxp2glP9mvdKG0bOnRo2X333asYp3xlG4vNNO+2Ed6IUMrjCLaZRb3qarrPPvtUIY6DSLADgY5YxoHkUBKztthii1o+kUy30a233rqeY7vttqv314TC1VdfvZahRZeoZj9iHcHQtXBMXYt1w4cPry29hD0CoPPah/Aoe8121+feXB9xTpn+QzLUBppTGzEthBBCWLQQ0/gp/BK+Eh+F32WdLHzrQwgh9C8ym2cI/QyZXAQPotPHP/7x8va3v70KW2eeeWadzdPMnr/5zW9qV0xiWRubw0Kgso4DR1yTkUXg4shBZhthTaaadTK7iHJbbbVVnZVqo402mjOpAUHMtTRknxGohg0bVrPQnE9ZjndeGW/O1yCSEe4IWa3Lp+Ndj2M33HDDKnDZj+Amo42z2crVZcJn+2+22Wb1vPYnvLk+1+7endPx7ptg57P3hMiWzUdsa5MeOF8IIYQQwsKEz6Kx8IADDqh+nKEwNGYR1vgm8T9CCKF/ETEthH4GZ8tCyCIo7brrruXDH/5w+Yd/+Ify1a9+tXzsYx+rQpQxOWSqEZLsR6yShSSDTIYWAYmQRBzzCllZresmIQrOY73F+5YZ15ZG92O77uN6Zct1dxSJbIQ0whZH0r7O4XhCF1GsXRu8t66tb+W3a2zXh7YNRDLZe8ZJO/XUU8uXv/zl8pWvfKV897vfrWO4yU4jSBLs4syGEEIIYWHDJ+GraLCUIc9XI6gZM9ZrBLUQQuhfREwLoR/ByeJsmQzAGGPEMZlfumQeddRR5dhjjy2HHHJIzfAilhlXjVBFfJLRJQtMN1DrQWSzratwJsOsTWQwv3R1AolnxCnXQcyaF93Fr/a5u0PZnFBdJSze9xTHEt8IdDLWvG9Zbbqa6jbauniGEEIIISwqNDzK+DcLu/eGurjxxhurbyZLPoQQQv9gidcD1jSBhH6H7KqTTz65tuTJxjIY/UCgjZNmVkpi2pZbblkH4W/ZYB5nWWe2y0ojlrWxxYhol19+ec1Y073AwpkzaD+RyTHXX399HWPMeGbGUiO+aTE1QcDOO+9cJxYg5plRU3laV51fF04ZXkQrY5JxEIl0ximz3rXZj6DnHLpZ6qbq/Mq59tprq8jlHMZk8/6WW26ps4IS9eyn+6byiHPGySOAGQtu0qRJdSw1mXcmLiCKWedeCY3GbvO96fYqC84+zkE4I/IR/Lzn0BLYugp6AwETUZx00kn1ez7xxBPrdx1CCKEzaH5DG8og9A38Fnyn8ePH11nS+WGHH3549ZX4MaHvwU9qE0nwF99Ko3MIobOImBb6JQNVTPO4cogJTcQhRp2gRhwyxhnnzNgbV199dR2Un1BGTDPWmWw2Y3MQx2DWS9sIYsSuBRXTCF9ejQeibNdD/DKLpq4MuqO6XuKa/ZRlHDZjt5lMQldLY58R4mSOOc65N95441qeY32eXzHNsZwe16zV1304LyfIxAomOXD/1juX80RMCyGE0AloYDvnnHPK5MmTazZ76Bu07H1DUNx33321Uc+4rxod+Syh76HXhjF799133zl+bghhYBNJPYR+ROuuSOgiUBG7jAN27rnnljPOOKMul112WRWNZKXZR8YVoUS2F6HMeshm47S1Lp4LCseQ0EXYuvTSS+uECEQ/55UZ59zeOx+HXuYc4c9nDqTXqVOn1hba3/72t1Us5Lg4llDmvt8KxDFZbb4LrYm6U1xwwQU1uHCdPsuU03ofQgghdBImHNKYNGXKlNlrQl+AX8bH0SipcZE4432EtL6LRmrPEl+VvxtCCMlMC/2SgZqZ1iD8PPLIIzWTTAaWDDAClceZ0Lb//vvXsdNkGRHPOG26eega2mb5lJUmC4yIRQgjfMkG0/1TthkBSxacdY6zTvaWzDRZbDKaCGQyxGSXyXoziL9WVi3gXpX/7ne/u55LxpjJEGSmyUQjBO655551cQ26OlxxxRU1q0zmmuyxd73rXbU7KEFQ5tqYMWPq+VtXTeVxamTJKZ8zahw065zHvRhPTkui8zkHIc29Ksf2gw46qC7GThuIrYzJTAshhM5Fw9UXvvCF2jD1uc99bvbaEML8YkiSn/70p3U4E5N98ZNDCAObiGmhXzLQxTQQughMsruIWcQhyL7SrdMi+0xmFvFNVw/CGOFJppZul5tvvnnNdlMNELAIYFpKCVJaRx2nKyWhzjEEK8Kb/Qhn9iF0cdY5GbLHdK2EMjkazmGdba6RCOi6dW+w3qJ7g+sj7LgXLX7OReCyndhGDNMq6Jqsc2/KI6gRCl03ccyrdc7j+lyD76R9B+7fq/uQKed7khnnPgbiBAQR00IIoXNhnz//+c+XYcOGVX9pIA1jEMLC5MorryynnHJKbVw+4YQTIqaFECKmhf5JxLSe4fFu4tcdd9xRM9hgUH7jqRGfFgTlG6dNtptsMyKc8dbMJpqxJPoHEdNCCKFziZgWwsIhYloIoTsZMy2EDofYRTAhpMnsInjp7tHGTlsYyH4jnrUx0eKshxBCCCGEEELoVCKmhdDBELUIXboyGkft6KOPruOXyUgjei0oytc10iyYbXYj45O91ckCQgghhBBCCCGEvk7EtBA6HN33pKJLSyd2GcNMFtnCyh5TvvHNttxyy9q9U8bbwhDqQgghhBBCCCGEvkjEtBBCCCGEEEIIIYQQekjEtBBCCCGEEEIIIYQQekjEtBBCCCGEEEIIIYQQesgSf3id2e9D6DdMnz69nHzyyeWuu+6qU73vtttus7eEEOYHM72edNJJdey7E088sWy11Vazt4ROxiy/r776ann55Zfr+9/97ncl7kDnYoxMY1lalltuuToxjcljQudz5513ls9//vNl2LBh1V/KbNshvDWuvPLKcsopp9QxiE844YQ6HnEIYWATMS30SyKmhbBwiJg2sPj9739fhbMHH3yw1qPTpk0rDz/8cHnqqafKiy++GEGtAyGaEdDM4jx48OCyxRZblE022aQMGjSoimsRVzqbiGkhLBwipoUQuhMxLfRLIqaFsHCImDaweOaZZ8qMGTPK5MmTyz333FNmzpxZnnvuuSqkyVCLS9B5eLYJaiuuuGJZddVV6+zLnvNtttmmDBkypKywwgqz9wydSMS0EBYOEdNCCN2JmBb6JRHTQlg4REwbOLz00kvltttuK+eee24V0mQrDR8+vAbZMpYILQm0Ow+ZiM8++2y577776u8/YcKE+tsT04455piy0UYb1c+hM4mY1jOEQxoUdH1/5ZVXalfo1iW663cmu9d2+znG9uWXX77a0Df7bu3veOexyAxddtll3/Jv0q7Z9SjX9RLOrfPcuyblew0LTsS0EEJ3IqaFfknEtBAWDhHTOp8WwN1www3lxhtvLLfffnsNrP3WuvvJVCKkCcQSaHcefnuB/9NPP10ee+yxcv/995cpU6bU7r1bbrllGTlyZNlxxx0TcHcoEdN6BkHqoYceKuPHjy933313FZk9F54RApXnQ10qu5coPWnSpHqM73XXXXetdShh7Y0gcnkOPYOPPvpoWXfddcvWW2/9lgUvz7XnWJ2u3O22264KPDKOH3nkkXpN6vmVV145v/tCIGJaCKE78ZxCCCGEDkbAN2vWrCqkCawJaPvtt1856KCDaiAnoJNZkWCrMxGk68q53nrrlR122KEcccQRZe+9965jqPlPTJw4sTz55JM10A9hINIyvB5//PH6PFx66aVlzJgxNYNXF3iCNGR7Ea2IV6NGjaqL97rK9+T5UY59iWm33nprzRY1EcxbzWtwrLpdWZ5lYqD6Xhby888/P+fakzcRQgiLhohpIYQQQgcj+LvlllvqZANEleOOO6528dPFKAw8iGs77bRTFdUIADK8p06dWl544YXZe4QwMGnCs/EFiVCy0AjNRCsQqkzWQhCDfWWVgWBFbCNgEeVknllkiSnnjUQz53Kcc9nfcUQy3bOdsx1nP5/V6fZzHs9tE/Jcvyy0zTffvOy+++41g2qllVaq2xznOpSr/Hasa47YFkIIb42lvvQ6s9+H0G/gzFx33XXVKdhnn31qZgVnIkuWLPO3cN6vvvrq6oTvueeeNVsldBayHy6//PL6e+uypFu8YDGZaAOX1h1Nt0/CgKBdd7VVVlmlrg+dA9FE9zTduQ888MA89/NA/fjEE0/U+pKPabbb1VdfvdaVXnWDl+1lAhe+J3FM988NN9ywile2e45ktp111lnlwgsvLNdcc03tXq+81VZbrT53umYSs5xrzTXXrN1JPYO6jV500UU1K+6KK64oN998c91H1rBj4fy6oKrPla9Lqmuxn+sZOnRoWWONNWrXT40n9nesbbLsrrrqqnqOSy65pHb1ds+e+TbWWnhjDDHjO/ffGDFixByhMoQwcMmYaaFfwpn513/913L99deXP/mTP6lT/YcQ5h9O+BlnnFEDAmOmCahDZzF27NjyL//yLzUb6YADDqjj+wiewsCF6yfwNxmBwNz4Sp/73OeqKBA6i4yZ9uZ4HmSGydIkON1xxx1ls802q2KJxtq99tqrvhLB+J0ESkIV0UpX+X333bdmqPFNNfQSwghoypX5te2225bDDjusZgTLLjObst/FOYgyxi71LLYu18omvNm+//7710Zjn+1HnCPo6NJJaHNdunU6/1FHHVWPcR/GdVt//fVrl24ZaMQ6XUGV4docawIa23X/JsIlW/mNyZhpIYTuREwL/RLjTXzve98rv/71r2tKe0uzDyHMHxx9XT8OOeSQKqZFmO48iCV///d/X973vveVd73rXVU4TRZC0O2LGPCjH/2oCgDf+c53arAfOouIaW9OdzFNBpKB+4lasraJVOpNQpSx1AhbGiSMVbbpppvWrG6CFpFLRhiBjC2V+SUDTHkmA9CYwWd1nN9lyJAh9XchohG4Nthgg7qOqEXQs54gZnxLfq7yiWmy2Qg6yiTMEe/U6UceeWS9niamtXESjesmM02WGmGPSOgabrrpppodd/TRR9frTabVGxMxLYTQnYhpoV+i9e/f/u3fagr94YcfXh2LEML8Y+wVXT440slM60x0B/qrv/qr8ulPf7oKajIQElAHGTK6l33rW98qF1xwQRXVBN6hs4iY9uZ0FdNMKkA0k7UlE42N5GcSuojPhCvDIRCyxo0bV0U2mWPENd2miWImebGPMolpjvG8abQiaBmjsGWm7bLLLnO6aepOqn52PcQwQzDYX3YaZJYR2Yh3uus7p/0IfK6T6LbxxhvX+3AOYo9sU8c5h3syQ6kyHUccwqGHHloz7Jw/zJuIaSGE7kRMC/0SrXwnn3xydRg4h5yKEML8I2g46aSTaus7MU1rfOgszj///PLxj3+8duP70Ic+lOyDMAfZad/4xjfKmWeeWX72s5/VQDt0FhHT3pzuYhpRTNfOBx98sC7ey+CyXmMusYzwZF+ZYzLObDceGsHN5ADKs+iOaR0Bi2jVxDTnInSZWVkGm/0s3hPWHGN8NOKYfazTFdQ+uozuvPPO9bfUU4OY5lWXTY3LTUxzTUTA0aNHV2GQffeZDfCZ0Ke7JxHOs6/LaJg3EdNCCN3JbJ4hhBBCCCGE8Dq6TJp4gFhCkDLmGFHN2IIELAKUrphNmCTGyfIkTp1++um1sffLX/5y+ad/+qcqUptN2ZAK3XGcrqSEr9NOO6384z/+Yz3u61//evnxj39cu3DaTmAj1BHnvM6trHnhGonmunr+4he/KN/85jerqGqoFJlv7su1z0+ZIYQQ/kjEtBBCCCGEEEKYjS6UZm00C6psMN0iZZzJSOveHZLARWjTBdMEAnvssUf5sz/7s9qtXhaZ7pyyv7tCSJNtJtuNmKYbqAyx9773veX973//nPHPCHfEPWOmeW+8NgKZ49viWK9zw3mN06Ybp7HRXJcM5Y985CPlYx/7WDn22GPrtszkG0II80/EtBBCCCGEEEKYjcwzWWmEKF07ZXYRyqwzrllXiGJm+CSoEb6MjfYXf/EXVRQznpqulXMT02SDKdNwC8ZgI3YRuhxnnDRdSF2HRddMghcxTYaabDkZZyYQMjOva+gqqBHcXAtR0PXq5nvwwQfXsj/60Y+W97znPfUcun7q3mm/EEII80fEtBBCCCGEEEKYDTGKwEQEM76YRXdLolf3cSebcGWRJWYyAFlsulAav8yxc+tG2Y4jlinb5AUy1e699956HHFON0/7EdIIefY1PprtXo2Jd99991WBzbm7Yl/Xq7uq8ztG2Y4z/toZZ5xRzj333DrTp+NDCCHMHxHTQgghhBBCCAOaruJWywYzK6fMLVliFl08m8hmX6+6YOoOqlsoUYpAdeqpp5bLLrusZo8Zf43QRTDz6jzKd5ysscGDB1fx7T/+4z/K97///XL55ZfXzDMC2gorrFCFMF08dfs0+YFJuOxrDLRp06bVcmTQeVV2uzaLCQ9kn5l1VIbdr371q/Iv//IvddIRY6XJmnPtjg0hhDB/REwLIYQQQgghDFgIUAQp4hLBipBFBCOgmTnTOGjbbbddzQ4jPNlu5kwCmvdehw4dWmfflGFmJk6vyjMmmVflEcWIV8QtxxDqiF1EO1lphDJdN9dbb716PuOtEdQsztfGN5s1a1Ydy43g53iLcu3nGpWvbGKaMmyXpSZLzthuhDTXu+uuu9Z7dF0hhBDmjyX+MK8RK0Pow3A2zJYkZd2sRLvtttvsLSGE+cFYLSeddFINJE488cTqcIfO4vzzzy8f//jHy+c+97k6Hk/3Lkph4CJr5hvf+EbNUjHr4I477jh7S+gUdAP8/Oc/X8fM4i/JXAr/HeGQ50FmmUwwwprxyWSTEZ5klBHRCGIyvkw6IHtMhhkBCy+99FLd16vyZLDZ33vHq3sda3wz51K+fZRl3DPH+n2a6OY4+7eJB2BfYptzt31dg/euo2v57dpsa+dwnO3KI8q1jDY+QHhjrrzyynLKKaeU7bffvpxwwgm1+2wIYWCTmjOEEEIIIYQwYCE4EbZ045Th1bpyEppkeskck9nVhCsCl/XWEaaaOCXLS3dM2WCy0XTjbMcTtpRHVLO+CXZeHSdTbIsttqjdPh3jOlyPcxHJLMQzWWvKd54246j9u5fvelxvO86+jiGsenVNyo6QFkIIb43UniGEEEIIIYQQQggh9JCIaSGEEEIIIYQQQggh9JCIaSGEEEJY7BgPyNhEFuMJ9Rfadfenaw4hhBBCCAuXiGkhhBBCWOwYRNsEGCaUefzxx6tA1dcxcLfrfvDBB+useBHUQgghhBAGJhHTQgghhLDYaDPbmWXwggsuKKeffnq56aab6ixzfV2cev7558uMGTPKNddcU2644YY6Y14EtRBCCCGEgUfEtNDxdO1KZIpzmQUW7wVBtjdakNd1v+7debxv5XUts5U3t3VdzxFCCAMZdeRTTz1VHnrooXLfffeVhx9+uMycObM8/fTTtc7sSqu/W33c6uTu9XbXerft07XeRvf9Wv3cHftZ33W/dk4z5Zklb/PNNy8bb7xxnSWvHTO3a7C+0crsuszt/CGEEEIIoe8TMS10LIIYAY0A7f777y/33HNPzYS4+eaba0bBlClTagAns8C+Fu8fe+yxus0+9r377rvLk08+OSdI8l4XH4Gg7kmTJ08uEydOLHfddVd55JFH6vo77rijrrv99ttrV6B2jhBCGOioR9WVuksuueSSZcUVVywvvfRSXde9rnzuueeq4KY+VSfLYFPvqtfbfrLFdBedNGlS3WfChAm1vu+6j/rbftYr68Ybb6z1vPra9XQVtVwD22C7spR777331mtZeumly2qrrVY22mijsv76688R02yzT7sGi2tyX1Am28EGsQ9teeKJJ6roFkIIIYQQ+hdLfel1Zr8Pod8gq+G6666rgciBBx5YNthgg9lb/hMByrPPPlumTp1aLr/88jkBztlnn13OOeecul4Qt/baa9fXFuCNHj26/PznPy+/+c1vyvjx4+s62Qirr756efnll8stt9xSrr322jJt2rS6XTelSy+9tH4WHBLQfD7//PPrOQRzzrHCCivMCbxC6Cv4z44aNaosscQSZc8996z/1dBZEHDUR/vss0/Zaaedan3WmxCeCEm6dRKm1llnnSp2Eb+IVCuttFLdj8ClDr3ooovKr371q3oPY8eOrfW/fYhZ6ld17sUXX1z3Oe+882r9bB917uDBg+t/W9kaPNTrZ555Zt3/1ltvrSIX++E7UT+zGxpA2Bd24MILL6wC3qxZs8qaa65ZxT+NM+wE2yBDjV3wHbMrZ511Vn1lA5ZZZpmaxWYhpBHafvazn1W7wY5YbBs0aFAV6Vzn4sb9+r5uu+228s53vrOst956s7eETsF4hFdeeWVZa621qr/UG/+zEDoBDTnqb3X2iBEj5tiqEMLAJZlpoWMRZAnQBDEMoGCIULDrrruW7bbbrgZOMglkmQnqZCLIQpBpxunce++9yw477FDLEGgI6oh3bdBsy3LLLVd23HHHMmzYsOqwCkpktm2yySZl++23rwGazId2jhBCGMgQb1588cVaLxKmiFHbbrttbdBQB2sA0bBhUZcan0y9q5495JBDyh577FHLsK86XRdRmWv2Va/bh2io/reP+l9GmgxjojHha6uttioHHXRQtQeugzBGQJNFRuiTkWz9NttsUw444IB6fcpwHkKafZTtugh+hDT2wbXbl2BBtGR3lO3a1P+uhS0hZmy22WbVFhGv0sgSQgghhND/iJgWOh6Bl8BMBsTIkSPLBz7wgfJnf/ZnVSgTIAmimpgmw0GAtO+++5a//Mu/LO9///vLFltsUTMQiGyCN8GTRUAkKDvuuOPKu971rrLuuuvWwG6VVVYphx56aPmTP/mTGow5t+MEkCGEMJBRHxKj1IlEJJlo6tiW+SujTH2sEaMJZhol3v3ud5e//uu/Lh//+MeraLb88svPqb/tR5iTWWWfE044oYpvMtPUu85H2NJYMmTIkPKe97ynfOpTn6qil+NMJqBxhBim/te90/nV65/85CfLn/7pn5ahQ4dWgU5ZDZ/dj/1lJhPG1PvK/uhHP1r3kX3mGl0Hu2F/90v0c09bbrllbZRJtlAIIYQQQv8i3TxDv6Qn3TwFLjINCFwW3X1kC+hWI4ASiAlwdDEihMkaEPRI2x4+fHgdXFo3HcEPMU1Gmn0dY1/lyUhzrH1ci+yK3XbbrQZIzq8822RA6JJEaAuhL9G6efqfEpj9h/3Hs3TOImtKt0aNBL3dzVN3S5m6unkS0DbccMMqqllHFFNHavjwP/TfVHd7VR8TndTdRCuf7Ud4Uz+zCTKCCWiEKfWyfZzDPsQ059CVWb2tnleWjGKNKDLkCHSuQcYyO7HLLrvU8lZeeeVaFiHOcUQ3WWrsA2FM9plyNJ44b/t+leNaHGuda9S1dOedd67X4Pp7W0TT2OT6CYIHH3xw/f7n9h/qpIVoq3tv+8xPmNtiv3mtn9uizLmtt9g2t0W9O7f1FtvmthB657beYlv3RWbkVVddVf/TMu795m2b9/AshBDemHTzDCF0Z4k/aFoNoZ/BoJ188sl1DJyvfvWrVcDqDseS6CUbYdy4cWXTTTet2QCCBYGP8WtkEwhqZDp4b2BqTqX9ZJ1xnHUP4og6RmabQMq+gihBEaMqmGvdefbff/8asMqoGDNmTH0VqBHoCGoh9CVk5Jx00klVcPG/1cU5dBbqSWLa17/+9fKhD32oVwMAEwBcf/315be//W0Vx4hphCb/Q1lfunHut99+tbukulZml26XRDgNFOpv3SPVz+pe62UNq+eJbsQB99f2IbzpmkkwVh+7f/W2fTSAqNuNcSZLTAMJ8c4YaQQwGWzdx7pUnxPf1PdEtmOOOab88Ic/rNdAHDOummNcK4GKmNfK1nX0P/7jP+pndsKz1tsiBtHG/+KUU06p90IM7GSIl4RawpL/i0Y16+a2+G3mtr4t3be337L7ujfa3ta3/bpub/vPa3vX/ea2ru1LRP7xj39cs0BlTHYtiyDsOfJ/b+tCCHPH2IPqSsO4yIDWwB5CGNhETAv9kvkR0wRiAi3ilyw2gY7sg65imowCmRLWCex00xSIaVF2LoGYIEpLFAdcxoFjWqabACxiWuiPNDGNk0iokJ0TOguCk0wqdWZvimmELpPAmBDmsssuq2KZYB5cEXWzIOWII46oY5X5bMy0Jr4RxVy7DDv1bBPFrDc7p8kF1M3+wwQ5i7pYY4eunLKZ//zP/7wKbS3z7eqrr65i2jve8Y4qJPmeiGCtO2hPxDRChc+2mUig6/5tKAB1Pztxxhln1HKN6+Z5620Bg5j2ta99rf43jOPmfjsZQhLRk7jJXvMR2vquIpTXtq4t8/O5ve/pMXM7tvtnr+3a3mi/7u+Jxp45gT/fxra2vT1zMtasCyHMm4hpIYTuREwL/ZKFLaYZX0fQJn1b1weZaVtvvXXtHiRwEnAJvGRNtPF3IqaFTqCJaQSX448/vooIobNQNxFM/M69JaYR0tSdZuSUKazeJd4QsATxGi50i1dnEqDUozJmHKfu9f/UJc9r1242MtuIAoQ53Sjt4719ZH7pqkmwYwN8D/7j6mJCmHpbQ4kZOwlcuonKQHYNxBbriG7KZ09AmJBd18Q047T98pe/rHW/61HHWy8zzT2xN67Rdcle64timsw09/CVr3yl/i6dDsFTVmTrfskN7rr47eb2fm7rum9/s/27r3ujsua1rvv6NzuOD2J2Wc89H6brfoRnorQuvl1F4BDCf0e9/9Of/rTakE984hMR00IIEdNC/2Rhi2mcSV1wBFa2memNwKYLiKBMpoLAR7DEMdX1k9gWMS30d5qYRtA48cQTq5AROgsCloH7P/e5z/WamKbLvHry3HPPrVnAsrV05TSeZBPTZIURdVZdddU6fp+6tYlY6mnCljpWlpr6WJ1KGHEs0c0kAYQsgljrRso2yESSEXfJJZfUhhKZacbZ1J3Teg0mJhloYprvyzEmE2jdAc3YiZbRY+bmts/ZZ59ds9+MlclGEAgJerLlXBv74vrM5NkXxbRvfOMb5cwzzyw/+9nPqt0bKDRBifDU/XN7/2ZL12Pf6Li2re3bdd2bLV2PfbNj5rZdN88f/OAH9dV/s+s2z49nwbOTzLQQ3hhZ0BpTjjzyyJrlzH6FEAY2EdNCv2Rhi2m77757Fb10hTB2lHWcS4GGAEi2msDPeoZU8BUxLXQCEdM6n74gphGkZGbpbim7y6zK6kX1MUGJ2CTYJ+rIYJNVJlCxL2GKyEO88l45BABdbdS96mT1rDrWGGUaQexDOFC3E600ivgeZLSxBYQzQhrxjAD3tre9rdbPyiHEySRTj9vfOnZEXe+zrDV1u/HR3ve+99Xuo+yEayWcuXY2RpcgYoVsON85exMxLSxu/O88+/7D/nMhhLeGxhGNNGb6Z8MyxmwIIWJa6Jf0REwjgOn2YwBrEwvoUmSsHd0aBEeyzZQjsDKxgEfBZxkHFpkGgjfHmQFONgMjqiznJawJ5gRvuicJqJRr7BHrBWm6M3k1+YF1BsMOoS8RMa3z6QtiGnFJ5q/sM+d/+9vfXuvD1rVM/avxQ92rbiaIGd9JA4V6lCBgnWPVx+pZE8fIeCOUmUhAxjAhTh2/11571YW4pZun+pzAdsUVV1TxjVim7lavH3bYYXUAdplvgiUNLUQ/XeM8F0Q9wp+MZUIau2IcN8cTxgiFGmGMA6dsdT6Ril1ynRpYmsBnfDZdQ3W3I+JFTAuLGv7K5z//+erPfOxjH5u9NoQwv8hmPu+882r97VlKN88QQsS00C/piZimu4NASxAle0FWAVFLpoDAhgAmeNOyJJAS1FkvIGMwHSfYMYaU8dHso0ziA9FMgCUYFLgJ4ASJjre/7AXjrdnXq3PbV3kh9CUipnU+fUFMU0fqKqk+dP7WbbOrmKS+9n9Ul9pPV0/HqeeJadY5hkDmeHUqF8Z4lwQ4Qpb9NXoYK023S+KXcyhbfS8bzf72k7kmw1hGm2PYAHW8DDPlyT7zWQaaRhUNIgQJYpprlFVnnfLZCw03bJPzuC7XIKPZLIqu3VACMtiaPTHZTcS0sKjx3BHTPDP8pd7+z4XQX8kEBCGE7kRMC/2SnohpIYQ3J2Ja59MXxLTQN4mY1vlETAth4RAxLYTQnYw2GkIIIYQQQgghhBBCD4mYFkIIIYQQQgghhBBCD4mYFkIIIYQQQgghhBBCD4mYFkIIIYQQQgghhBBCD4mYFkIIIYQQQgghhBBCD4mYFkIIIYQQQgghhBBCD4mYFkIIIYQQQgghhBBCD4mYFkIIIYQQQgghhBBCD4mYFkIIIYQQQgghhBBCD4mYFkIIIYQQQgghhBBCD4mYFkIIIYQQQgghhBBCD4mYFkIIIYQQQgghhBBCD4mYFkIIIYQQwgDm97//fXn11VfLSy+9VF588cXy/PPPl2effbYuPv/ud78rf/jDH2bvXernl19+ec4+9vfZerTyrHvllVdqGc8991xdnMM62xxnne2vvfbafzlHCCGE0JeJmBb6PRyvLFmyvLUlhBDCwIYA9vTTT5c77rijXHnllXU555xzyg9+8IPy4x//uFx22WXl4YcfriIYiF6PPfZYGTt2bPnJT35S9zv99NPr50cffbRuJ5JNnTq13HDDDeWmm24ql156afnlL39ZfvGLX5TRo0fXbfb/7W9/W37+85/Xc9x7771VgIttCiGE0B9Y4nWDFYsV+h0crm9/+9tl8uTJ5dOf/nTZYYcdZm8JIcwPjzzySPk//+f/lJVXXrn89V//ddlyyy1nbwmdwgUXXFBOOOGE8vd///flAx/4QFlllVVmbwkDGe4fceSf//mfy9lnn13+3//7f2XHHXecvTV0CnfeeWf5/Oc/X4YNG1a++tWvliWWWGL2lv9EltiMGTPKNddcU6666qqy7LLLlpkzZ5YpU6bU7XvssUf58z//8+prrb322jUT7eabby7nnXdeFd1koW2wwQZl5MiR5aijjqr/I/tcfPHFZfr06dW+3HXXXeW2226r/zn7uZ7HH3+8jB8/vgpw22+/fXnXu95V9ttvv7LqqquWpZdeup47hL4CkfmUU06p/1U2dZ111pm9JYQwUImYFvolWki1cAoSV1ppper4hRDmHxkJutjstdde5S/+4i/KJptsMntL6BQuueSS8jd/8zflox/9aHnPe95TBg0aVJZcMonpAx3ZQ8SM733ve1VA8brddtvN3ho6hZ6KaUQv2WMyxHbeeeey1VZbleWWW65MmjSpPPXUU2XIkCHloIMOKhtuuGG57777ykUXXVSz0zbffPOy5pprlmeeeaY2dA4ePLiKbl6vuOKKmoFGgBs6dGhZccUVy+23316FOHXQPvvsU9Zaa636P3SsfUaMGFGvdYUVVph9dSH0DSKmhRC6EzEt9Es4bRMnTqwtmpww426EEOafpZZaqgZCMgl23333ssYaa8zeEjoF2SZf+9rXygEHHFAOP/zwsu2225Zllllm9tYwUNENT6aQzCKCy1e+8pUqYoTOYn7ENJlkV199dTnyyCPLvvvuW9Zdd90ybty4Kn4Z08z6jTbaqHYHJZQRx97xjndUUeHBBx8s1157bRXYCG+77LJLGTNmTJk2bVptpFEegY04d9ZZZ9UMteOPP74KaI4h6MqaJcTttNNOtaE0hL5ExLQQQncipoUQQggdjIYH4xoJVAW4hx12WA2Cw8CF6zdr1qwqnsgcIqp/7GMfKxtvvPHsPUKn0FMxTWYYscAYZ8cee2xtXCFo6Z6p4fKBBx6odcd6661Xs8tuvfXWKra97W1vq/s9+eSTta4xHprP+++/fx0rzf+MQDZ8+PDaWON6CHb+c+985ztrZppzO04mnIy4iGmhLxIxLYTQnfTzCCGEEDoYwaoxinTnNQaSsYx08QsDF7//E088UW688cY63tWuu+5ax7UKAxcim4xVIpaFsNVdePNf0RPAZAUEuK4Y48xxume2oTccv/zyy5fVVlutlhdCCCF0EhHTQgghhA5m9dVXr2Mg6c5rUHFdsWSZGC8vDDwIIrr06b4nm0imkUyLZAIF45gR1AhjMse6Qxyz2NZdaIP/lqzH1uml7UtIm1t5IYQQQn8mYloIIYTQwejeaVwi4+IJas3cOGHChCqsGTfr1VdfrUFw6Fz8vjKJZCf63ceOHVu7LBHSdMEziHwyh8KbQRyTeSbTjPDmP6X+IMwbU40469X/bW5iWwghhNBJLPWl15n9PoQQQggdigDYWGkG+zYouEHEiSuC4Yb3AuQsnbM0kePuu++u2WgmHJgxY0YV0o444og6IUWy0joXkzQRTnX3PvDAA+cqchHDdN00S6f6Yeutty7rr79+3dfxDz30UJ34iSjfZu40ZppjzNTp+Pvvv79OVIDNNtusTlRgUgLdQr13fhlvyvP/I8Y5jzrJbKHObbvy/DczS3voa8joNX6gGbHNOpt6M4SQCQhCCCGEAcLDDz9cBZXJkyfXoNY4WQIC4xoJZENnQiQlqslEJIQQNwzybpB53YBD59LTCQgIXLqAqxtMDKBrOMHL8W0CAuKrCQLUI5dffnmdnEC30FVXXbWOw+c/RiDz3yLem6GTkLvHHntUIU72YyYgCP2VTEAQQuhOxLT/3979hXZd7nEAfw4hGdNyZpa5yH/dLCXLm+hCJkMc210XXgmBN913F4R4pd6IgTcRXvjnQoIiAiGyLiqcN5rMWLX+CWkDq9k/Q4QuzuH9sJ3TGaaPnrOxn3u94Mu237+B7tn2vPf5fB4AmEfyYz8b2py0d/r06fLFF1/UypNUmeQ+vxbcPRKcJCRNaLpq1aqyfv368txzz9WW33ysFe/u1xKmJWxNWJagPd8PBgcHa2CQMC1VrOfPn68BWn9/f61kTCVaTvRMleOxY8fq8/P1lPuHhobqYxLWJzTL95UccLF69eoaluX10macMC3hXCrdUpWWz51qtHXr1tWvUycOM9cI04DphGkA3BXy4yzVEbkysycbwQQJuYQG/y0neqa1Kic65v1UlEz9u3F3mVoHCSdSQZRKoFQNzXTlT9ZjQpe8zfr7u6H1zKyWMC3r/vr16//+fpA2y3yt5LFpBU8glvuXL19eb8//aSocE7AlCMvz8/WUcCHtoZnTmGq3iYmJGrR1d3fX+/O1mOrIfJ7I50llW77/5Lbcn+A3n8OBBcw1wjRgOmEaAB1vqsUoc6FS+ZDWomz8MrsnV4IEG3mYPQlRMmMoM7MSpCQ4UW00+1rCNODWhGnAdE7zBKCj5W9CqZpIm9L7779fXnvttbJ3797y+uuv119+f/jhh7qx97cjmB1Zb6lK+vDDD8vJkyfLp59+WiuZAADuFsI0ADpa2olykty7775b28q2b99ew7Rt27bVarWcMJfh2tngT5eALc/Ja6SCJqHctWvX6pX3U/EmhIM2WStZR6mGOnHiRF2TOfXxVu3D09dhLusQAJjLhGkAdLRswNPWmZay++67r55QmAHaGbKegdZp+xwfH68b9Okb8oRtGb6fYfzDw8P19Lm33nqrXqlqyzygbOjNEoObyxrJWskA+wyszwmNCbBvdUps1mQCs8uXL5eRkZF6ouTHH39c3n777fLmm2+W9957r75WHgMAMFcI0wDoaFPVLAnOMug6A9YTqmWeSd7/8ccf65XN+PQwLUP4R0dHyxtvvFGOHj1ajhw5Uvbv31/27dtX20TPnj1bT6UTpsHNpbIsw+tzKmNmF2YtPvvss6W3t3fyETeWNZkB919++WUNsQ8fPlyOHz9eDhw4UPbs2VMOHjxYXzPrUHUaADBXCNMA6GhTbWE5Fe7ee++toVqGbGfYea6cHpd5TQndpm/G83HuHxsbq4HZli1byssvv1x27NhRenp6antoZrHdqEUU+I9UoC1ZsqT09/eX559/vr7NISA5ofFWsg6zxlJFmtA7z33ppZfKzp07y8qVK+upkalOE6YBAHOFMA2AjpbNdwKxBGgJ1O655566gc/mPh8nRMuVypm/24znvlSxPf3002VgYKBs3ry5rFq1qraBJojL/cDfy/pbuHBhWbduXXnyySfr2zs5vXPp0qXlmWeeKVu3bi19fX1l7dq1df2milSYBgDMFcI0ADraVJiWIeV3IgHA6tWr66b94YcfrgFANvSPPvpobRdNSADMrATgjz/+eA3hUtG2aNGi2iqaULurq2vyUQAAc4MwDYCOlsBr8eLFtSItlStT15SEYTcLxPK8tKfdf//9tU00m/o8fuotMPOyDrMGH3jgAesQAJjzhGkAdLRUlk1VrqQ6baqdc6q9MzPUsjnPZv1Gm/Js1vMaN3sMMPOyBrMW06JtHQIAc5kwDYCOlg14ArMEZ5lxlsMIcpjAtWvXavvnX6tdbNABAID/lTANgI6WIC3VLKlG++WXX8rly5fLzz//XE8AvHLlSp2DlithWkK2v1avAbMv6886BAA6mTANgI6WMC0HBmRweQ4jOH36dHnnnXfKuXPnyp9//lmeeOKJ0tPTUzft3333Xfn2229r0JYKNmB2JUS7ePFi+eabb8r3339fq0kBADqNMA2AjrZgwYKycuXKMjAwUE8A/OCDD8qrr75azpw5U0O2p556qoZpCdo++eSTMjw8XEZHR8vVq1dr22fCuJzgmcq1zE+LzGzKxzncIPdrD4XbkzWTitGsob+urbRjnz9/vpw6daqMjIyU33//vd6XdZzH5jmR52eGoXUIAMxF//in+noAOlzaxRKWpeLl0qVL5bfffqtB2mOPPVavbNATno2NjZWJiYm6Od+wYUN9m9t/+umnOlct7aDZtOe2X3/9tc5dy0mfy5YtqwEb0CZVoePj4zU8yzp76KGH6jpMRWjC7LRjx6ZNm+oay5pNW3aC7azZBGeZeZjb8hoJylesWCFQu01fffVVeeWVV8qaNWvKrl27/PvBHfroo4/KoUOHysaNG8uLL75Yv6cB85swDYB5IRvzhG2Zq5bALO2fOZzA5hJmT0K2Cxcu1JAsMwx7e3tr8M3MSFv77t2767/10NDQ5K3A7fr6669rdXtfX1954YUXyoMPPjh5DzBfCdMAmBfSTpbKtPzYy1+UU+WSShlhGsyeVKZ99tln9e3y5cvLI488Urq6uibv5f8tc+kOHjxYq2pSlQvcmVTNrl27tmzfvr0MDg7WanZgfhOmATAvpCImVWkJzxKi5RfjzGQCZk8qpLIO05qdNZi1qIV65qRV/fPPP68tt3/88cfkrcDtSkV7d3d3DdQypzUfA/ObMA0AAAAAGjnNEwAAAAAaCdMAAAAAoJEwDQAAAAAaCdMAAAAAoJEwDQAAAAAaCdMAAAAAoJEwDQAAAAAaCdMAAAAAoJEwDQAAAAAaCdMAAAAAoJEwDQAAAAAaCdMAAAAAoJEwDQAAAAAaCdMAAAAAoJEwDQAAAAAaCdMAAAAAoJEwDQAAAAAaCdMAAAAAoJEwDQAAAAAaCdMAAAAAoJEwDQAAAAAaCdMAAAAAoJEwDQAAAAAaCdMAAAAAoJEwDQAAAAAaCdMAAAAAoJEwDQAAAAAaCdMAAAAAoJEwDQAAAAAaCdMAAAAAoJEwDQAAAAAaCdMAAAAAoJEwDQAAAAAaCdMAAAAAoJEwDQAAAAAaCdMAAAAAoJEwDQAAAAAaCdMAAAAAoJEwDQAAAAAaCdMAAAAAoJEwDQAAAAAaCdMAAAAAoJEwDQAAAAAaCdMAAAAAoJEwDQAAAAAaCdMAAAAAoJEwDQAAAAAaCdMAAAAAoJEwDQAAAAAaCdMAAAAAoJEwDQAAAAAaCdMAAAAAoJEwDQAAAAAaCdMAAAAAoJEwDQAAAAAaCdMAAAAAoJEwDQAAAAAaCdMAAAAAoJEwDQAAAACalPIv3nGWR9rqDL0AAAAASUVORK5CYII=;" parent="1" vertex="1">
                    <mxGeometry x="-880" y="70" width="1235" height="526" as="geometry"/>
                </mxCell>
            </root>
        </mxGraphModel>
    </diagram>
</mxfile>